%TF.GenerationSoftware,KiCad,Pcbnew,(5.1.8)-1*%
%TF.CreationDate,2021-01-15T01:55:53+01:00*%
%TF.ProjectId,Microwave_LO_Generator,4d696372-6f77-4617-9665-5f4c4f5f4765,rev?*%
%TF.SameCoordinates,Original*%
%TF.FileFunction,Soldermask,Bot*%
%TF.FilePolarity,Negative*%
%FSLAX46Y46*%
G04 Gerber Fmt 4.6, Leading zero omitted, Abs format (unit mm)*
G04 Created by KiCad (PCBNEW (5.1.8)-1) date 2021-01-15 01:55:53*
%MOMM*%
%LPD*%
G01*
G04 APERTURE LIST*
%ADD10C,0.100000*%
%ADD11C,1.000000*%
%ADD12C,2.600000*%
%ADD13O,2.100000X2.100000*%
%ADD14C,3.400000*%
%ADD15C,1.200000*%
%ADD16C,0.900000*%
G04 APERTURE END LIST*
D10*
%TO.C,J5*%
G36*
X141900000Y-93210002D02*
G01*
X141900000Y-106710002D01*
X136400000Y-106710002D01*
X136400000Y-93210002D01*
X141900000Y-93210002D01*
G37*
%TO.C,J4*%
G36*
X140734999Y-121805001D02*
G01*
X127234999Y-121805001D01*
X127234999Y-116305001D01*
X140734999Y-116305001D01*
X140734999Y-121805001D01*
G37*
%TO.C,J5*%
G36*
X141900000Y-93210002D02*
G01*
X141900000Y-106710002D01*
X136400000Y-106710002D01*
X136400000Y-93210002D01*
X141900000Y-93210002D01*
G37*
%TO.C,J4*%
G36*
X140734999Y-121805001D02*
G01*
X127234999Y-121805001D01*
X127234999Y-116305001D01*
X140734999Y-116305001D01*
X140734999Y-121805001D01*
G37*
%TD*%
D11*
%TO.C,J5*%
X136840000Y-98745002D03*
X136840000Y-99215002D03*
X137310000Y-98745002D03*
X137310000Y-99215002D03*
X137780000Y-98745002D03*
X137780000Y-99215002D03*
X138250000Y-98745002D03*
X138250000Y-99215002D03*
X138720000Y-98745002D03*
X138720000Y-99215002D03*
X139190000Y-98745002D03*
X139190000Y-99215002D03*
X139660000Y-98275002D03*
X139660000Y-98745002D03*
X139660000Y-99215002D03*
X140130000Y-97805002D03*
X140130000Y-98275002D03*
X140130000Y-98745002D03*
X140130000Y-99215002D03*
X140600000Y-97335002D03*
X140600000Y-97805002D03*
X140600000Y-98275002D03*
X140600000Y-98745002D03*
X140600000Y-99215002D03*
X141070000Y-96865002D03*
X141070000Y-97335002D03*
X141070000Y-97805002D03*
X141070000Y-98275002D03*
X141070000Y-98745002D03*
X141070000Y-99215002D03*
X141540000Y-99215002D03*
X141540000Y-98745002D03*
X141540000Y-98275002D03*
X141540000Y-97805002D03*
X141540000Y-97335002D03*
X141540000Y-96865002D03*
X136840000Y-100710002D03*
X136840000Y-101180002D03*
X137310000Y-100710002D03*
X137310000Y-101180002D03*
X137780000Y-100710002D03*
X137780000Y-101180002D03*
X138250000Y-100710002D03*
X138250000Y-101180002D03*
X138720000Y-100710002D03*
X138720000Y-101180002D03*
X139190000Y-100710002D03*
X139190000Y-101180002D03*
X139660000Y-100710002D03*
X139660000Y-101180002D03*
X139660000Y-101650002D03*
X140130000Y-100710002D03*
X140130000Y-101180002D03*
X140130000Y-101650002D03*
X140130000Y-102120002D03*
X140600000Y-100710002D03*
X140600000Y-101180002D03*
X140600000Y-101650002D03*
X140600000Y-102120002D03*
X140600000Y-102590002D03*
X141070000Y-100710002D03*
X141070000Y-101180002D03*
X141070000Y-101650002D03*
X141070000Y-102120002D03*
X141070000Y-102590002D03*
X141070000Y-103060002D03*
X141540000Y-100710002D03*
X141540000Y-101180002D03*
X141540000Y-101650002D03*
X141540000Y-102120002D03*
X141540000Y-102590002D03*
X141540000Y-103060002D03*
X141540000Y-103530002D03*
X141540000Y-96395002D03*
D12*
X139360000Y-95205002D03*
X139360000Y-104720002D03*
%TD*%
D11*
%TO.C,J4*%
X135199999Y-116745001D03*
X134729999Y-116745001D03*
X135199999Y-117215001D03*
X134729999Y-117215001D03*
X135199999Y-117685001D03*
X134729999Y-117685001D03*
X135199999Y-118155001D03*
X134729999Y-118155001D03*
X135199999Y-118625001D03*
X134729999Y-118625001D03*
X135199999Y-119095001D03*
X134729999Y-119095001D03*
X135669999Y-119565001D03*
X135199999Y-119565001D03*
X134729999Y-119565001D03*
X136139999Y-120035001D03*
X135669999Y-120035001D03*
X135199999Y-120035001D03*
X134729999Y-120035001D03*
X136609999Y-120505001D03*
X136139999Y-120505001D03*
X135669999Y-120505001D03*
X135199999Y-120505001D03*
X134729999Y-120505001D03*
X137079999Y-120975001D03*
X136609999Y-120975001D03*
X136139999Y-120975001D03*
X135669999Y-120975001D03*
X135199999Y-120975001D03*
X134729999Y-120975001D03*
X134729999Y-121445001D03*
X135199999Y-121445001D03*
X135669999Y-121445001D03*
X136139999Y-121445001D03*
X136609999Y-121445001D03*
X137079999Y-121445001D03*
X133234999Y-116745001D03*
X132764999Y-116745001D03*
X133234999Y-117215001D03*
X132764999Y-117215001D03*
X133234999Y-117685001D03*
X132764999Y-117685001D03*
X133234999Y-118155001D03*
X132764999Y-118155001D03*
X133234999Y-118625001D03*
X132764999Y-118625001D03*
X133234999Y-119095001D03*
X132764999Y-119095001D03*
X133234999Y-119565001D03*
X132764999Y-119565001D03*
X132294999Y-119565001D03*
X133234999Y-120035001D03*
X132764999Y-120035001D03*
X132294999Y-120035001D03*
X131824999Y-120035001D03*
X133234999Y-120505001D03*
X132764999Y-120505001D03*
X132294999Y-120505001D03*
X131824999Y-120505001D03*
X131354999Y-120505001D03*
X133234999Y-120975001D03*
X132764999Y-120975001D03*
X132294999Y-120975001D03*
X131824999Y-120975001D03*
X131354999Y-120975001D03*
X130884999Y-120975001D03*
X133234999Y-121445001D03*
X132764999Y-121445001D03*
X132294999Y-121445001D03*
X131824999Y-121445001D03*
X131354999Y-121445001D03*
X130884999Y-121445001D03*
X130414999Y-121445001D03*
X137549999Y-121445001D03*
D12*
X138739999Y-119265001D03*
X129224999Y-119265001D03*
%TD*%
D13*
%TO.C,J3*%
X104978200Y-85005600D03*
G36*
G01*
X103288200Y-86055600D02*
X101588200Y-86055600D01*
G75*
G02*
X101388200Y-85855600I0J200000D01*
G01*
X101388200Y-84155600D01*
G75*
G02*
X101588200Y-83955600I200000J0D01*
G01*
X103288200Y-83955600D01*
G75*
G02*
X103488200Y-84155600I0J-200000D01*
G01*
X103488200Y-85855600D01*
G75*
G02*
X103288200Y-86055600I-200000J0D01*
G01*
G37*
%TD*%
%TO.C,J2*%
X104500000Y-116995000D03*
G36*
G01*
X102810000Y-118045000D02*
X101110000Y-118045000D01*
G75*
G02*
X100910000Y-117845000I0J200000D01*
G01*
X100910000Y-116145000D01*
G75*
G02*
X101110000Y-115945000I200000J0D01*
G01*
X102810000Y-115945000D01*
G75*
G02*
X103010000Y-116145000I0J-200000D01*
G01*
X103010000Y-117845000D01*
G75*
G02*
X102810000Y-118045000I-200000J0D01*
G01*
G37*
%TD*%
%TO.C,J1*%
X107065000Y-105930000D03*
X104525000Y-105930000D03*
X101985000Y-105930000D03*
X99445000Y-105930000D03*
G36*
G01*
X97755000Y-106980000D02*
X96055000Y-106980000D01*
G75*
G02*
X95855000Y-106780000I0J200000D01*
G01*
X95855000Y-105080000D01*
G75*
G02*
X96055000Y-104880000I200000J0D01*
G01*
X97755000Y-104880000D01*
G75*
G02*
X97955000Y-105080000I0J-200000D01*
G01*
X97955000Y-106780000D01*
G75*
G02*
X97755000Y-106980000I-200000J0D01*
G01*
G37*
%TD*%
D14*
%TO.C,TP1*%
X100736400Y-93935200D03*
%TD*%
%TO.C,TP3*%
X110180120Y-116363400D03*
%TD*%
%TO.C,TP4*%
X134710000Y-87665000D03*
%TD*%
%TO.C,TP5*%
X121574560Y-107199080D03*
%TD*%
%TO.C,TP6*%
X109235000Y-88215000D03*
%TD*%
D15*
%TO.C,U1*%
X108335000Y-98945000D03*
X108335000Y-100195000D03*
X109585000Y-98945000D03*
X108335000Y-97695000D03*
X107085000Y-98945000D03*
X107085000Y-100195000D03*
X107085000Y-97695000D03*
X109585000Y-97695000D03*
X109585000Y-100195000D03*
%TD*%
D16*
%TO.C,U6*%
X132735000Y-98715000D03*
X132735000Y-99215000D03*
X133735000Y-99215000D03*
X135235000Y-99215000D03*
X134735000Y-99215000D03*
X133235000Y-99715000D03*
X134235000Y-99715000D03*
X134735000Y-100215000D03*
X133735000Y-100215000D03*
X132735000Y-100215000D03*
X133235000Y-100715000D03*
X134235000Y-100715000D03*
X135235000Y-100715000D03*
X134735000Y-101215000D03*
X133735000Y-101215000D03*
X132735000Y-101215000D03*
X133235000Y-101715000D03*
X134735000Y-101715000D03*
%TD*%
D14*
%TO.C,TP2*%
X117510000Y-115630001D03*
%TD*%
D10*
G36*
X134290672Y-101159513D02*
G01*
X134291130Y-101161222D01*
X134289167Y-101171091D01*
X134289167Y-101258909D01*
X134306301Y-101345046D01*
X134326916Y-101394817D01*
X134326655Y-101396800D01*
X134324807Y-101397565D01*
X134323304Y-101396525D01*
X134316476Y-101383750D01*
X134304290Y-101368901D01*
X134289442Y-101356715D01*
X134272500Y-101347660D01*
X134254115Y-101342082D01*
X134235002Y-101340199D01*
X134215887Y-101342082D01*
X134197503Y-101347657D01*
X134180561Y-101356713D01*
X134165712Y-101368899D01*
X134153526Y-101383747D01*
X134146693Y-101396532D01*
X134144994Y-101397588D01*
X134143231Y-101396645D01*
X134143081Y-101394824D01*
X134163699Y-101345046D01*
X134180833Y-101258909D01*
X134180833Y-101171091D01*
X134178870Y-101161222D01*
X134179513Y-101159328D01*
X134181222Y-101158870D01*
X134191091Y-101160833D01*
X134278909Y-101160833D01*
X134288778Y-101158870D01*
X134290672Y-101159513D01*
G37*
G36*
X133290672Y-101159513D02*
G01*
X133291130Y-101161222D01*
X133289167Y-101171091D01*
X133289167Y-101258909D01*
X133291130Y-101268778D01*
X133290487Y-101270672D01*
X133288778Y-101271130D01*
X133278909Y-101269167D01*
X133191091Y-101269167D01*
X133181222Y-101271130D01*
X133179328Y-101270487D01*
X133178870Y-101268778D01*
X133180833Y-101258909D01*
X133180833Y-101171091D01*
X133178870Y-101161222D01*
X133179513Y-101159328D01*
X133181222Y-101158870D01*
X133191091Y-101160833D01*
X133278909Y-101160833D01*
X133288778Y-101158870D01*
X133290672Y-101159513D01*
G37*
G36*
X132604954Y-100643699D02*
G01*
X132691091Y-100660833D01*
X132778909Y-100660833D01*
X132788778Y-100658870D01*
X132790672Y-100659513D01*
X132791130Y-100661222D01*
X132789167Y-100671091D01*
X132789167Y-100758909D01*
X132791130Y-100768778D01*
X132790487Y-100770672D01*
X132788778Y-100771130D01*
X132778909Y-100769167D01*
X132691091Y-100769167D01*
X132604954Y-100786301D01*
X132555178Y-100806918D01*
X132553195Y-100806657D01*
X132552430Y-100804809D01*
X132553470Y-100803306D01*
X132566251Y-100796475D01*
X132581099Y-100784290D01*
X132593286Y-100769441D01*
X132602341Y-100752500D01*
X132607918Y-100734115D01*
X132609801Y-100715001D01*
X132607919Y-100695887D01*
X132602341Y-100677502D01*
X132593287Y-100660560D01*
X132581101Y-100645712D01*
X132566252Y-100633525D01*
X132553469Y-100626693D01*
X132552413Y-100624994D01*
X132553356Y-100623231D01*
X132555177Y-100623081D01*
X132604954Y-100643699D01*
G37*
G36*
X134790672Y-100659513D02*
G01*
X134791130Y-100661222D01*
X134789167Y-100671091D01*
X134789167Y-100758909D01*
X134791130Y-100768778D01*
X134790487Y-100770672D01*
X134788778Y-100771130D01*
X134778909Y-100769167D01*
X134691091Y-100769167D01*
X134681222Y-100771130D01*
X134679328Y-100770487D01*
X134678870Y-100768778D01*
X134680833Y-100758909D01*
X134680833Y-100671091D01*
X134678870Y-100661222D01*
X134679513Y-100659328D01*
X134681222Y-100658870D01*
X134691091Y-100660833D01*
X134778909Y-100660833D01*
X134788778Y-100658870D01*
X134790672Y-100659513D01*
G37*
G36*
X133790672Y-100659513D02*
G01*
X133791130Y-100661222D01*
X133789167Y-100671091D01*
X133789167Y-100758909D01*
X133791130Y-100768778D01*
X133790487Y-100770672D01*
X133788778Y-100771130D01*
X133778909Y-100769167D01*
X133691091Y-100769167D01*
X133681222Y-100771130D01*
X133679328Y-100770487D01*
X133678870Y-100768778D01*
X133680833Y-100758909D01*
X133680833Y-100671091D01*
X133678870Y-100661222D01*
X133679513Y-100659328D01*
X133681222Y-100658870D01*
X133691091Y-100660833D01*
X133778909Y-100660833D01*
X133788778Y-100658870D01*
X133790672Y-100659513D01*
G37*
G36*
X109051769Y-99925051D02*
G01*
X109051919Y-99926872D01*
X109012760Y-100021411D01*
X108989889Y-100136389D01*
X108989889Y-100253611D01*
X109012760Y-100368589D01*
X109051918Y-100463127D01*
X109051657Y-100465110D01*
X109049809Y-100465875D01*
X109048306Y-100464835D01*
X109041475Y-100452053D01*
X109029289Y-100437205D01*
X109014440Y-100425019D01*
X108997499Y-100415964D01*
X108979113Y-100410386D01*
X108960000Y-100408504D01*
X108940886Y-100410387D01*
X108922501Y-100415964D01*
X108905559Y-100425019D01*
X108890711Y-100437205D01*
X108878525Y-100452054D01*
X108871693Y-100464836D01*
X108869994Y-100465892D01*
X108868231Y-100464949D01*
X108868081Y-100463128D01*
X108907240Y-100368589D01*
X108930111Y-100253611D01*
X108930111Y-100136389D01*
X108907240Y-100021411D01*
X108868082Y-99926873D01*
X108868343Y-99924890D01*
X108870191Y-99924125D01*
X108871694Y-99925165D01*
X108878525Y-99937947D01*
X108890711Y-99952795D01*
X108905560Y-99964981D01*
X108922501Y-99974036D01*
X108940887Y-99979614D01*
X108960000Y-99981496D01*
X108979114Y-99979613D01*
X108997499Y-99974036D01*
X109014441Y-99964981D01*
X109029289Y-99952795D01*
X109041475Y-99937946D01*
X109048307Y-99925164D01*
X109050006Y-99924108D01*
X109051769Y-99925051D01*
G37*
G36*
X107801769Y-99925051D02*
G01*
X107801919Y-99926872D01*
X107762760Y-100021411D01*
X107739889Y-100136389D01*
X107739889Y-100253611D01*
X107762760Y-100368589D01*
X107801918Y-100463127D01*
X107801657Y-100465110D01*
X107799809Y-100465875D01*
X107798306Y-100464835D01*
X107791475Y-100452053D01*
X107779289Y-100437205D01*
X107764440Y-100425019D01*
X107747499Y-100415964D01*
X107729113Y-100410386D01*
X107710000Y-100408504D01*
X107690886Y-100410387D01*
X107672501Y-100415964D01*
X107655559Y-100425019D01*
X107640711Y-100437205D01*
X107628525Y-100452054D01*
X107621693Y-100464836D01*
X107619994Y-100465892D01*
X107618231Y-100464949D01*
X107618081Y-100463128D01*
X107657240Y-100368589D01*
X107680111Y-100253611D01*
X107680111Y-100136389D01*
X107657240Y-100021411D01*
X107618082Y-99926873D01*
X107618343Y-99924890D01*
X107620191Y-99924125D01*
X107621694Y-99925165D01*
X107628525Y-99937947D01*
X107640711Y-99952795D01*
X107655560Y-99964981D01*
X107672501Y-99974036D01*
X107690887Y-99979614D01*
X107710000Y-99981496D01*
X107729114Y-99979613D01*
X107747499Y-99974036D01*
X107764441Y-99964981D01*
X107779289Y-99952795D01*
X107791475Y-99937946D01*
X107798307Y-99925164D01*
X107800006Y-99924108D01*
X107801769Y-99925051D01*
G37*
G36*
X133290672Y-100159513D02*
G01*
X133291130Y-100161222D01*
X133289167Y-100171091D01*
X133289167Y-100258909D01*
X133291130Y-100268778D01*
X133290487Y-100270672D01*
X133288778Y-100271130D01*
X133278909Y-100269167D01*
X133191091Y-100269167D01*
X133181222Y-100271130D01*
X133179328Y-100270487D01*
X133178870Y-100268778D01*
X133180833Y-100258909D01*
X133180833Y-100171091D01*
X133178870Y-100161222D01*
X133179513Y-100159328D01*
X133181222Y-100158870D01*
X133191091Y-100160833D01*
X133278909Y-100160833D01*
X133288778Y-100158870D01*
X133290672Y-100159513D01*
G37*
G36*
X134290672Y-100159513D02*
G01*
X134291130Y-100161222D01*
X134289167Y-100171091D01*
X134289167Y-100258909D01*
X134291130Y-100268778D01*
X134290487Y-100270672D01*
X134288778Y-100271130D01*
X134278909Y-100269167D01*
X134191091Y-100269167D01*
X134181222Y-100271130D01*
X134179328Y-100270487D01*
X134178870Y-100268778D01*
X134180833Y-100258909D01*
X134180833Y-100171091D01*
X134178870Y-100161222D01*
X134179513Y-100159328D01*
X134181222Y-100158870D01*
X134191091Y-100160833D01*
X134278909Y-100160833D01*
X134288778Y-100158870D01*
X134290672Y-100159513D01*
G37*
G36*
X134916800Y-99623345D02*
G01*
X134917565Y-99625193D01*
X134916525Y-99626696D01*
X134903750Y-99633524D01*
X134888901Y-99645710D01*
X134876715Y-99660558D01*
X134867660Y-99677500D01*
X134862082Y-99695885D01*
X134860199Y-99714998D01*
X134862082Y-99734113D01*
X134867657Y-99752497D01*
X134876713Y-99769439D01*
X134888899Y-99784288D01*
X134903747Y-99796474D01*
X134916532Y-99803307D01*
X134917588Y-99805006D01*
X134916645Y-99806769D01*
X134914824Y-99806919D01*
X134865046Y-99786301D01*
X134778909Y-99769167D01*
X134691091Y-99769167D01*
X134681222Y-99771130D01*
X134679328Y-99770487D01*
X134678870Y-99768778D01*
X134680833Y-99758909D01*
X134680833Y-99671091D01*
X134678870Y-99661222D01*
X134679513Y-99659328D01*
X134681222Y-99658870D01*
X134691091Y-99660833D01*
X134778909Y-99660833D01*
X134865046Y-99643699D01*
X134914817Y-99623084D01*
X134916800Y-99623345D01*
G37*
G36*
X132604954Y-99643699D02*
G01*
X132691091Y-99660833D01*
X132778909Y-99660833D01*
X132788778Y-99658870D01*
X132790672Y-99659513D01*
X132791130Y-99661222D01*
X132789167Y-99671091D01*
X132789167Y-99758909D01*
X132791130Y-99768778D01*
X132790487Y-99770672D01*
X132788778Y-99771130D01*
X132778909Y-99769167D01*
X132691091Y-99769167D01*
X132604954Y-99786301D01*
X132555178Y-99806918D01*
X132553195Y-99806657D01*
X132552430Y-99804809D01*
X132553470Y-99803306D01*
X132566251Y-99796475D01*
X132581099Y-99784290D01*
X132593286Y-99769441D01*
X132602341Y-99752500D01*
X132607918Y-99734115D01*
X132609801Y-99715001D01*
X132607919Y-99695887D01*
X132602341Y-99677502D01*
X132593287Y-99660560D01*
X132581101Y-99645712D01*
X132566252Y-99633525D01*
X132553469Y-99626693D01*
X132552413Y-99624994D01*
X132553356Y-99623231D01*
X132555177Y-99623081D01*
X132604954Y-99643699D01*
G37*
G36*
X133790672Y-99659513D02*
G01*
X133791130Y-99661222D01*
X133789167Y-99671091D01*
X133789167Y-99758909D01*
X133791130Y-99768778D01*
X133790487Y-99770672D01*
X133788778Y-99771130D01*
X133778909Y-99769167D01*
X133691091Y-99769167D01*
X133681222Y-99771130D01*
X133679328Y-99770487D01*
X133678870Y-99768778D01*
X133680833Y-99758909D01*
X133680833Y-99671091D01*
X133678870Y-99661222D01*
X133679513Y-99659328D01*
X133681222Y-99658870D01*
X133691091Y-99660833D01*
X133778909Y-99660833D01*
X133788778Y-99658870D01*
X133790672Y-99659513D01*
G37*
G36*
X106911411Y-99517240D02*
G01*
X107026389Y-99540111D01*
X107143611Y-99540111D01*
X107258589Y-99517240D01*
X107353127Y-99478082D01*
X107355110Y-99478343D01*
X107355875Y-99480191D01*
X107354835Y-99481694D01*
X107342053Y-99488525D01*
X107327205Y-99500711D01*
X107315019Y-99515560D01*
X107305964Y-99532501D01*
X107300386Y-99550887D01*
X107298504Y-99570000D01*
X107300387Y-99589114D01*
X107305964Y-99607499D01*
X107315019Y-99624441D01*
X107327205Y-99639289D01*
X107342054Y-99651475D01*
X107354836Y-99658307D01*
X107355892Y-99660006D01*
X107354949Y-99661769D01*
X107353128Y-99661919D01*
X107258589Y-99622760D01*
X107143611Y-99599889D01*
X107026389Y-99599889D01*
X106911411Y-99622760D01*
X106816873Y-99661918D01*
X106814890Y-99661657D01*
X106814125Y-99659809D01*
X106815165Y-99658306D01*
X106827947Y-99651475D01*
X106842795Y-99639289D01*
X106854981Y-99624440D01*
X106864036Y-99607499D01*
X106869614Y-99589113D01*
X106871496Y-99570000D01*
X106869613Y-99550886D01*
X106864036Y-99532501D01*
X106854981Y-99515559D01*
X106842795Y-99500711D01*
X106827946Y-99488525D01*
X106815164Y-99481693D01*
X106814108Y-99479994D01*
X106815051Y-99478231D01*
X106816872Y-99478081D01*
X106911411Y-99517240D01*
G37*
G36*
X109411411Y-99517240D02*
G01*
X109526389Y-99540111D01*
X109643611Y-99540111D01*
X109758589Y-99517240D01*
X109853127Y-99478082D01*
X109855110Y-99478343D01*
X109855875Y-99480191D01*
X109854835Y-99481694D01*
X109842053Y-99488525D01*
X109827205Y-99500711D01*
X109815019Y-99515560D01*
X109805964Y-99532501D01*
X109800386Y-99550887D01*
X109798504Y-99570000D01*
X109800387Y-99589114D01*
X109805964Y-99607499D01*
X109815019Y-99624441D01*
X109827205Y-99639289D01*
X109842054Y-99651475D01*
X109854836Y-99658307D01*
X109855892Y-99660006D01*
X109854949Y-99661769D01*
X109853128Y-99661919D01*
X109758589Y-99622760D01*
X109643611Y-99599889D01*
X109526389Y-99599889D01*
X109411411Y-99622760D01*
X109316873Y-99661918D01*
X109314890Y-99661657D01*
X109314125Y-99659809D01*
X109315165Y-99658306D01*
X109327947Y-99651475D01*
X109342795Y-99639289D01*
X109354981Y-99624440D01*
X109364036Y-99607499D01*
X109369614Y-99589113D01*
X109371496Y-99570000D01*
X109369613Y-99550886D01*
X109364036Y-99532501D01*
X109354981Y-99515559D01*
X109342795Y-99500711D01*
X109327946Y-99488525D01*
X109315164Y-99481693D01*
X109314108Y-99479994D01*
X109315051Y-99478231D01*
X109316872Y-99478081D01*
X109411411Y-99517240D01*
G37*
G36*
X108161411Y-99517240D02*
G01*
X108276389Y-99540111D01*
X108393611Y-99540111D01*
X108508589Y-99517240D01*
X108603127Y-99478082D01*
X108605110Y-99478343D01*
X108605875Y-99480191D01*
X108604835Y-99481694D01*
X108592053Y-99488525D01*
X108577205Y-99500711D01*
X108565019Y-99515560D01*
X108555964Y-99532501D01*
X108550386Y-99550887D01*
X108548504Y-99570000D01*
X108550387Y-99589114D01*
X108555964Y-99607499D01*
X108565019Y-99624441D01*
X108577205Y-99639289D01*
X108592054Y-99651475D01*
X108604836Y-99658307D01*
X108605892Y-99660006D01*
X108604949Y-99661769D01*
X108603128Y-99661919D01*
X108508589Y-99622760D01*
X108393611Y-99599889D01*
X108276389Y-99599889D01*
X108161411Y-99622760D01*
X108066873Y-99661918D01*
X108064890Y-99661657D01*
X108064125Y-99659809D01*
X108065165Y-99658306D01*
X108077947Y-99651475D01*
X108092795Y-99639289D01*
X108104981Y-99624440D01*
X108114036Y-99607499D01*
X108119614Y-99589113D01*
X108121496Y-99570000D01*
X108119613Y-99550886D01*
X108114036Y-99532501D01*
X108104981Y-99515559D01*
X108092795Y-99500711D01*
X108077946Y-99488525D01*
X108065164Y-99481693D01*
X108064108Y-99479994D01*
X108065051Y-99478231D01*
X108066872Y-99478081D01*
X108161411Y-99517240D01*
G37*
G36*
X133326769Y-99033355D02*
G01*
X133326919Y-99035176D01*
X133306301Y-99084954D01*
X133289167Y-99171091D01*
X133289167Y-99258909D01*
X133291130Y-99268778D01*
X133290487Y-99270672D01*
X133288778Y-99271130D01*
X133278909Y-99269167D01*
X133191091Y-99269167D01*
X133181222Y-99271130D01*
X133179328Y-99270487D01*
X133178870Y-99268778D01*
X133180833Y-99258909D01*
X133180833Y-99171091D01*
X133163699Y-99084954D01*
X133143084Y-99035183D01*
X133143345Y-99033200D01*
X133145193Y-99032435D01*
X133146696Y-99033475D01*
X133153524Y-99046250D01*
X133165710Y-99061099D01*
X133180558Y-99073285D01*
X133197500Y-99082340D01*
X133215885Y-99087918D01*
X133234998Y-99089801D01*
X133254113Y-99087918D01*
X133272497Y-99082343D01*
X133289439Y-99073287D01*
X133304288Y-99061101D01*
X133316474Y-99046253D01*
X133323307Y-99033468D01*
X133325006Y-99032412D01*
X133326769Y-99033355D01*
G37*
G36*
X134326769Y-99033356D02*
G01*
X134326919Y-99035177D01*
X134306301Y-99084954D01*
X134289167Y-99171091D01*
X134289167Y-99258909D01*
X134291130Y-99268778D01*
X134290487Y-99270672D01*
X134288778Y-99271130D01*
X134278909Y-99269167D01*
X134191091Y-99269167D01*
X134181222Y-99271130D01*
X134179328Y-99270487D01*
X134178870Y-99268778D01*
X134180833Y-99258909D01*
X134180833Y-99171091D01*
X134163699Y-99084954D01*
X134143082Y-99035178D01*
X134143343Y-99033195D01*
X134145191Y-99032430D01*
X134146694Y-99033470D01*
X134153525Y-99046251D01*
X134165710Y-99061099D01*
X134180559Y-99073286D01*
X134197500Y-99082341D01*
X134215885Y-99087918D01*
X134234999Y-99089801D01*
X134254113Y-99087919D01*
X134272498Y-99082341D01*
X134289440Y-99073287D01*
X134304288Y-99061101D01*
X134316475Y-99046252D01*
X134323307Y-99033469D01*
X134325006Y-99032413D01*
X134326769Y-99033356D01*
G37*
G36*
X107801769Y-98675051D02*
G01*
X107801919Y-98676872D01*
X107762760Y-98771411D01*
X107739889Y-98886389D01*
X107739889Y-99003611D01*
X107762760Y-99118589D01*
X107801918Y-99213127D01*
X107801657Y-99215110D01*
X107799809Y-99215875D01*
X107798306Y-99214835D01*
X107791475Y-99202053D01*
X107779289Y-99187205D01*
X107764440Y-99175019D01*
X107747499Y-99165964D01*
X107729113Y-99160386D01*
X107710000Y-99158504D01*
X107690886Y-99160387D01*
X107672501Y-99165964D01*
X107655559Y-99175019D01*
X107640711Y-99187205D01*
X107628525Y-99202054D01*
X107621693Y-99214836D01*
X107619994Y-99215892D01*
X107618231Y-99214949D01*
X107618081Y-99213128D01*
X107657240Y-99118589D01*
X107680111Y-99003611D01*
X107680111Y-98886389D01*
X107657240Y-98771411D01*
X107618082Y-98676873D01*
X107618343Y-98674890D01*
X107620191Y-98674125D01*
X107621694Y-98675165D01*
X107628525Y-98687947D01*
X107640711Y-98702795D01*
X107655560Y-98714981D01*
X107672501Y-98724036D01*
X107690887Y-98729614D01*
X107710000Y-98731496D01*
X107729114Y-98729613D01*
X107747499Y-98724036D01*
X107764441Y-98714981D01*
X107779289Y-98702795D01*
X107791475Y-98687946D01*
X107798307Y-98675164D01*
X107800006Y-98674108D01*
X107801769Y-98675051D01*
G37*
G36*
X109051769Y-98675051D02*
G01*
X109051919Y-98676872D01*
X109012760Y-98771411D01*
X108989889Y-98886389D01*
X108989889Y-99003611D01*
X109012760Y-99118589D01*
X109051918Y-99213127D01*
X109051657Y-99215110D01*
X109049809Y-99215875D01*
X109048306Y-99214835D01*
X109041475Y-99202053D01*
X109029289Y-99187205D01*
X109014440Y-99175019D01*
X108997499Y-99165964D01*
X108979113Y-99160386D01*
X108960000Y-99158504D01*
X108940886Y-99160387D01*
X108922501Y-99165964D01*
X108905559Y-99175019D01*
X108890711Y-99187205D01*
X108878525Y-99202054D01*
X108871693Y-99214836D01*
X108869994Y-99215892D01*
X108868231Y-99214949D01*
X108868081Y-99213128D01*
X108907240Y-99118589D01*
X108930111Y-99003611D01*
X108930111Y-98886389D01*
X108907240Y-98771411D01*
X108868082Y-98676873D01*
X108868343Y-98674890D01*
X108870191Y-98674125D01*
X108871694Y-98675165D01*
X108878525Y-98687947D01*
X108890711Y-98702795D01*
X108905560Y-98714981D01*
X108922501Y-98724036D01*
X108940887Y-98729614D01*
X108960000Y-98731496D01*
X108979114Y-98729613D01*
X108997499Y-98724036D01*
X109014441Y-98714981D01*
X109029289Y-98702795D01*
X109041475Y-98687946D01*
X109048307Y-98675164D01*
X109050006Y-98674108D01*
X109051769Y-98675051D01*
G37*
G36*
X106911411Y-98267240D02*
G01*
X107026389Y-98290111D01*
X107143611Y-98290111D01*
X107258589Y-98267240D01*
X107353127Y-98228082D01*
X107355110Y-98228343D01*
X107355875Y-98230191D01*
X107354835Y-98231694D01*
X107342053Y-98238525D01*
X107327205Y-98250711D01*
X107315019Y-98265560D01*
X107305964Y-98282501D01*
X107300386Y-98300887D01*
X107298504Y-98320000D01*
X107300387Y-98339114D01*
X107305964Y-98357499D01*
X107315019Y-98374441D01*
X107327205Y-98389289D01*
X107342054Y-98401475D01*
X107354836Y-98408307D01*
X107355892Y-98410006D01*
X107354949Y-98411769D01*
X107353128Y-98411919D01*
X107258589Y-98372760D01*
X107143611Y-98349889D01*
X107026389Y-98349889D01*
X106911411Y-98372760D01*
X106816873Y-98411918D01*
X106814890Y-98411657D01*
X106814125Y-98409809D01*
X106815165Y-98408306D01*
X106827947Y-98401475D01*
X106842795Y-98389289D01*
X106854981Y-98374440D01*
X106864036Y-98357499D01*
X106869614Y-98339113D01*
X106871496Y-98320000D01*
X106869613Y-98300886D01*
X106864036Y-98282501D01*
X106854981Y-98265559D01*
X106842795Y-98250711D01*
X106827946Y-98238525D01*
X106815164Y-98231693D01*
X106814108Y-98229994D01*
X106815051Y-98228231D01*
X106816872Y-98228081D01*
X106911411Y-98267240D01*
G37*
G36*
X108161411Y-98267240D02*
G01*
X108276389Y-98290111D01*
X108393611Y-98290111D01*
X108508589Y-98267240D01*
X108603127Y-98228082D01*
X108605110Y-98228343D01*
X108605875Y-98230191D01*
X108604835Y-98231694D01*
X108592053Y-98238525D01*
X108577205Y-98250711D01*
X108565019Y-98265560D01*
X108555964Y-98282501D01*
X108550386Y-98300887D01*
X108548504Y-98320000D01*
X108550387Y-98339114D01*
X108555964Y-98357499D01*
X108565019Y-98374441D01*
X108577205Y-98389289D01*
X108592054Y-98401475D01*
X108604836Y-98408307D01*
X108605892Y-98410006D01*
X108604949Y-98411769D01*
X108603128Y-98411919D01*
X108508589Y-98372760D01*
X108393611Y-98349889D01*
X108276389Y-98349889D01*
X108161411Y-98372760D01*
X108066873Y-98411918D01*
X108064890Y-98411657D01*
X108064125Y-98409809D01*
X108065165Y-98408306D01*
X108077947Y-98401475D01*
X108092795Y-98389289D01*
X108104981Y-98374440D01*
X108114036Y-98357499D01*
X108119614Y-98339113D01*
X108121496Y-98320000D01*
X108119613Y-98300886D01*
X108114036Y-98282501D01*
X108104981Y-98265559D01*
X108092795Y-98250711D01*
X108077946Y-98238525D01*
X108065164Y-98231693D01*
X108064108Y-98229994D01*
X108065051Y-98228231D01*
X108066872Y-98228081D01*
X108161411Y-98267240D01*
G37*
G36*
X109411411Y-98267240D02*
G01*
X109526389Y-98290111D01*
X109643611Y-98290111D01*
X109758589Y-98267240D01*
X109853127Y-98228082D01*
X109855110Y-98228343D01*
X109855875Y-98230191D01*
X109854835Y-98231694D01*
X109842053Y-98238525D01*
X109827205Y-98250711D01*
X109815019Y-98265560D01*
X109805964Y-98282501D01*
X109800386Y-98300887D01*
X109798504Y-98320000D01*
X109800387Y-98339114D01*
X109805964Y-98357499D01*
X109815019Y-98374441D01*
X109827205Y-98389289D01*
X109842054Y-98401475D01*
X109854836Y-98408307D01*
X109855892Y-98410006D01*
X109854949Y-98411769D01*
X109853128Y-98411919D01*
X109758589Y-98372760D01*
X109643611Y-98349889D01*
X109526389Y-98349889D01*
X109411411Y-98372760D01*
X109316873Y-98411918D01*
X109314890Y-98411657D01*
X109314125Y-98409809D01*
X109315165Y-98408306D01*
X109327947Y-98401475D01*
X109342795Y-98389289D01*
X109354981Y-98374440D01*
X109364036Y-98357499D01*
X109369614Y-98339113D01*
X109371496Y-98320000D01*
X109369613Y-98300886D01*
X109364036Y-98282501D01*
X109354981Y-98265559D01*
X109342795Y-98250711D01*
X109327946Y-98238525D01*
X109315164Y-98231693D01*
X109314108Y-98229994D01*
X109315051Y-98228231D01*
X109316872Y-98228081D01*
X109411411Y-98267240D01*
G37*
G36*
X109051769Y-97425051D02*
G01*
X109051919Y-97426872D01*
X109012760Y-97521411D01*
X108989889Y-97636389D01*
X108989889Y-97753611D01*
X109012760Y-97868589D01*
X109051918Y-97963127D01*
X109051657Y-97965110D01*
X109049809Y-97965875D01*
X109048306Y-97964835D01*
X109041475Y-97952053D01*
X109029289Y-97937205D01*
X109014440Y-97925019D01*
X108997499Y-97915964D01*
X108979113Y-97910386D01*
X108960000Y-97908504D01*
X108940886Y-97910387D01*
X108922501Y-97915964D01*
X108905559Y-97925019D01*
X108890711Y-97937205D01*
X108878525Y-97952054D01*
X108871693Y-97964836D01*
X108869994Y-97965892D01*
X108868231Y-97964949D01*
X108868081Y-97963128D01*
X108907240Y-97868589D01*
X108930111Y-97753611D01*
X108930111Y-97636389D01*
X108907240Y-97521411D01*
X108868082Y-97426873D01*
X108868343Y-97424890D01*
X108870191Y-97424125D01*
X108871694Y-97425165D01*
X108878525Y-97437947D01*
X108890711Y-97452795D01*
X108905560Y-97464981D01*
X108922501Y-97474036D01*
X108940887Y-97479614D01*
X108960000Y-97481496D01*
X108979114Y-97479613D01*
X108997499Y-97474036D01*
X109014441Y-97464981D01*
X109029289Y-97452795D01*
X109041475Y-97437946D01*
X109048307Y-97425164D01*
X109050006Y-97424108D01*
X109051769Y-97425051D01*
G37*
G36*
X107801769Y-97425051D02*
G01*
X107801919Y-97426872D01*
X107762760Y-97521411D01*
X107739889Y-97636389D01*
X107739889Y-97753611D01*
X107762760Y-97868589D01*
X107801918Y-97963127D01*
X107801657Y-97965110D01*
X107799809Y-97965875D01*
X107798306Y-97964835D01*
X107791475Y-97952053D01*
X107779289Y-97937205D01*
X107764440Y-97925019D01*
X107747499Y-97915964D01*
X107729113Y-97910386D01*
X107710000Y-97908504D01*
X107690886Y-97910387D01*
X107672501Y-97915964D01*
X107655559Y-97925019D01*
X107640711Y-97937205D01*
X107628525Y-97952054D01*
X107621693Y-97964836D01*
X107619994Y-97965892D01*
X107618231Y-97964949D01*
X107618081Y-97963128D01*
X107657240Y-97868589D01*
X107680111Y-97753611D01*
X107680111Y-97636389D01*
X107657240Y-97521411D01*
X107618082Y-97426873D01*
X107618343Y-97424890D01*
X107620191Y-97424125D01*
X107621694Y-97425165D01*
X107628525Y-97437947D01*
X107640711Y-97452795D01*
X107655560Y-97464981D01*
X107672501Y-97474036D01*
X107690887Y-97479614D01*
X107710000Y-97481496D01*
X107729114Y-97479613D01*
X107747499Y-97474036D01*
X107764441Y-97464981D01*
X107779289Y-97452795D01*
X107791475Y-97437946D01*
X107798307Y-97425164D01*
X107800006Y-97424108D01*
X107801769Y-97425051D01*
G37*
M02*
