%TF.GenerationSoftware,KiCad,Pcbnew,(5.1.8)-1*%
%TF.CreationDate,2021-01-16T00:41:06+01:00*%
%TF.ProjectId,Microwave_LO_Generator,4d696372-6f77-4617-9665-5f4c4f5f4765,rev?*%
%TF.SameCoordinates,Original*%
%TF.FileFunction,Copper,L3,Inr*%
%TF.FilePolarity,Positive*%
%FSLAX46Y46*%
G04 Gerber Fmt 4.6, Leading zero omitted, Abs format (unit mm)*
G04 Created by KiCad (PCBNEW (5.1.8)-1) date 2021-01-16 00:41:06*
%MOMM*%
%LPD*%
G01*
G04 APERTURE LIST*
%TA.AperFunction,ComponentPad*%
%ADD10C,0.600000*%
%TD*%
%TA.AperFunction,ComponentPad*%
%ADD11C,2.200000*%
%TD*%
%TA.AperFunction,ComponentPad*%
%ADD12O,1.700000X1.700000*%
%TD*%
%TA.AperFunction,ComponentPad*%
%ADD13R,1.700000X1.700000*%
%TD*%
%TA.AperFunction,ComponentPad*%
%ADD14C,3.000000*%
%TD*%
%TA.AperFunction,ComponentPad*%
%ADD15C,0.800000*%
%TD*%
%TA.AperFunction,ComponentPad*%
%ADD16C,0.500000*%
%TD*%
%TA.AperFunction,ViaPad*%
%ADD17C,3.000000*%
%TD*%
%TA.AperFunction,ViaPad*%
%ADD18C,0.800000*%
%TD*%
%TA.AperFunction,ViaPad*%
%ADD19C,0.500000*%
%TD*%
%TA.AperFunction,ViaPad*%
%ADD20C,0.600000*%
%TD*%
%TA.AperFunction,Conductor*%
%ADD21C,1.000000*%
%TD*%
%TA.AperFunction,Conductor*%
%ADD22C,0.300000*%
%TD*%
%TA.AperFunction,Conductor*%
%ADD23C,0.900000*%
%TD*%
%TA.AperFunction,Conductor*%
%ADD24C,0.440000*%
%TD*%
%TA.AperFunction,Conductor*%
%ADD25C,0.254000*%
%TD*%
%TA.AperFunction,Conductor*%
%ADD26C,0.100000*%
%TD*%
G04 APERTURE END LIST*
D10*
%TO.N,0*%
%TO.C,J5*%
X136840000Y-98745002D03*
X136840000Y-99215002D03*
X137310000Y-98745002D03*
X137310000Y-99215002D03*
X137780000Y-98745002D03*
X137780000Y-99215002D03*
X138250000Y-98745002D03*
X138250000Y-99215002D03*
X138720000Y-98745002D03*
X138720000Y-99215002D03*
X139190000Y-98745002D03*
X139190000Y-99215002D03*
X139660000Y-98275002D03*
X139660000Y-98745002D03*
X139660000Y-99215002D03*
X140130000Y-97805002D03*
X140130000Y-98275002D03*
X140130000Y-98745002D03*
X140130000Y-99215002D03*
X140600000Y-97335002D03*
X140600000Y-97805002D03*
X140600000Y-98275002D03*
X140600000Y-98745002D03*
X140600000Y-99215002D03*
X141070000Y-96865002D03*
X141070000Y-97335002D03*
X141070000Y-97805002D03*
X141070000Y-98275002D03*
X141070000Y-98745002D03*
X141070000Y-99215002D03*
X141540000Y-99215002D03*
X141540000Y-98745002D03*
X141540000Y-98275002D03*
X141540000Y-97805002D03*
X141540000Y-97335002D03*
X141540000Y-96865002D03*
X136840000Y-100710002D03*
X136840000Y-101180002D03*
X137310000Y-100710002D03*
X137310000Y-101180002D03*
X137780000Y-100710002D03*
X137780000Y-101180002D03*
X138250000Y-100710002D03*
X138250000Y-101180002D03*
X138720000Y-100710002D03*
X138720000Y-101180002D03*
X139190000Y-100710002D03*
X139190000Y-101180002D03*
X139660000Y-100710002D03*
X139660000Y-101180002D03*
X139660000Y-101650002D03*
X140130000Y-100710002D03*
X140130000Y-101180002D03*
X140130000Y-101650002D03*
X140130000Y-102120002D03*
X140600000Y-100710002D03*
X140600000Y-101180002D03*
X140600000Y-101650002D03*
X140600000Y-102120002D03*
X140600000Y-102590002D03*
X141070000Y-100710002D03*
X141070000Y-101180002D03*
X141070000Y-101650002D03*
X141070000Y-102120002D03*
X141070000Y-102590002D03*
X141070000Y-103060002D03*
X141540000Y-100710002D03*
X141540000Y-101180002D03*
X141540000Y-101650002D03*
X141540000Y-102120002D03*
X141540000Y-102590002D03*
X141540000Y-103060002D03*
X141540000Y-103530002D03*
X141540000Y-96395002D03*
D11*
X139360000Y-95205002D03*
X139360000Y-104720002D03*
%TD*%
D10*
%TO.N,0*%
%TO.C,J4*%
X135199999Y-116745001D03*
X134729999Y-116745001D03*
X135199999Y-117215001D03*
X134729999Y-117215001D03*
X135199999Y-117685001D03*
X134729999Y-117685001D03*
X135199999Y-118155001D03*
X134729999Y-118155001D03*
X135199999Y-118625001D03*
X134729999Y-118625001D03*
X135199999Y-119095001D03*
X134729999Y-119095001D03*
X135669999Y-119565001D03*
X135199999Y-119565001D03*
X134729999Y-119565001D03*
X136139999Y-120035001D03*
X135669999Y-120035001D03*
X135199999Y-120035001D03*
X134729999Y-120035001D03*
X136609999Y-120505001D03*
X136139999Y-120505001D03*
X135669999Y-120505001D03*
X135199999Y-120505001D03*
X134729999Y-120505001D03*
X137079999Y-120975001D03*
X136609999Y-120975001D03*
X136139999Y-120975001D03*
X135669999Y-120975001D03*
X135199999Y-120975001D03*
X134729999Y-120975001D03*
X134729999Y-121445001D03*
X135199999Y-121445001D03*
X135669999Y-121445001D03*
X136139999Y-121445001D03*
X136609999Y-121445001D03*
X137079999Y-121445001D03*
X133234999Y-116745001D03*
X132764999Y-116745001D03*
X133234999Y-117215001D03*
X132764999Y-117215001D03*
X133234999Y-117685001D03*
X132764999Y-117685001D03*
X133234999Y-118155001D03*
X132764999Y-118155001D03*
X133234999Y-118625001D03*
X132764999Y-118625001D03*
X133234999Y-119095001D03*
X132764999Y-119095001D03*
X133234999Y-119565001D03*
X132764999Y-119565001D03*
X132294999Y-119565001D03*
X133234999Y-120035001D03*
X132764999Y-120035001D03*
X132294999Y-120035001D03*
X131824999Y-120035001D03*
X133234999Y-120505001D03*
X132764999Y-120505001D03*
X132294999Y-120505001D03*
X131824999Y-120505001D03*
X131354999Y-120505001D03*
X133234999Y-120975001D03*
X132764999Y-120975001D03*
X132294999Y-120975001D03*
X131824999Y-120975001D03*
X131354999Y-120975001D03*
X130884999Y-120975001D03*
X133234999Y-121445001D03*
X132764999Y-121445001D03*
X132294999Y-121445001D03*
X131824999Y-121445001D03*
X131354999Y-121445001D03*
X130884999Y-121445001D03*
X130414999Y-121445001D03*
X137549999Y-121445001D03*
D11*
X138739999Y-119265001D03*
X129224999Y-119265001D03*
%TD*%
D12*
%TO.N,0*%
%TO.C,J3*%
X104978200Y-85005600D03*
D13*
%TO.N,+6V*%
X102438200Y-85005600D03*
%TD*%
D12*
%TO.N,0*%
%TO.C,J2*%
X104500000Y-116995000D03*
D13*
%TO.N,+12V*%
X101960000Y-116995000D03*
%TD*%
D12*
%TO.N,Net-(J1-Pad5)*%
%TO.C,J1*%
X107065000Y-105930000D03*
%TO.N,Net-(J1-Pad4)*%
X104525000Y-105930000D03*
%TO.N,Net-(J1-Pad3)*%
X101985000Y-105930000D03*
%TO.N,Net-(J1-Pad2)*%
X99445000Y-105930000D03*
D13*
%TO.N,0*%
X96905000Y-105930000D03*
%TD*%
D14*
%TO.N,Net-(R2-Pad1)*%
%TO.C,TP1*%
X100736400Y-93935200D03*
%TD*%
%TO.N,+9V*%
%TO.C,TP3*%
X110180120Y-116363400D03*
%TD*%
%TO.N,+5VA*%
%TO.C,TP4*%
X134710000Y-87665000D03*
%TD*%
%TO.N,+5VD*%
%TO.C,TP5*%
X121574560Y-107199080D03*
%TD*%
%TO.N,+3V3*%
%TO.C,TP6*%
X109235000Y-88215000D03*
%TD*%
D15*
%TO.N,0*%
%TO.C,U1*%
X108335000Y-98945000D03*
X108335000Y-100195000D03*
X109585000Y-98945000D03*
X108335000Y-97695000D03*
X107085000Y-98945000D03*
X107085000Y-100195000D03*
X107085000Y-97695000D03*
X109585000Y-97695000D03*
X109585000Y-100195000D03*
%TD*%
D16*
%TO.N,0*%
%TO.C,U6*%
X132735000Y-98715000D03*
X132735000Y-99215000D03*
X133735000Y-99215000D03*
X135235000Y-99215000D03*
X134735000Y-99215000D03*
X133235000Y-99715000D03*
X134235000Y-99715000D03*
X134735000Y-100215000D03*
X133735000Y-100215000D03*
X132735000Y-100215000D03*
X133235000Y-100715000D03*
X134235000Y-100715000D03*
X135235000Y-100715000D03*
X134735000Y-101215000D03*
X133735000Y-101215000D03*
X132735000Y-101215000D03*
X133235000Y-101715000D03*
X134735000Y-101715000D03*
%TD*%
D14*
%TO.N,0*%
%TO.C,TP2*%
X117510000Y-115630001D03*
%TD*%
D17*
%TO.N,*%
X93435000Y-117895000D03*
X137935000Y-83940000D03*
D18*
%TO.N,+3V3*%
X115535000Y-102215000D03*
X107065000Y-90055000D03*
X103890000Y-98945000D03*
X105795000Y-108455000D03*
%TO.N,CPout*%
X124210000Y-102335000D03*
X133280000Y-95335000D03*
D19*
%TO.N,0*%
X112645520Y-96906480D03*
X112295000Y-96495000D03*
D18*
X113780000Y-92335000D03*
D20*
X131370000Y-102635000D03*
X136590000Y-103105000D03*
X136590000Y-103575000D03*
X130100000Y-98760000D03*
X129630000Y-98760000D03*
X129160000Y-98760000D03*
D19*
X136085000Y-103250000D03*
X135285000Y-104000000D03*
D20*
X133250000Y-107335000D03*
X133250000Y-107805000D03*
X133250000Y-108745000D03*
X133250000Y-107805000D03*
X133250000Y-108275000D03*
X133250000Y-109215000D03*
X133250000Y-110155000D03*
X133250000Y-109685000D03*
X133250000Y-110625000D03*
X133250000Y-111095000D03*
X133250000Y-111565000D03*
X133250000Y-112035000D03*
X133250000Y-112505000D03*
X133250000Y-112975000D03*
X133250000Y-113445000D03*
X133250000Y-113915000D03*
X133250000Y-114385000D03*
X133250000Y-114855000D03*
X133250000Y-115325000D03*
X133250000Y-115795000D03*
X133250000Y-116265000D03*
X132780000Y-116265000D03*
X132780000Y-115795000D03*
X132780000Y-115325000D03*
X132780000Y-114385000D03*
X132780000Y-114855000D03*
X132780000Y-113915000D03*
X132780000Y-113445000D03*
X132780000Y-112975000D03*
X132780000Y-112505000D03*
X132780000Y-112035000D03*
X132780000Y-111565000D03*
X132780000Y-110625000D03*
X132780000Y-111095000D03*
X132780000Y-110155000D03*
X132780000Y-109685000D03*
X132780000Y-109215000D03*
X132780000Y-108745000D03*
X132780000Y-108275000D03*
X132780000Y-107805000D03*
X132780000Y-107335000D03*
X134710000Y-116265000D03*
X134710000Y-115795000D03*
X134710000Y-115325000D03*
X134710000Y-114855000D03*
X134710000Y-114385000D03*
X134710000Y-113915000D03*
X134710000Y-112975000D03*
X134710000Y-113445000D03*
X134710000Y-112505000D03*
X134710000Y-111565000D03*
X134710000Y-112035000D03*
X134710000Y-111095000D03*
X134710000Y-110625000D03*
X134710000Y-110155000D03*
X134710000Y-109685000D03*
X134710000Y-108745000D03*
X134710000Y-109215000D03*
X134710000Y-107805000D03*
X134710000Y-108275000D03*
X134710000Y-107335000D03*
X135180000Y-107335000D03*
X135180000Y-107805000D03*
X135180000Y-108275000D03*
X135180000Y-109215000D03*
X135180000Y-108745000D03*
X135180000Y-109685000D03*
X135180000Y-110155000D03*
X135180000Y-110625000D03*
X135180000Y-111095000D03*
X135180000Y-111565000D03*
X135180000Y-112035000D03*
X135180000Y-112505000D03*
X135180000Y-113445000D03*
X135180000Y-112975000D03*
X135180000Y-113915000D03*
X135180000Y-114385000D03*
X135180000Y-114855000D03*
X135180000Y-115325000D03*
X135180000Y-115795000D03*
X135180000Y-116265000D03*
D19*
X131885000Y-103250000D03*
X132635000Y-104000000D03*
D20*
X130570000Y-98760000D03*
X130570000Y-98290000D03*
X130100000Y-98290000D03*
X129630000Y-98290000D03*
X129160000Y-98290000D03*
X128690000Y-98290000D03*
X128690000Y-97820000D03*
X128220000Y-97820000D03*
X128220000Y-97350000D03*
X127750000Y-97350000D03*
X127280000Y-97350000D03*
X126810000Y-97350000D03*
X126340000Y-97350000D03*
X125870000Y-97350000D03*
X125870000Y-97350000D03*
X125400000Y-97350000D03*
X124930000Y-97350000D03*
X124930000Y-96880000D03*
X125400000Y-96880000D03*
X125870000Y-96880000D03*
X125870000Y-96880000D03*
X126340000Y-96880000D03*
X126810000Y-96880000D03*
X127280000Y-96880000D03*
X127750000Y-96880000D03*
X123520000Y-97350000D03*
X123520000Y-96880000D03*
X123050000Y-97350000D03*
X122580000Y-97350000D03*
X122110000Y-97350000D03*
X121640000Y-97350000D03*
X121640000Y-96880000D03*
X122110000Y-96880000D03*
X122580000Y-96880000D03*
X123050000Y-96880000D03*
X121170000Y-97350000D03*
X120700000Y-97350000D03*
X121170000Y-96880000D03*
X120700000Y-96880000D03*
X120230000Y-97350000D03*
X119760000Y-97350000D03*
X120230000Y-96880000D03*
X119760000Y-96880000D03*
X119290000Y-97350000D03*
X118820000Y-97350000D03*
X118350000Y-97350000D03*
X117880000Y-97350000D03*
X117410000Y-97350000D03*
X116940000Y-97350000D03*
X116470000Y-97350000D03*
X116000000Y-97350000D03*
X116000000Y-96880000D03*
X116470000Y-96880000D03*
X116940000Y-96880000D03*
X117410000Y-96880000D03*
X117880000Y-96880000D03*
X118350000Y-96880000D03*
X118820000Y-96880000D03*
X119290000Y-96880000D03*
X115530000Y-97350000D03*
X115060000Y-97350000D03*
X114590000Y-97350000D03*
X114120000Y-97350000D03*
X113650000Y-97350000D03*
X113180000Y-97350000D03*
X113180000Y-96880000D03*
X113650000Y-96880000D03*
X114120000Y-96880000D03*
X114590000Y-96880000D03*
X115060000Y-96880000D03*
X115530000Y-96880000D03*
X112265000Y-95935000D03*
X126810000Y-98960000D03*
X127280000Y-99430000D03*
X127750000Y-99900000D03*
X128220000Y-100370000D03*
X128690000Y-100370000D03*
X129160000Y-100370000D03*
X129630000Y-100370000D03*
X129630000Y-100840000D03*
X129160000Y-100840000D03*
X128690000Y-100840000D03*
X128220000Y-100840000D03*
X127750000Y-100370000D03*
X127280000Y-99900000D03*
X126810000Y-99430000D03*
X126340000Y-98960000D03*
X126340000Y-99430000D03*
X124930000Y-98960000D03*
X124930000Y-99430000D03*
X125400000Y-99430000D03*
X125400000Y-98960000D03*
X125870000Y-98960000D03*
X125870000Y-99430000D03*
X123520000Y-98960000D03*
X123050000Y-98960000D03*
X122580000Y-98960000D03*
X122110000Y-98960000D03*
X121640000Y-98960000D03*
X121170000Y-98960000D03*
X120700000Y-98960000D03*
X120230000Y-98960000D03*
X119760000Y-98960000D03*
X119290000Y-98960000D03*
X118820000Y-99010000D03*
X118352700Y-98963000D03*
X117882700Y-98963000D03*
X117412700Y-98963000D03*
X116942700Y-98963000D03*
X116470000Y-98960000D03*
X116000000Y-98960000D03*
X113180000Y-98960000D03*
X113650000Y-98960000D03*
X114120000Y-98960000D03*
X114590000Y-98960000D03*
X115060000Y-98960000D03*
X115530000Y-98960000D03*
X113180000Y-99430000D03*
X113650000Y-99430000D03*
X114120000Y-99430000D03*
X114590000Y-99430000D03*
X115060000Y-99430000D03*
X115530000Y-99430000D03*
X116000000Y-99430000D03*
X116470000Y-99430000D03*
X116942700Y-99433000D03*
X117412700Y-99433000D03*
X117882700Y-99433000D03*
X118352700Y-99433000D03*
X118820000Y-99480000D03*
X119290000Y-99430000D03*
X120230000Y-99430000D03*
X119760000Y-99430000D03*
X120700000Y-99430000D03*
X121170000Y-99430000D03*
X121640000Y-99430000D03*
X122110000Y-99430000D03*
X122580000Y-99430000D03*
X123050000Y-99430000D03*
X123520000Y-99430000D03*
D18*
X129780000Y-93835000D03*
X121159897Y-104357741D03*
X102235000Y-111215000D03*
X131102500Y-86347500D03*
X97235000Y-93215000D03*
X124735000Y-112715000D03*
D19*
X128485000Y-102965000D03*
X129485000Y-103965000D03*
X130485000Y-102965000D03*
X131772500Y-102177500D03*
X135665000Y-95105000D03*
X136645000Y-96025000D03*
X136685000Y-97045000D03*
D18*
X111565000Y-104635000D03*
X103275000Y-99985000D03*
X104565000Y-94375000D03*
X110690000Y-95975001D03*
X114560000Y-100230001D03*
D20*
X132780000Y-106865000D03*
X133250000Y-106865000D03*
X133250000Y-106395000D03*
X132780000Y-106395000D03*
X132780000Y-105925000D03*
X133250000Y-105925000D03*
X133250000Y-105455000D03*
X132780000Y-105455000D03*
X132780000Y-104985000D03*
X133250000Y-104985000D03*
X133250000Y-104515000D03*
X132780000Y-104515000D03*
X134710000Y-106865000D03*
X134710000Y-106395000D03*
X134710000Y-105925000D03*
X134710000Y-105455000D03*
X134710000Y-104985000D03*
X134710000Y-104515000D03*
X135180000Y-104515000D03*
X135180000Y-104985000D03*
X135180000Y-105455000D03*
X135180000Y-105925000D03*
X135180000Y-106395000D03*
X135180000Y-106865000D03*
X135650000Y-102165000D03*
X135650000Y-104515000D03*
X136120000Y-104045000D03*
X136120000Y-102635000D03*
X132310000Y-104515000D03*
X131840000Y-104045000D03*
X131370000Y-103575000D03*
X131370000Y-103105000D03*
D19*
X112589640Y-99517600D03*
D18*
%TO.N,+6V*%
X96393000Y-86999500D03*
X130720000Y-110145000D03*
%TD*%
D21*
%TO.N,+3V3*%
X107065000Y-90055000D02*
X107065000Y-95770000D01*
X107065000Y-95770000D02*
X103890000Y-98945000D01*
X103890000Y-98945000D02*
X103890000Y-98945000D01*
X103890000Y-98945000D02*
X103890000Y-98945000D01*
D22*
X108265001Y-103320001D02*
X103890000Y-98945000D01*
X108265001Y-106826684D02*
X108265001Y-103320001D01*
X106610685Y-108481000D02*
X108265001Y-106826684D01*
X106045000Y-108481000D02*
X106610685Y-108481000D01*
D21*
X107065000Y-90055000D02*
X107065000Y-94721002D01*
D23*
X107065000Y-90055000D02*
X107065000Y-93904003D01*
D24*
X107065000Y-93563603D02*
X107065000Y-90055000D01*
X110490000Y-96988603D02*
X107065000Y-93563603D01*
X115535000Y-102215000D02*
X114969315Y-102215000D01*
D21*
X107065000Y-93978003D02*
X109681996Y-96594999D01*
X107065000Y-90055000D02*
X107065000Y-93978003D01*
X115535000Y-102215000D02*
X114558998Y-102215000D01*
D23*
X110635001Y-97133604D02*
X110526399Y-97025002D01*
X110526399Y-97025002D02*
X110490000Y-97025002D01*
X110635001Y-99960721D02*
X110635001Y-97133604D01*
X112889280Y-102215000D02*
X110635001Y-99960721D01*
X114558998Y-102215000D02*
X112889280Y-102215000D01*
D22*
%TO.N,CPout*%
X125586998Y-95335000D02*
X133280000Y-95335000D01*
X125512998Y-95335000D02*
X125586998Y-95335000D01*
X124210000Y-96637998D02*
X125512998Y-95335000D01*
X124210000Y-102335000D02*
X124210000Y-96637998D01*
D21*
%TO.N,+6V*%
X96393000Y-86999500D02*
X96393000Y-86999500D01*
X130315000Y-109740000D02*
X130720000Y-110145000D01*
X96116600Y-109740000D02*
X130315000Y-109740000D01*
X94536000Y-108159400D02*
X96116600Y-109740000D01*
X94536000Y-88856500D02*
X94536000Y-108159400D01*
X96393000Y-86999500D02*
X94536000Y-88856500D01*
%TD*%
D25*
%TO.N,0*%
X141585201Y-121492783D02*
X89812000Y-121517818D01*
X89812000Y-117715056D01*
X91608000Y-117715056D01*
X91608000Y-118074944D01*
X91678211Y-118427916D01*
X91815934Y-118760409D01*
X92015876Y-119059645D01*
X92270355Y-119314124D01*
X92569591Y-119514066D01*
X92902084Y-119651789D01*
X93255056Y-119722000D01*
X93614944Y-119722000D01*
X93967916Y-119651789D01*
X94300409Y-119514066D01*
X94599645Y-119314124D01*
X94854124Y-119059645D01*
X95054066Y-118760409D01*
X95191789Y-118427916D01*
X95262000Y-118074944D01*
X95262000Y-117715056D01*
X95191789Y-117362084D01*
X95054066Y-117029591D01*
X94854124Y-116730355D01*
X94599645Y-116475876D01*
X94300409Y-116275934D01*
X93984307Y-116145000D01*
X100781418Y-116145000D01*
X100781418Y-117845000D01*
X100787732Y-117909103D01*
X100806430Y-117970743D01*
X100836794Y-118027550D01*
X100877657Y-118077343D01*
X100927450Y-118118206D01*
X100984257Y-118148570D01*
X101045897Y-118167268D01*
X101110000Y-118173582D01*
X102810000Y-118173582D01*
X102874103Y-118167268D01*
X102935743Y-118148570D01*
X102992550Y-118118206D01*
X103042343Y-118077343D01*
X103083206Y-118027550D01*
X103113570Y-117970743D01*
X103132268Y-117909103D01*
X103138582Y-117845000D01*
X103138582Y-117577592D01*
X103155843Y-117626252D01*
X103304822Y-117876355D01*
X103499731Y-118092588D01*
X103733080Y-118266641D01*
X103995901Y-118391825D01*
X104143110Y-118436476D01*
X104373000Y-118315155D01*
X104373000Y-117122000D01*
X104627000Y-117122000D01*
X104627000Y-118315155D01*
X104856890Y-118436476D01*
X105004099Y-118391825D01*
X105266920Y-118266641D01*
X105500269Y-118092588D01*
X105695178Y-117876355D01*
X105844157Y-117626252D01*
X105941481Y-117351891D01*
X105820814Y-117122000D01*
X104627000Y-117122000D01*
X104373000Y-117122000D01*
X104353000Y-117122000D01*
X104353000Y-116868000D01*
X104373000Y-116868000D01*
X104373000Y-115674845D01*
X104627000Y-115674845D01*
X104627000Y-116868000D01*
X105820814Y-116868000D01*
X105941481Y-116638109D01*
X105844157Y-116363748D01*
X105736763Y-116183456D01*
X108353120Y-116183456D01*
X108353120Y-116543344D01*
X108423331Y-116896316D01*
X108561054Y-117228809D01*
X108760996Y-117528045D01*
X109015475Y-117782524D01*
X109314711Y-117982466D01*
X109647204Y-118120189D01*
X110000176Y-118190400D01*
X110360064Y-118190400D01*
X110713036Y-118120189D01*
X111045529Y-117982466D01*
X111344765Y-117782524D01*
X111599244Y-117528045D01*
X111799186Y-117228809D01*
X111843571Y-117121654D01*
X116197952Y-117121654D01*
X116353962Y-117437215D01*
X116728745Y-117628021D01*
X117133551Y-117742045D01*
X117552824Y-117774903D01*
X117970451Y-117725335D01*
X118370383Y-117595244D01*
X118666038Y-117437215D01*
X118822048Y-117121654D01*
X117510000Y-115809606D01*
X116197952Y-117121654D01*
X111843571Y-117121654D01*
X111936909Y-116896316D01*
X112007120Y-116543344D01*
X112007120Y-116183456D01*
X111936909Y-115830484D01*
X111871605Y-115672825D01*
X115365098Y-115672825D01*
X115414666Y-116090452D01*
X115544757Y-116490384D01*
X115702786Y-116786039D01*
X116018347Y-116942049D01*
X117330395Y-115630001D01*
X117689605Y-115630001D01*
X119001653Y-116942049D01*
X119317214Y-116786039D01*
X119508020Y-116411256D01*
X119622044Y-116006450D01*
X119654902Y-115587177D01*
X119605334Y-115169550D01*
X119475243Y-114769618D01*
X119317214Y-114473963D01*
X119001653Y-114317953D01*
X117689605Y-115630001D01*
X117330395Y-115630001D01*
X116018347Y-114317953D01*
X115702786Y-114473963D01*
X115511980Y-114848746D01*
X115397956Y-115253552D01*
X115365098Y-115672825D01*
X111871605Y-115672825D01*
X111799186Y-115497991D01*
X111599244Y-115198755D01*
X111344765Y-114944276D01*
X111045529Y-114744334D01*
X110713036Y-114606611D01*
X110360064Y-114536400D01*
X110000176Y-114536400D01*
X109647204Y-114606611D01*
X109314711Y-114744334D01*
X109015475Y-114944276D01*
X108760996Y-115198755D01*
X108561054Y-115497991D01*
X108423331Y-115830484D01*
X108353120Y-116183456D01*
X105736763Y-116183456D01*
X105695178Y-116113645D01*
X105500269Y-115897412D01*
X105266920Y-115723359D01*
X105004099Y-115598175D01*
X104856890Y-115553524D01*
X104627000Y-115674845D01*
X104373000Y-115674845D01*
X104143110Y-115553524D01*
X103995901Y-115598175D01*
X103733080Y-115723359D01*
X103499731Y-115897412D01*
X103304822Y-116113645D01*
X103155843Y-116363748D01*
X103138582Y-116412408D01*
X103138582Y-116145000D01*
X103132268Y-116080897D01*
X103113570Y-116019257D01*
X103083206Y-115962450D01*
X103042343Y-115912657D01*
X102992550Y-115871794D01*
X102935743Y-115841430D01*
X102874103Y-115822732D01*
X102810000Y-115816418D01*
X101110000Y-115816418D01*
X101045897Y-115822732D01*
X100984257Y-115841430D01*
X100927450Y-115871794D01*
X100877657Y-115912657D01*
X100836794Y-115962450D01*
X100806430Y-116019257D01*
X100787732Y-116080897D01*
X100781418Y-116145000D01*
X93984307Y-116145000D01*
X93967916Y-116138211D01*
X93614944Y-116068000D01*
X93255056Y-116068000D01*
X92902084Y-116138211D01*
X92569591Y-116275934D01*
X92270355Y-116475876D01*
X92015876Y-116730355D01*
X91815934Y-117029591D01*
X91678211Y-117362084D01*
X91608000Y-117715056D01*
X89812000Y-117715056D01*
X89812000Y-114138348D01*
X116197952Y-114138348D01*
X117510000Y-115450396D01*
X118822048Y-114138348D01*
X118666038Y-113822787D01*
X118291255Y-113631981D01*
X117886449Y-113517957D01*
X117467176Y-113485099D01*
X117049549Y-113534667D01*
X116649617Y-113664758D01*
X116353962Y-113822787D01*
X116197952Y-114138348D01*
X89812000Y-114138348D01*
X89812000Y-88856500D01*
X93705000Y-88856500D01*
X93709000Y-88897114D01*
X93709001Y-108118776D01*
X93705000Y-108159400D01*
X93720967Y-108321520D01*
X93768256Y-108477410D01*
X93845048Y-108621079D01*
X93922498Y-108715451D01*
X93948395Y-108747006D01*
X93979948Y-108772901D01*
X95503097Y-110296051D01*
X95528994Y-110327606D01*
X95560547Y-110353501D01*
X95560548Y-110353502D01*
X95654920Y-110430952D01*
X95714897Y-110463010D01*
X95798590Y-110507745D01*
X95954480Y-110555034D01*
X96075976Y-110567000D01*
X96075986Y-110567000D01*
X96116600Y-110571000D01*
X96157214Y-110567000D01*
X129972446Y-110567000D01*
X130163948Y-110758502D01*
X130258320Y-110835951D01*
X130401988Y-110912744D01*
X130557879Y-110960032D01*
X130719999Y-110976000D01*
X130882120Y-110960032D01*
X131038010Y-110912744D01*
X131181679Y-110835951D01*
X131307606Y-110732606D01*
X131410951Y-110606679D01*
X131487744Y-110463010D01*
X131535032Y-110307120D01*
X131551000Y-110144999D01*
X131535032Y-109982879D01*
X131487744Y-109826988D01*
X131410951Y-109683320D01*
X131333502Y-109588948D01*
X130928505Y-109183952D01*
X130902606Y-109152394D01*
X130776679Y-109049048D01*
X130633010Y-108972255D01*
X130477120Y-108924966D01*
X130355624Y-108913000D01*
X130355614Y-108913000D01*
X130315000Y-108909000D01*
X130274386Y-108913000D01*
X122210971Y-108913000D01*
X122439969Y-108818146D01*
X122739205Y-108618204D01*
X122993684Y-108363725D01*
X123193626Y-108064489D01*
X123331349Y-107731996D01*
X123401560Y-107379024D01*
X123401560Y-107019136D01*
X123331349Y-106666164D01*
X123193626Y-106333671D01*
X122993684Y-106034435D01*
X122739205Y-105779956D01*
X122439969Y-105580014D01*
X122107476Y-105442291D01*
X121754504Y-105372080D01*
X121394616Y-105372080D01*
X121041644Y-105442291D01*
X120709151Y-105580014D01*
X120409915Y-105779956D01*
X120155436Y-106034435D01*
X119955494Y-106333671D01*
X119817771Y-106666164D01*
X119747560Y-107019136D01*
X119747560Y-107379024D01*
X119817771Y-107731996D01*
X119955494Y-108064489D01*
X120155436Y-108363725D01*
X120409915Y-108618204D01*
X120709151Y-108818146D01*
X120938149Y-108913000D01*
X106814354Y-108913000D01*
X106876974Y-108879529D01*
X106949606Y-108819921D01*
X106964540Y-108801724D01*
X108585730Y-107180535D01*
X108603922Y-107165605D01*
X108663530Y-107092973D01*
X108707823Y-107010107D01*
X108735098Y-106920192D01*
X108742001Y-106850107D01*
X108742001Y-106850100D01*
X108744307Y-106826685D01*
X108742001Y-106803270D01*
X108742001Y-103343416D01*
X108744307Y-103320001D01*
X108742001Y-103296586D01*
X108742001Y-103296578D01*
X108735098Y-103226493D01*
X108707823Y-103136578D01*
X108663530Y-103053712D01*
X108603922Y-102981080D01*
X108585730Y-102966151D01*
X104812066Y-99192487D01*
X107621053Y-96383501D01*
X107652606Y-96357606D01*
X107685708Y-96317271D01*
X107755952Y-96231680D01*
X107832744Y-96088011D01*
X107832745Y-96088010D01*
X107872942Y-95955499D01*
X109125944Y-97208501D01*
X109220315Y-97285951D01*
X109363985Y-97362743D01*
X109519875Y-97410032D01*
X109681995Y-97425999D01*
X109816240Y-97412777D01*
X109840823Y-97458768D01*
X109858002Y-97479701D01*
X109858001Y-99922557D01*
X109854242Y-99960721D01*
X109858001Y-99998884D01*
X109858001Y-99998886D01*
X109869244Y-100113039D01*
X109913674Y-100259504D01*
X109985824Y-100394487D01*
X110033204Y-100452220D01*
X110082921Y-100512801D01*
X110112570Y-100537133D01*
X112312872Y-102737436D01*
X112337200Y-102767080D01*
X112366844Y-102791408D01*
X112366845Y-102791409D01*
X112455513Y-102864177D01*
X112521969Y-102899698D01*
X112590496Y-102936327D01*
X112736961Y-102980757D01*
X112851114Y-102992000D01*
X112851116Y-102992000D01*
X112889280Y-102995759D01*
X112927443Y-102992000D01*
X114271497Y-102992000D01*
X114396878Y-103030034D01*
X114518374Y-103042000D01*
X115575624Y-103042000D01*
X115697120Y-103030034D01*
X115853010Y-102982745D01*
X115996679Y-102905952D01*
X116122606Y-102802606D01*
X116225952Y-102676679D01*
X116302745Y-102533010D01*
X116350034Y-102377120D01*
X116361234Y-102263397D01*
X123483000Y-102263397D01*
X123483000Y-102406603D01*
X123510938Y-102547058D01*
X123565741Y-102679364D01*
X123645302Y-102798436D01*
X123746564Y-102899698D01*
X123865636Y-102979259D01*
X123997942Y-103034062D01*
X124138397Y-103062000D01*
X124281603Y-103062000D01*
X124422058Y-103034062D01*
X124554364Y-102979259D01*
X124673436Y-102899698D01*
X124774698Y-102798436D01*
X124854259Y-102679364D01*
X124909062Y-102547058D01*
X124937000Y-102406603D01*
X124937000Y-102263397D01*
X124909062Y-102122942D01*
X124854259Y-101990636D01*
X124774698Y-101871564D01*
X124687000Y-101783866D01*
X124687000Y-96835577D01*
X125710578Y-95812000D01*
X132728866Y-95812000D01*
X132816564Y-95899698D01*
X132935636Y-95979259D01*
X133067942Y-96034062D01*
X133208397Y-96062000D01*
X133351603Y-96062000D01*
X133492058Y-96034062D01*
X133624364Y-95979259D01*
X133743436Y-95899698D01*
X133844698Y-95798436D01*
X133924259Y-95679364D01*
X133979062Y-95547058D01*
X134007000Y-95406603D01*
X134007000Y-95263397D01*
X133979062Y-95122942D01*
X133924259Y-94990636D01*
X133844698Y-94871564D01*
X133743436Y-94770302D01*
X133624364Y-94690741D01*
X133492058Y-94635938D01*
X133351603Y-94608000D01*
X133208397Y-94608000D01*
X133067942Y-94635938D01*
X132935636Y-94690741D01*
X132816564Y-94770302D01*
X132728866Y-94858000D01*
X125536412Y-94858000D01*
X125512997Y-94855694D01*
X125489582Y-94858000D01*
X125489575Y-94858000D01*
X125428336Y-94864032D01*
X125419489Y-94864903D01*
X125397531Y-94871564D01*
X125329575Y-94892178D01*
X125246709Y-94936471D01*
X125174077Y-94996079D01*
X125159147Y-95014271D01*
X123889271Y-96284148D01*
X123871080Y-96299077D01*
X123811472Y-96371709D01*
X123809272Y-96375825D01*
X123767178Y-96454576D01*
X123739903Y-96544491D01*
X123730694Y-96637998D01*
X123733001Y-96661423D01*
X123733000Y-101783866D01*
X123645302Y-101871564D01*
X123565741Y-101990636D01*
X123510938Y-102122942D01*
X123483000Y-102263397D01*
X116361234Y-102263397D01*
X116366001Y-102215000D01*
X116350034Y-102052880D01*
X116302745Y-101896990D01*
X116225952Y-101753321D01*
X116122606Y-101627394D01*
X115996679Y-101524048D01*
X115853010Y-101447255D01*
X115697120Y-101399966D01*
X115575624Y-101388000D01*
X114518374Y-101388000D01*
X114396878Y-101399966D01*
X114271497Y-101438000D01*
X113211124Y-101438000D01*
X111412001Y-99638878D01*
X111412001Y-97171759D01*
X111415759Y-97133603D01*
X111412001Y-97095448D01*
X111412001Y-97095438D01*
X111400758Y-96981285D01*
X111356328Y-96834820D01*
X111284178Y-96699838D01*
X111187081Y-96581524D01*
X111157431Y-96557191D01*
X111102812Y-96502572D01*
X111078479Y-96472922D01*
X110960165Y-96375825D01*
X110825183Y-96303675D01*
X110678718Y-96259245D01*
X110564565Y-96248002D01*
X110564562Y-96248002D01*
X110526399Y-96244243D01*
X110519859Y-96244887D01*
X107892000Y-93617029D01*
X107892000Y-90014376D01*
X107880034Y-89892880D01*
X107832745Y-89736990D01*
X107755952Y-89593321D01*
X107652606Y-89467394D01*
X107526678Y-89364048D01*
X107383009Y-89287255D01*
X107227119Y-89239966D01*
X107065000Y-89223999D01*
X106902880Y-89239966D01*
X106746990Y-89287255D01*
X106603321Y-89364048D01*
X106477394Y-89467394D01*
X106374048Y-89593322D01*
X106297255Y-89736991D01*
X106249966Y-89892881D01*
X106238000Y-90014377D01*
X106238001Y-93937382D01*
X106234000Y-93978003D01*
X106238001Y-94018624D01*
X106238001Y-95427445D01*
X103333952Y-98331495D01*
X103302394Y-98357394D01*
X103199048Y-98483321D01*
X103122255Y-98626990D01*
X103074966Y-98782880D01*
X103058999Y-98945000D01*
X103074966Y-99107120D01*
X103122255Y-99263010D01*
X103199048Y-99406679D01*
X103302394Y-99532606D01*
X103428321Y-99635952D01*
X103571990Y-99712745D01*
X103727880Y-99760034D01*
X103849376Y-99772000D01*
X103849386Y-99772000D01*
X103890000Y-99776000D01*
X103930614Y-99772000D01*
X103930624Y-99772000D01*
X104032397Y-99761976D01*
X107788002Y-103517582D01*
X107788002Y-104997528D01*
X107622519Y-104886956D01*
X107408318Y-104798231D01*
X107180924Y-104753000D01*
X106949076Y-104753000D01*
X106721682Y-104798231D01*
X106507481Y-104886956D01*
X106314706Y-105015764D01*
X106150764Y-105179706D01*
X106021956Y-105372481D01*
X105933231Y-105586682D01*
X105888000Y-105814076D01*
X105888000Y-106045924D01*
X105933231Y-106273318D01*
X106021956Y-106487519D01*
X106150764Y-106680294D01*
X106314706Y-106844236D01*
X106507481Y-106973044D01*
X106721682Y-107061769D01*
X106949076Y-107107000D01*
X107180924Y-107107000D01*
X107342181Y-107074924D01*
X106413106Y-108004000D01*
X106368007Y-108004000D01*
X106359698Y-107991564D01*
X106258436Y-107890302D01*
X106139364Y-107810741D01*
X106007058Y-107755938D01*
X105866603Y-107728000D01*
X105723397Y-107728000D01*
X105582942Y-107755938D01*
X105450636Y-107810741D01*
X105331564Y-107890302D01*
X105230302Y-107991564D01*
X105150741Y-108110636D01*
X105095938Y-108242942D01*
X105068000Y-108383397D01*
X105068000Y-108526603D01*
X105095938Y-108667058D01*
X105150741Y-108799364D01*
X105226670Y-108913000D01*
X96459154Y-108913000D01*
X95363000Y-107816847D01*
X95363000Y-106780000D01*
X95416928Y-106780000D01*
X95429188Y-106904482D01*
X95465498Y-107024180D01*
X95524463Y-107134494D01*
X95603815Y-107231185D01*
X95700506Y-107310537D01*
X95810820Y-107369502D01*
X95930518Y-107405812D01*
X96055000Y-107418072D01*
X96619250Y-107415000D01*
X96778000Y-107256250D01*
X96778000Y-106057000D01*
X95578750Y-106057000D01*
X95420000Y-106215750D01*
X95416928Y-106780000D01*
X95363000Y-106780000D01*
X95363000Y-105080000D01*
X95416928Y-105080000D01*
X95420000Y-105644250D01*
X95578750Y-105803000D01*
X96778000Y-105803000D01*
X96778000Y-104603750D01*
X97032000Y-104603750D01*
X97032000Y-105803000D01*
X97052000Y-105803000D01*
X97052000Y-106057000D01*
X97032000Y-106057000D01*
X97032000Y-107256250D01*
X97190750Y-107415000D01*
X97755000Y-107418072D01*
X97879482Y-107405812D01*
X97999180Y-107369502D01*
X98109494Y-107310537D01*
X98206185Y-107231185D01*
X98285537Y-107134494D01*
X98344502Y-107024180D01*
X98380812Y-106904482D01*
X98393072Y-106780000D01*
X98391340Y-106461890D01*
X98401956Y-106487519D01*
X98530764Y-106680294D01*
X98694706Y-106844236D01*
X98887481Y-106973044D01*
X99101682Y-107061769D01*
X99329076Y-107107000D01*
X99560924Y-107107000D01*
X99788318Y-107061769D01*
X100002519Y-106973044D01*
X100195294Y-106844236D01*
X100359236Y-106680294D01*
X100488044Y-106487519D01*
X100576769Y-106273318D01*
X100622000Y-106045924D01*
X100622000Y-105814076D01*
X100808000Y-105814076D01*
X100808000Y-106045924D01*
X100853231Y-106273318D01*
X100941956Y-106487519D01*
X101070764Y-106680294D01*
X101234706Y-106844236D01*
X101427481Y-106973044D01*
X101641682Y-107061769D01*
X101869076Y-107107000D01*
X102100924Y-107107000D01*
X102328318Y-107061769D01*
X102542519Y-106973044D01*
X102735294Y-106844236D01*
X102899236Y-106680294D01*
X103028044Y-106487519D01*
X103116769Y-106273318D01*
X103162000Y-106045924D01*
X103162000Y-105814076D01*
X103348000Y-105814076D01*
X103348000Y-106045924D01*
X103393231Y-106273318D01*
X103481956Y-106487519D01*
X103610764Y-106680294D01*
X103774706Y-106844236D01*
X103967481Y-106973044D01*
X104181682Y-107061769D01*
X104409076Y-107107000D01*
X104640924Y-107107000D01*
X104868318Y-107061769D01*
X105082519Y-106973044D01*
X105275294Y-106844236D01*
X105439236Y-106680294D01*
X105568044Y-106487519D01*
X105656769Y-106273318D01*
X105702000Y-106045924D01*
X105702000Y-105814076D01*
X105656769Y-105586682D01*
X105568044Y-105372481D01*
X105439236Y-105179706D01*
X105275294Y-105015764D01*
X105082519Y-104886956D01*
X104868318Y-104798231D01*
X104640924Y-104753000D01*
X104409076Y-104753000D01*
X104181682Y-104798231D01*
X103967481Y-104886956D01*
X103774706Y-105015764D01*
X103610764Y-105179706D01*
X103481956Y-105372481D01*
X103393231Y-105586682D01*
X103348000Y-105814076D01*
X103162000Y-105814076D01*
X103116769Y-105586682D01*
X103028044Y-105372481D01*
X102899236Y-105179706D01*
X102735294Y-105015764D01*
X102542519Y-104886956D01*
X102328318Y-104798231D01*
X102100924Y-104753000D01*
X101869076Y-104753000D01*
X101641682Y-104798231D01*
X101427481Y-104886956D01*
X101234706Y-105015764D01*
X101070764Y-105179706D01*
X100941956Y-105372481D01*
X100853231Y-105586682D01*
X100808000Y-105814076D01*
X100622000Y-105814076D01*
X100576769Y-105586682D01*
X100488044Y-105372481D01*
X100359236Y-105179706D01*
X100195294Y-105015764D01*
X100002519Y-104886956D01*
X99788318Y-104798231D01*
X99560924Y-104753000D01*
X99329076Y-104753000D01*
X99101682Y-104798231D01*
X98887481Y-104886956D01*
X98694706Y-105015764D01*
X98530764Y-105179706D01*
X98401956Y-105372481D01*
X98391340Y-105398110D01*
X98393072Y-105080000D01*
X98380812Y-104955518D01*
X98344502Y-104835820D01*
X98285537Y-104725506D01*
X98206185Y-104628815D01*
X98109494Y-104549463D01*
X97999180Y-104490498D01*
X97879482Y-104454188D01*
X97755000Y-104441928D01*
X97190750Y-104445000D01*
X97032000Y-104603750D01*
X96778000Y-104603750D01*
X96619250Y-104445000D01*
X96055000Y-104441928D01*
X95930518Y-104454188D01*
X95810820Y-104490498D01*
X95700506Y-104549463D01*
X95603815Y-104628815D01*
X95524463Y-104725506D01*
X95465498Y-104835820D01*
X95429188Y-104955518D01*
X95416928Y-105080000D01*
X95363000Y-105080000D01*
X95363000Y-93755256D01*
X98909400Y-93755256D01*
X98909400Y-94115144D01*
X98979611Y-94468116D01*
X99117334Y-94800609D01*
X99317276Y-95099845D01*
X99571755Y-95354324D01*
X99870991Y-95554266D01*
X100203484Y-95691989D01*
X100556456Y-95762200D01*
X100916344Y-95762200D01*
X101269316Y-95691989D01*
X101601809Y-95554266D01*
X101901045Y-95354324D01*
X102155524Y-95099845D01*
X102355466Y-94800609D01*
X102493189Y-94468116D01*
X102563400Y-94115144D01*
X102563400Y-93755256D01*
X102493189Y-93402284D01*
X102355466Y-93069791D01*
X102155524Y-92770555D01*
X101901045Y-92516076D01*
X101601809Y-92316134D01*
X101269316Y-92178411D01*
X100916344Y-92108200D01*
X100556456Y-92108200D01*
X100203484Y-92178411D01*
X99870991Y-92316134D01*
X99571755Y-92516076D01*
X99317276Y-92770555D01*
X99117334Y-93069791D01*
X98979611Y-93402284D01*
X98909400Y-93755256D01*
X95363000Y-93755256D01*
X95363000Y-89199053D01*
X96526998Y-88035056D01*
X107408000Y-88035056D01*
X107408000Y-88394944D01*
X107478211Y-88747916D01*
X107615934Y-89080409D01*
X107815876Y-89379645D01*
X108070355Y-89634124D01*
X108369591Y-89834066D01*
X108702084Y-89971789D01*
X109055056Y-90042000D01*
X109414944Y-90042000D01*
X109767916Y-89971789D01*
X110100409Y-89834066D01*
X110399645Y-89634124D01*
X110654124Y-89379645D01*
X110854066Y-89080409D01*
X110991789Y-88747916D01*
X111062000Y-88394944D01*
X111062000Y-88035056D01*
X110991789Y-87682084D01*
X110910178Y-87485056D01*
X132883000Y-87485056D01*
X132883000Y-87844944D01*
X132953211Y-88197916D01*
X133090934Y-88530409D01*
X133290876Y-88829645D01*
X133545355Y-89084124D01*
X133844591Y-89284066D01*
X134177084Y-89421789D01*
X134530056Y-89492000D01*
X134889944Y-89492000D01*
X135242916Y-89421789D01*
X135575409Y-89284066D01*
X135874645Y-89084124D01*
X136129124Y-88829645D01*
X136329066Y-88530409D01*
X136466789Y-88197916D01*
X136537000Y-87844944D01*
X136537000Y-87485056D01*
X136466789Y-87132084D01*
X136329066Y-86799591D01*
X136129124Y-86500355D01*
X135874645Y-86245876D01*
X135575409Y-86045934D01*
X135242916Y-85908211D01*
X134889944Y-85838000D01*
X134530056Y-85838000D01*
X134177084Y-85908211D01*
X133844591Y-86045934D01*
X133545355Y-86245876D01*
X133290876Y-86500355D01*
X133090934Y-86799591D01*
X132953211Y-87132084D01*
X132883000Y-87485056D01*
X110910178Y-87485056D01*
X110854066Y-87349591D01*
X110654124Y-87050355D01*
X110399645Y-86795876D01*
X110100409Y-86595934D01*
X109767916Y-86458211D01*
X109414944Y-86388000D01*
X109055056Y-86388000D01*
X108702084Y-86458211D01*
X108369591Y-86595934D01*
X108070355Y-86795876D01*
X107815876Y-87050355D01*
X107615934Y-87349591D01*
X107478211Y-87682084D01*
X107408000Y-88035056D01*
X96526998Y-88035056D01*
X96949058Y-87612997D01*
X96980606Y-87587106D01*
X97006496Y-87555559D01*
X97006503Y-87555552D01*
X97083952Y-87461180D01*
X97160745Y-87317511D01*
X97192885Y-87211558D01*
X97208034Y-87161620D01*
X97224001Y-86999500D01*
X97208034Y-86837380D01*
X97160745Y-86681490D01*
X97083952Y-86537820D01*
X96980606Y-86411894D01*
X96854680Y-86308548D01*
X96711010Y-86231755D01*
X96555120Y-86184466D01*
X96433624Y-86172500D01*
X96433614Y-86172500D01*
X96393000Y-86168500D01*
X96352386Y-86172500D01*
X96352376Y-86172500D01*
X96230880Y-86184466D01*
X96122278Y-86217410D01*
X96074989Y-86231755D01*
X95931320Y-86308548D01*
X95836948Y-86385997D01*
X95836941Y-86386004D01*
X95805394Y-86411894D01*
X95779503Y-86443442D01*
X93979952Y-88242995D01*
X93948394Y-88268894D01*
X93922498Y-88300449D01*
X93845048Y-88394821D01*
X93804002Y-88471614D01*
X93768255Y-88538491D01*
X93720966Y-88694381D01*
X93709000Y-88815877D01*
X93709000Y-88815886D01*
X93705000Y-88856500D01*
X89812000Y-88856500D01*
X89812000Y-84155600D01*
X101259618Y-84155600D01*
X101259618Y-85855600D01*
X101265932Y-85919703D01*
X101284630Y-85981343D01*
X101314994Y-86038150D01*
X101355857Y-86087943D01*
X101405650Y-86128806D01*
X101462457Y-86159170D01*
X101524097Y-86177868D01*
X101588200Y-86184182D01*
X103288200Y-86184182D01*
X103352303Y-86177868D01*
X103413943Y-86159170D01*
X103470750Y-86128806D01*
X103520543Y-86087943D01*
X103561406Y-86038150D01*
X103591770Y-85981343D01*
X103610468Y-85919703D01*
X103616782Y-85855600D01*
X103616782Y-85588192D01*
X103634043Y-85636852D01*
X103783022Y-85886955D01*
X103977931Y-86103188D01*
X104211280Y-86277241D01*
X104474101Y-86402425D01*
X104621310Y-86447076D01*
X104851200Y-86325755D01*
X104851200Y-85132600D01*
X105105200Y-85132600D01*
X105105200Y-86325755D01*
X105335090Y-86447076D01*
X105482299Y-86402425D01*
X105745120Y-86277241D01*
X105978469Y-86103188D01*
X106173378Y-85886955D01*
X106322357Y-85636852D01*
X106419681Y-85362491D01*
X106299014Y-85132600D01*
X105105200Y-85132600D01*
X104851200Y-85132600D01*
X104831200Y-85132600D01*
X104831200Y-84878600D01*
X104851200Y-84878600D01*
X104851200Y-83685445D01*
X105105200Y-83685445D01*
X105105200Y-84878600D01*
X106299014Y-84878600D01*
X106419681Y-84648709D01*
X106322357Y-84374348D01*
X106173378Y-84124245D01*
X105978469Y-83908012D01*
X105780108Y-83760056D01*
X136108000Y-83760056D01*
X136108000Y-84119944D01*
X136178211Y-84472916D01*
X136315934Y-84805409D01*
X136515876Y-85104645D01*
X136770355Y-85359124D01*
X137069591Y-85559066D01*
X137402084Y-85696789D01*
X137755056Y-85767000D01*
X138114944Y-85767000D01*
X138467916Y-85696789D01*
X138800409Y-85559066D01*
X139099645Y-85359124D01*
X139354124Y-85104645D01*
X139554066Y-84805409D01*
X139691789Y-84472916D01*
X139762000Y-84119944D01*
X139762000Y-83760056D01*
X139691789Y-83407084D01*
X139554066Y-83074591D01*
X139354124Y-82775355D01*
X139099645Y-82520876D01*
X138800409Y-82320934D01*
X138467916Y-82183211D01*
X138114944Y-82113000D01*
X137755056Y-82113000D01*
X137402084Y-82183211D01*
X137069591Y-82320934D01*
X136770355Y-82520876D01*
X136515876Y-82775355D01*
X136315934Y-83074591D01*
X136178211Y-83407084D01*
X136108000Y-83760056D01*
X105780108Y-83760056D01*
X105745120Y-83733959D01*
X105482299Y-83608775D01*
X105335090Y-83564124D01*
X105105200Y-83685445D01*
X104851200Y-83685445D01*
X104621310Y-83564124D01*
X104474101Y-83608775D01*
X104211280Y-83733959D01*
X103977931Y-83908012D01*
X103783022Y-84124245D01*
X103634043Y-84374348D01*
X103616782Y-84423008D01*
X103616782Y-84155600D01*
X103610468Y-84091497D01*
X103591770Y-84029857D01*
X103561406Y-83973050D01*
X103520543Y-83923257D01*
X103470750Y-83882394D01*
X103413943Y-83852030D01*
X103352303Y-83833332D01*
X103288200Y-83827018D01*
X101588200Y-83827018D01*
X101524097Y-83833332D01*
X101462457Y-83852030D01*
X101405650Y-83882394D01*
X101355857Y-83923257D01*
X101314994Y-83973050D01*
X101284630Y-84029857D01*
X101265932Y-84091497D01*
X101259618Y-84155600D01*
X89812000Y-84155600D01*
X89812000Y-80362000D01*
X141585200Y-80362000D01*
X141585201Y-121492783D01*
%TA.AperFunction,Conductor*%
D26*
G36*
X141585201Y-121492783D02*
G01*
X89812000Y-121517818D01*
X89812000Y-117715056D01*
X91608000Y-117715056D01*
X91608000Y-118074944D01*
X91678211Y-118427916D01*
X91815934Y-118760409D01*
X92015876Y-119059645D01*
X92270355Y-119314124D01*
X92569591Y-119514066D01*
X92902084Y-119651789D01*
X93255056Y-119722000D01*
X93614944Y-119722000D01*
X93967916Y-119651789D01*
X94300409Y-119514066D01*
X94599645Y-119314124D01*
X94854124Y-119059645D01*
X95054066Y-118760409D01*
X95191789Y-118427916D01*
X95262000Y-118074944D01*
X95262000Y-117715056D01*
X95191789Y-117362084D01*
X95054066Y-117029591D01*
X94854124Y-116730355D01*
X94599645Y-116475876D01*
X94300409Y-116275934D01*
X93984307Y-116145000D01*
X100781418Y-116145000D01*
X100781418Y-117845000D01*
X100787732Y-117909103D01*
X100806430Y-117970743D01*
X100836794Y-118027550D01*
X100877657Y-118077343D01*
X100927450Y-118118206D01*
X100984257Y-118148570D01*
X101045897Y-118167268D01*
X101110000Y-118173582D01*
X102810000Y-118173582D01*
X102874103Y-118167268D01*
X102935743Y-118148570D01*
X102992550Y-118118206D01*
X103042343Y-118077343D01*
X103083206Y-118027550D01*
X103113570Y-117970743D01*
X103132268Y-117909103D01*
X103138582Y-117845000D01*
X103138582Y-117577592D01*
X103155843Y-117626252D01*
X103304822Y-117876355D01*
X103499731Y-118092588D01*
X103733080Y-118266641D01*
X103995901Y-118391825D01*
X104143110Y-118436476D01*
X104373000Y-118315155D01*
X104373000Y-117122000D01*
X104627000Y-117122000D01*
X104627000Y-118315155D01*
X104856890Y-118436476D01*
X105004099Y-118391825D01*
X105266920Y-118266641D01*
X105500269Y-118092588D01*
X105695178Y-117876355D01*
X105844157Y-117626252D01*
X105941481Y-117351891D01*
X105820814Y-117122000D01*
X104627000Y-117122000D01*
X104373000Y-117122000D01*
X104353000Y-117122000D01*
X104353000Y-116868000D01*
X104373000Y-116868000D01*
X104373000Y-115674845D01*
X104627000Y-115674845D01*
X104627000Y-116868000D01*
X105820814Y-116868000D01*
X105941481Y-116638109D01*
X105844157Y-116363748D01*
X105736763Y-116183456D01*
X108353120Y-116183456D01*
X108353120Y-116543344D01*
X108423331Y-116896316D01*
X108561054Y-117228809D01*
X108760996Y-117528045D01*
X109015475Y-117782524D01*
X109314711Y-117982466D01*
X109647204Y-118120189D01*
X110000176Y-118190400D01*
X110360064Y-118190400D01*
X110713036Y-118120189D01*
X111045529Y-117982466D01*
X111344765Y-117782524D01*
X111599244Y-117528045D01*
X111799186Y-117228809D01*
X111843571Y-117121654D01*
X116197952Y-117121654D01*
X116353962Y-117437215D01*
X116728745Y-117628021D01*
X117133551Y-117742045D01*
X117552824Y-117774903D01*
X117970451Y-117725335D01*
X118370383Y-117595244D01*
X118666038Y-117437215D01*
X118822048Y-117121654D01*
X117510000Y-115809606D01*
X116197952Y-117121654D01*
X111843571Y-117121654D01*
X111936909Y-116896316D01*
X112007120Y-116543344D01*
X112007120Y-116183456D01*
X111936909Y-115830484D01*
X111871605Y-115672825D01*
X115365098Y-115672825D01*
X115414666Y-116090452D01*
X115544757Y-116490384D01*
X115702786Y-116786039D01*
X116018347Y-116942049D01*
X117330395Y-115630001D01*
X117689605Y-115630001D01*
X119001653Y-116942049D01*
X119317214Y-116786039D01*
X119508020Y-116411256D01*
X119622044Y-116006450D01*
X119654902Y-115587177D01*
X119605334Y-115169550D01*
X119475243Y-114769618D01*
X119317214Y-114473963D01*
X119001653Y-114317953D01*
X117689605Y-115630001D01*
X117330395Y-115630001D01*
X116018347Y-114317953D01*
X115702786Y-114473963D01*
X115511980Y-114848746D01*
X115397956Y-115253552D01*
X115365098Y-115672825D01*
X111871605Y-115672825D01*
X111799186Y-115497991D01*
X111599244Y-115198755D01*
X111344765Y-114944276D01*
X111045529Y-114744334D01*
X110713036Y-114606611D01*
X110360064Y-114536400D01*
X110000176Y-114536400D01*
X109647204Y-114606611D01*
X109314711Y-114744334D01*
X109015475Y-114944276D01*
X108760996Y-115198755D01*
X108561054Y-115497991D01*
X108423331Y-115830484D01*
X108353120Y-116183456D01*
X105736763Y-116183456D01*
X105695178Y-116113645D01*
X105500269Y-115897412D01*
X105266920Y-115723359D01*
X105004099Y-115598175D01*
X104856890Y-115553524D01*
X104627000Y-115674845D01*
X104373000Y-115674845D01*
X104143110Y-115553524D01*
X103995901Y-115598175D01*
X103733080Y-115723359D01*
X103499731Y-115897412D01*
X103304822Y-116113645D01*
X103155843Y-116363748D01*
X103138582Y-116412408D01*
X103138582Y-116145000D01*
X103132268Y-116080897D01*
X103113570Y-116019257D01*
X103083206Y-115962450D01*
X103042343Y-115912657D01*
X102992550Y-115871794D01*
X102935743Y-115841430D01*
X102874103Y-115822732D01*
X102810000Y-115816418D01*
X101110000Y-115816418D01*
X101045897Y-115822732D01*
X100984257Y-115841430D01*
X100927450Y-115871794D01*
X100877657Y-115912657D01*
X100836794Y-115962450D01*
X100806430Y-116019257D01*
X100787732Y-116080897D01*
X100781418Y-116145000D01*
X93984307Y-116145000D01*
X93967916Y-116138211D01*
X93614944Y-116068000D01*
X93255056Y-116068000D01*
X92902084Y-116138211D01*
X92569591Y-116275934D01*
X92270355Y-116475876D01*
X92015876Y-116730355D01*
X91815934Y-117029591D01*
X91678211Y-117362084D01*
X91608000Y-117715056D01*
X89812000Y-117715056D01*
X89812000Y-114138348D01*
X116197952Y-114138348D01*
X117510000Y-115450396D01*
X118822048Y-114138348D01*
X118666038Y-113822787D01*
X118291255Y-113631981D01*
X117886449Y-113517957D01*
X117467176Y-113485099D01*
X117049549Y-113534667D01*
X116649617Y-113664758D01*
X116353962Y-113822787D01*
X116197952Y-114138348D01*
X89812000Y-114138348D01*
X89812000Y-88856500D01*
X93705000Y-88856500D01*
X93709000Y-88897114D01*
X93709001Y-108118776D01*
X93705000Y-108159400D01*
X93720967Y-108321520D01*
X93768256Y-108477410D01*
X93845048Y-108621079D01*
X93922498Y-108715451D01*
X93948395Y-108747006D01*
X93979948Y-108772901D01*
X95503097Y-110296051D01*
X95528994Y-110327606D01*
X95560547Y-110353501D01*
X95560548Y-110353502D01*
X95654920Y-110430952D01*
X95714897Y-110463010D01*
X95798590Y-110507745D01*
X95954480Y-110555034D01*
X96075976Y-110567000D01*
X96075986Y-110567000D01*
X96116600Y-110571000D01*
X96157214Y-110567000D01*
X129972446Y-110567000D01*
X130163948Y-110758502D01*
X130258320Y-110835951D01*
X130401988Y-110912744D01*
X130557879Y-110960032D01*
X130719999Y-110976000D01*
X130882120Y-110960032D01*
X131038010Y-110912744D01*
X131181679Y-110835951D01*
X131307606Y-110732606D01*
X131410951Y-110606679D01*
X131487744Y-110463010D01*
X131535032Y-110307120D01*
X131551000Y-110144999D01*
X131535032Y-109982879D01*
X131487744Y-109826988D01*
X131410951Y-109683320D01*
X131333502Y-109588948D01*
X130928505Y-109183952D01*
X130902606Y-109152394D01*
X130776679Y-109049048D01*
X130633010Y-108972255D01*
X130477120Y-108924966D01*
X130355624Y-108913000D01*
X130355614Y-108913000D01*
X130315000Y-108909000D01*
X130274386Y-108913000D01*
X122210971Y-108913000D01*
X122439969Y-108818146D01*
X122739205Y-108618204D01*
X122993684Y-108363725D01*
X123193626Y-108064489D01*
X123331349Y-107731996D01*
X123401560Y-107379024D01*
X123401560Y-107019136D01*
X123331349Y-106666164D01*
X123193626Y-106333671D01*
X122993684Y-106034435D01*
X122739205Y-105779956D01*
X122439969Y-105580014D01*
X122107476Y-105442291D01*
X121754504Y-105372080D01*
X121394616Y-105372080D01*
X121041644Y-105442291D01*
X120709151Y-105580014D01*
X120409915Y-105779956D01*
X120155436Y-106034435D01*
X119955494Y-106333671D01*
X119817771Y-106666164D01*
X119747560Y-107019136D01*
X119747560Y-107379024D01*
X119817771Y-107731996D01*
X119955494Y-108064489D01*
X120155436Y-108363725D01*
X120409915Y-108618204D01*
X120709151Y-108818146D01*
X120938149Y-108913000D01*
X106814354Y-108913000D01*
X106876974Y-108879529D01*
X106949606Y-108819921D01*
X106964540Y-108801724D01*
X108585730Y-107180535D01*
X108603922Y-107165605D01*
X108663530Y-107092973D01*
X108707823Y-107010107D01*
X108735098Y-106920192D01*
X108742001Y-106850107D01*
X108742001Y-106850100D01*
X108744307Y-106826685D01*
X108742001Y-106803270D01*
X108742001Y-103343416D01*
X108744307Y-103320001D01*
X108742001Y-103296586D01*
X108742001Y-103296578D01*
X108735098Y-103226493D01*
X108707823Y-103136578D01*
X108663530Y-103053712D01*
X108603922Y-102981080D01*
X108585730Y-102966151D01*
X104812066Y-99192487D01*
X107621053Y-96383501D01*
X107652606Y-96357606D01*
X107685708Y-96317271D01*
X107755952Y-96231680D01*
X107832744Y-96088011D01*
X107832745Y-96088010D01*
X107872942Y-95955499D01*
X109125944Y-97208501D01*
X109220315Y-97285951D01*
X109363985Y-97362743D01*
X109519875Y-97410032D01*
X109681995Y-97425999D01*
X109816240Y-97412777D01*
X109840823Y-97458768D01*
X109858002Y-97479701D01*
X109858001Y-99922557D01*
X109854242Y-99960721D01*
X109858001Y-99998884D01*
X109858001Y-99998886D01*
X109869244Y-100113039D01*
X109913674Y-100259504D01*
X109985824Y-100394487D01*
X110033204Y-100452220D01*
X110082921Y-100512801D01*
X110112570Y-100537133D01*
X112312872Y-102737436D01*
X112337200Y-102767080D01*
X112366844Y-102791408D01*
X112366845Y-102791409D01*
X112455513Y-102864177D01*
X112521969Y-102899698D01*
X112590496Y-102936327D01*
X112736961Y-102980757D01*
X112851114Y-102992000D01*
X112851116Y-102992000D01*
X112889280Y-102995759D01*
X112927443Y-102992000D01*
X114271497Y-102992000D01*
X114396878Y-103030034D01*
X114518374Y-103042000D01*
X115575624Y-103042000D01*
X115697120Y-103030034D01*
X115853010Y-102982745D01*
X115996679Y-102905952D01*
X116122606Y-102802606D01*
X116225952Y-102676679D01*
X116302745Y-102533010D01*
X116350034Y-102377120D01*
X116361234Y-102263397D01*
X123483000Y-102263397D01*
X123483000Y-102406603D01*
X123510938Y-102547058D01*
X123565741Y-102679364D01*
X123645302Y-102798436D01*
X123746564Y-102899698D01*
X123865636Y-102979259D01*
X123997942Y-103034062D01*
X124138397Y-103062000D01*
X124281603Y-103062000D01*
X124422058Y-103034062D01*
X124554364Y-102979259D01*
X124673436Y-102899698D01*
X124774698Y-102798436D01*
X124854259Y-102679364D01*
X124909062Y-102547058D01*
X124937000Y-102406603D01*
X124937000Y-102263397D01*
X124909062Y-102122942D01*
X124854259Y-101990636D01*
X124774698Y-101871564D01*
X124687000Y-101783866D01*
X124687000Y-96835577D01*
X125710578Y-95812000D01*
X132728866Y-95812000D01*
X132816564Y-95899698D01*
X132935636Y-95979259D01*
X133067942Y-96034062D01*
X133208397Y-96062000D01*
X133351603Y-96062000D01*
X133492058Y-96034062D01*
X133624364Y-95979259D01*
X133743436Y-95899698D01*
X133844698Y-95798436D01*
X133924259Y-95679364D01*
X133979062Y-95547058D01*
X134007000Y-95406603D01*
X134007000Y-95263397D01*
X133979062Y-95122942D01*
X133924259Y-94990636D01*
X133844698Y-94871564D01*
X133743436Y-94770302D01*
X133624364Y-94690741D01*
X133492058Y-94635938D01*
X133351603Y-94608000D01*
X133208397Y-94608000D01*
X133067942Y-94635938D01*
X132935636Y-94690741D01*
X132816564Y-94770302D01*
X132728866Y-94858000D01*
X125536412Y-94858000D01*
X125512997Y-94855694D01*
X125489582Y-94858000D01*
X125489575Y-94858000D01*
X125428336Y-94864032D01*
X125419489Y-94864903D01*
X125397531Y-94871564D01*
X125329575Y-94892178D01*
X125246709Y-94936471D01*
X125174077Y-94996079D01*
X125159147Y-95014271D01*
X123889271Y-96284148D01*
X123871080Y-96299077D01*
X123811472Y-96371709D01*
X123809272Y-96375825D01*
X123767178Y-96454576D01*
X123739903Y-96544491D01*
X123730694Y-96637998D01*
X123733001Y-96661423D01*
X123733000Y-101783866D01*
X123645302Y-101871564D01*
X123565741Y-101990636D01*
X123510938Y-102122942D01*
X123483000Y-102263397D01*
X116361234Y-102263397D01*
X116366001Y-102215000D01*
X116350034Y-102052880D01*
X116302745Y-101896990D01*
X116225952Y-101753321D01*
X116122606Y-101627394D01*
X115996679Y-101524048D01*
X115853010Y-101447255D01*
X115697120Y-101399966D01*
X115575624Y-101388000D01*
X114518374Y-101388000D01*
X114396878Y-101399966D01*
X114271497Y-101438000D01*
X113211124Y-101438000D01*
X111412001Y-99638878D01*
X111412001Y-97171759D01*
X111415759Y-97133603D01*
X111412001Y-97095448D01*
X111412001Y-97095438D01*
X111400758Y-96981285D01*
X111356328Y-96834820D01*
X111284178Y-96699838D01*
X111187081Y-96581524D01*
X111157431Y-96557191D01*
X111102812Y-96502572D01*
X111078479Y-96472922D01*
X110960165Y-96375825D01*
X110825183Y-96303675D01*
X110678718Y-96259245D01*
X110564565Y-96248002D01*
X110564562Y-96248002D01*
X110526399Y-96244243D01*
X110519859Y-96244887D01*
X107892000Y-93617029D01*
X107892000Y-90014376D01*
X107880034Y-89892880D01*
X107832745Y-89736990D01*
X107755952Y-89593321D01*
X107652606Y-89467394D01*
X107526678Y-89364048D01*
X107383009Y-89287255D01*
X107227119Y-89239966D01*
X107065000Y-89223999D01*
X106902880Y-89239966D01*
X106746990Y-89287255D01*
X106603321Y-89364048D01*
X106477394Y-89467394D01*
X106374048Y-89593322D01*
X106297255Y-89736991D01*
X106249966Y-89892881D01*
X106238000Y-90014377D01*
X106238001Y-93937382D01*
X106234000Y-93978003D01*
X106238001Y-94018624D01*
X106238001Y-95427445D01*
X103333952Y-98331495D01*
X103302394Y-98357394D01*
X103199048Y-98483321D01*
X103122255Y-98626990D01*
X103074966Y-98782880D01*
X103058999Y-98945000D01*
X103074966Y-99107120D01*
X103122255Y-99263010D01*
X103199048Y-99406679D01*
X103302394Y-99532606D01*
X103428321Y-99635952D01*
X103571990Y-99712745D01*
X103727880Y-99760034D01*
X103849376Y-99772000D01*
X103849386Y-99772000D01*
X103890000Y-99776000D01*
X103930614Y-99772000D01*
X103930624Y-99772000D01*
X104032397Y-99761976D01*
X107788002Y-103517582D01*
X107788002Y-104997528D01*
X107622519Y-104886956D01*
X107408318Y-104798231D01*
X107180924Y-104753000D01*
X106949076Y-104753000D01*
X106721682Y-104798231D01*
X106507481Y-104886956D01*
X106314706Y-105015764D01*
X106150764Y-105179706D01*
X106021956Y-105372481D01*
X105933231Y-105586682D01*
X105888000Y-105814076D01*
X105888000Y-106045924D01*
X105933231Y-106273318D01*
X106021956Y-106487519D01*
X106150764Y-106680294D01*
X106314706Y-106844236D01*
X106507481Y-106973044D01*
X106721682Y-107061769D01*
X106949076Y-107107000D01*
X107180924Y-107107000D01*
X107342181Y-107074924D01*
X106413106Y-108004000D01*
X106368007Y-108004000D01*
X106359698Y-107991564D01*
X106258436Y-107890302D01*
X106139364Y-107810741D01*
X106007058Y-107755938D01*
X105866603Y-107728000D01*
X105723397Y-107728000D01*
X105582942Y-107755938D01*
X105450636Y-107810741D01*
X105331564Y-107890302D01*
X105230302Y-107991564D01*
X105150741Y-108110636D01*
X105095938Y-108242942D01*
X105068000Y-108383397D01*
X105068000Y-108526603D01*
X105095938Y-108667058D01*
X105150741Y-108799364D01*
X105226670Y-108913000D01*
X96459154Y-108913000D01*
X95363000Y-107816847D01*
X95363000Y-106780000D01*
X95416928Y-106780000D01*
X95429188Y-106904482D01*
X95465498Y-107024180D01*
X95524463Y-107134494D01*
X95603815Y-107231185D01*
X95700506Y-107310537D01*
X95810820Y-107369502D01*
X95930518Y-107405812D01*
X96055000Y-107418072D01*
X96619250Y-107415000D01*
X96778000Y-107256250D01*
X96778000Y-106057000D01*
X95578750Y-106057000D01*
X95420000Y-106215750D01*
X95416928Y-106780000D01*
X95363000Y-106780000D01*
X95363000Y-105080000D01*
X95416928Y-105080000D01*
X95420000Y-105644250D01*
X95578750Y-105803000D01*
X96778000Y-105803000D01*
X96778000Y-104603750D01*
X97032000Y-104603750D01*
X97032000Y-105803000D01*
X97052000Y-105803000D01*
X97052000Y-106057000D01*
X97032000Y-106057000D01*
X97032000Y-107256250D01*
X97190750Y-107415000D01*
X97755000Y-107418072D01*
X97879482Y-107405812D01*
X97999180Y-107369502D01*
X98109494Y-107310537D01*
X98206185Y-107231185D01*
X98285537Y-107134494D01*
X98344502Y-107024180D01*
X98380812Y-106904482D01*
X98393072Y-106780000D01*
X98391340Y-106461890D01*
X98401956Y-106487519D01*
X98530764Y-106680294D01*
X98694706Y-106844236D01*
X98887481Y-106973044D01*
X99101682Y-107061769D01*
X99329076Y-107107000D01*
X99560924Y-107107000D01*
X99788318Y-107061769D01*
X100002519Y-106973044D01*
X100195294Y-106844236D01*
X100359236Y-106680294D01*
X100488044Y-106487519D01*
X100576769Y-106273318D01*
X100622000Y-106045924D01*
X100622000Y-105814076D01*
X100808000Y-105814076D01*
X100808000Y-106045924D01*
X100853231Y-106273318D01*
X100941956Y-106487519D01*
X101070764Y-106680294D01*
X101234706Y-106844236D01*
X101427481Y-106973044D01*
X101641682Y-107061769D01*
X101869076Y-107107000D01*
X102100924Y-107107000D01*
X102328318Y-107061769D01*
X102542519Y-106973044D01*
X102735294Y-106844236D01*
X102899236Y-106680294D01*
X103028044Y-106487519D01*
X103116769Y-106273318D01*
X103162000Y-106045924D01*
X103162000Y-105814076D01*
X103348000Y-105814076D01*
X103348000Y-106045924D01*
X103393231Y-106273318D01*
X103481956Y-106487519D01*
X103610764Y-106680294D01*
X103774706Y-106844236D01*
X103967481Y-106973044D01*
X104181682Y-107061769D01*
X104409076Y-107107000D01*
X104640924Y-107107000D01*
X104868318Y-107061769D01*
X105082519Y-106973044D01*
X105275294Y-106844236D01*
X105439236Y-106680294D01*
X105568044Y-106487519D01*
X105656769Y-106273318D01*
X105702000Y-106045924D01*
X105702000Y-105814076D01*
X105656769Y-105586682D01*
X105568044Y-105372481D01*
X105439236Y-105179706D01*
X105275294Y-105015764D01*
X105082519Y-104886956D01*
X104868318Y-104798231D01*
X104640924Y-104753000D01*
X104409076Y-104753000D01*
X104181682Y-104798231D01*
X103967481Y-104886956D01*
X103774706Y-105015764D01*
X103610764Y-105179706D01*
X103481956Y-105372481D01*
X103393231Y-105586682D01*
X103348000Y-105814076D01*
X103162000Y-105814076D01*
X103116769Y-105586682D01*
X103028044Y-105372481D01*
X102899236Y-105179706D01*
X102735294Y-105015764D01*
X102542519Y-104886956D01*
X102328318Y-104798231D01*
X102100924Y-104753000D01*
X101869076Y-104753000D01*
X101641682Y-104798231D01*
X101427481Y-104886956D01*
X101234706Y-105015764D01*
X101070764Y-105179706D01*
X100941956Y-105372481D01*
X100853231Y-105586682D01*
X100808000Y-105814076D01*
X100622000Y-105814076D01*
X100576769Y-105586682D01*
X100488044Y-105372481D01*
X100359236Y-105179706D01*
X100195294Y-105015764D01*
X100002519Y-104886956D01*
X99788318Y-104798231D01*
X99560924Y-104753000D01*
X99329076Y-104753000D01*
X99101682Y-104798231D01*
X98887481Y-104886956D01*
X98694706Y-105015764D01*
X98530764Y-105179706D01*
X98401956Y-105372481D01*
X98391340Y-105398110D01*
X98393072Y-105080000D01*
X98380812Y-104955518D01*
X98344502Y-104835820D01*
X98285537Y-104725506D01*
X98206185Y-104628815D01*
X98109494Y-104549463D01*
X97999180Y-104490498D01*
X97879482Y-104454188D01*
X97755000Y-104441928D01*
X97190750Y-104445000D01*
X97032000Y-104603750D01*
X96778000Y-104603750D01*
X96619250Y-104445000D01*
X96055000Y-104441928D01*
X95930518Y-104454188D01*
X95810820Y-104490498D01*
X95700506Y-104549463D01*
X95603815Y-104628815D01*
X95524463Y-104725506D01*
X95465498Y-104835820D01*
X95429188Y-104955518D01*
X95416928Y-105080000D01*
X95363000Y-105080000D01*
X95363000Y-93755256D01*
X98909400Y-93755256D01*
X98909400Y-94115144D01*
X98979611Y-94468116D01*
X99117334Y-94800609D01*
X99317276Y-95099845D01*
X99571755Y-95354324D01*
X99870991Y-95554266D01*
X100203484Y-95691989D01*
X100556456Y-95762200D01*
X100916344Y-95762200D01*
X101269316Y-95691989D01*
X101601809Y-95554266D01*
X101901045Y-95354324D01*
X102155524Y-95099845D01*
X102355466Y-94800609D01*
X102493189Y-94468116D01*
X102563400Y-94115144D01*
X102563400Y-93755256D01*
X102493189Y-93402284D01*
X102355466Y-93069791D01*
X102155524Y-92770555D01*
X101901045Y-92516076D01*
X101601809Y-92316134D01*
X101269316Y-92178411D01*
X100916344Y-92108200D01*
X100556456Y-92108200D01*
X100203484Y-92178411D01*
X99870991Y-92316134D01*
X99571755Y-92516076D01*
X99317276Y-92770555D01*
X99117334Y-93069791D01*
X98979611Y-93402284D01*
X98909400Y-93755256D01*
X95363000Y-93755256D01*
X95363000Y-89199053D01*
X96526998Y-88035056D01*
X107408000Y-88035056D01*
X107408000Y-88394944D01*
X107478211Y-88747916D01*
X107615934Y-89080409D01*
X107815876Y-89379645D01*
X108070355Y-89634124D01*
X108369591Y-89834066D01*
X108702084Y-89971789D01*
X109055056Y-90042000D01*
X109414944Y-90042000D01*
X109767916Y-89971789D01*
X110100409Y-89834066D01*
X110399645Y-89634124D01*
X110654124Y-89379645D01*
X110854066Y-89080409D01*
X110991789Y-88747916D01*
X111062000Y-88394944D01*
X111062000Y-88035056D01*
X110991789Y-87682084D01*
X110910178Y-87485056D01*
X132883000Y-87485056D01*
X132883000Y-87844944D01*
X132953211Y-88197916D01*
X133090934Y-88530409D01*
X133290876Y-88829645D01*
X133545355Y-89084124D01*
X133844591Y-89284066D01*
X134177084Y-89421789D01*
X134530056Y-89492000D01*
X134889944Y-89492000D01*
X135242916Y-89421789D01*
X135575409Y-89284066D01*
X135874645Y-89084124D01*
X136129124Y-88829645D01*
X136329066Y-88530409D01*
X136466789Y-88197916D01*
X136537000Y-87844944D01*
X136537000Y-87485056D01*
X136466789Y-87132084D01*
X136329066Y-86799591D01*
X136129124Y-86500355D01*
X135874645Y-86245876D01*
X135575409Y-86045934D01*
X135242916Y-85908211D01*
X134889944Y-85838000D01*
X134530056Y-85838000D01*
X134177084Y-85908211D01*
X133844591Y-86045934D01*
X133545355Y-86245876D01*
X133290876Y-86500355D01*
X133090934Y-86799591D01*
X132953211Y-87132084D01*
X132883000Y-87485056D01*
X110910178Y-87485056D01*
X110854066Y-87349591D01*
X110654124Y-87050355D01*
X110399645Y-86795876D01*
X110100409Y-86595934D01*
X109767916Y-86458211D01*
X109414944Y-86388000D01*
X109055056Y-86388000D01*
X108702084Y-86458211D01*
X108369591Y-86595934D01*
X108070355Y-86795876D01*
X107815876Y-87050355D01*
X107615934Y-87349591D01*
X107478211Y-87682084D01*
X107408000Y-88035056D01*
X96526998Y-88035056D01*
X96949058Y-87612997D01*
X96980606Y-87587106D01*
X97006496Y-87555559D01*
X97006503Y-87555552D01*
X97083952Y-87461180D01*
X97160745Y-87317511D01*
X97192885Y-87211558D01*
X97208034Y-87161620D01*
X97224001Y-86999500D01*
X97208034Y-86837380D01*
X97160745Y-86681490D01*
X97083952Y-86537820D01*
X96980606Y-86411894D01*
X96854680Y-86308548D01*
X96711010Y-86231755D01*
X96555120Y-86184466D01*
X96433624Y-86172500D01*
X96433614Y-86172500D01*
X96393000Y-86168500D01*
X96352386Y-86172500D01*
X96352376Y-86172500D01*
X96230880Y-86184466D01*
X96122278Y-86217410D01*
X96074989Y-86231755D01*
X95931320Y-86308548D01*
X95836948Y-86385997D01*
X95836941Y-86386004D01*
X95805394Y-86411894D01*
X95779503Y-86443442D01*
X93979952Y-88242995D01*
X93948394Y-88268894D01*
X93922498Y-88300449D01*
X93845048Y-88394821D01*
X93804002Y-88471614D01*
X93768255Y-88538491D01*
X93720966Y-88694381D01*
X93709000Y-88815877D01*
X93709000Y-88815886D01*
X93705000Y-88856500D01*
X89812000Y-88856500D01*
X89812000Y-84155600D01*
X101259618Y-84155600D01*
X101259618Y-85855600D01*
X101265932Y-85919703D01*
X101284630Y-85981343D01*
X101314994Y-86038150D01*
X101355857Y-86087943D01*
X101405650Y-86128806D01*
X101462457Y-86159170D01*
X101524097Y-86177868D01*
X101588200Y-86184182D01*
X103288200Y-86184182D01*
X103352303Y-86177868D01*
X103413943Y-86159170D01*
X103470750Y-86128806D01*
X103520543Y-86087943D01*
X103561406Y-86038150D01*
X103591770Y-85981343D01*
X103610468Y-85919703D01*
X103616782Y-85855600D01*
X103616782Y-85588192D01*
X103634043Y-85636852D01*
X103783022Y-85886955D01*
X103977931Y-86103188D01*
X104211280Y-86277241D01*
X104474101Y-86402425D01*
X104621310Y-86447076D01*
X104851200Y-86325755D01*
X104851200Y-85132600D01*
X105105200Y-85132600D01*
X105105200Y-86325755D01*
X105335090Y-86447076D01*
X105482299Y-86402425D01*
X105745120Y-86277241D01*
X105978469Y-86103188D01*
X106173378Y-85886955D01*
X106322357Y-85636852D01*
X106419681Y-85362491D01*
X106299014Y-85132600D01*
X105105200Y-85132600D01*
X104851200Y-85132600D01*
X104831200Y-85132600D01*
X104831200Y-84878600D01*
X104851200Y-84878600D01*
X104851200Y-83685445D01*
X105105200Y-83685445D01*
X105105200Y-84878600D01*
X106299014Y-84878600D01*
X106419681Y-84648709D01*
X106322357Y-84374348D01*
X106173378Y-84124245D01*
X105978469Y-83908012D01*
X105780108Y-83760056D01*
X136108000Y-83760056D01*
X136108000Y-84119944D01*
X136178211Y-84472916D01*
X136315934Y-84805409D01*
X136515876Y-85104645D01*
X136770355Y-85359124D01*
X137069591Y-85559066D01*
X137402084Y-85696789D01*
X137755056Y-85767000D01*
X138114944Y-85767000D01*
X138467916Y-85696789D01*
X138800409Y-85559066D01*
X139099645Y-85359124D01*
X139354124Y-85104645D01*
X139554066Y-84805409D01*
X139691789Y-84472916D01*
X139762000Y-84119944D01*
X139762000Y-83760056D01*
X139691789Y-83407084D01*
X139554066Y-83074591D01*
X139354124Y-82775355D01*
X139099645Y-82520876D01*
X138800409Y-82320934D01*
X138467916Y-82183211D01*
X138114944Y-82113000D01*
X137755056Y-82113000D01*
X137402084Y-82183211D01*
X137069591Y-82320934D01*
X136770355Y-82520876D01*
X136515876Y-82775355D01*
X136315934Y-83074591D01*
X136178211Y-83407084D01*
X136108000Y-83760056D01*
X105780108Y-83760056D01*
X105745120Y-83733959D01*
X105482299Y-83608775D01*
X105335090Y-83564124D01*
X105105200Y-83685445D01*
X104851200Y-83685445D01*
X104621310Y-83564124D01*
X104474101Y-83608775D01*
X104211280Y-83733959D01*
X103977931Y-83908012D01*
X103783022Y-84124245D01*
X103634043Y-84374348D01*
X103616782Y-84423008D01*
X103616782Y-84155600D01*
X103610468Y-84091497D01*
X103591770Y-84029857D01*
X103561406Y-83973050D01*
X103520543Y-83923257D01*
X103470750Y-83882394D01*
X103413943Y-83852030D01*
X103352303Y-83833332D01*
X103288200Y-83827018D01*
X101588200Y-83827018D01*
X101524097Y-83833332D01*
X101462457Y-83852030D01*
X101405650Y-83882394D01*
X101355857Y-83923257D01*
X101314994Y-83973050D01*
X101284630Y-84029857D01*
X101265932Y-84091497D01*
X101259618Y-84155600D01*
X89812000Y-84155600D01*
X89812000Y-80362000D01*
X141585200Y-80362000D01*
X141585201Y-121492783D01*
G37*
%TD.AperFunction*%
%TD*%
M02*
