%TF.GenerationSoftware,KiCad,Pcbnew,(5.1.8)-1*%
%TF.CreationDate,2021-01-16T00:41:07+01:00*%
%TF.ProjectId,Microwave_LO_Generator,4d696372-6f77-4617-9665-5f4c4f5f4765,rev?*%
%TF.SameCoordinates,Original*%
%TF.FileFunction,Soldermask,Bot*%
%TF.FilePolarity,Negative*%
%FSLAX46Y46*%
G04 Gerber Fmt 4.6, Leading zero omitted, Abs format (unit mm)*
G04 Created by KiCad (PCBNEW (5.1.8)-1) date 2021-01-16 00:41:07*
%MOMM*%
%LPD*%
G01*
G04 APERTURE LIST*
%ADD10C,0.100000*%
%ADD11C,1.030000*%
%ADD12C,2.630000*%
%ADD13O,2.130000X2.130000*%
%ADD14C,3.430000*%
%ADD15C,1.230000*%
%ADD16C,0.930000*%
G04 APERTURE END LIST*
D10*
%TO.C,J5*%
G36*
X141900000Y-93210002D02*
G01*
X141900000Y-106710002D01*
X136400000Y-106710002D01*
X136400000Y-93210002D01*
X141900000Y-93210002D01*
G37*
%TO.C,J4*%
G36*
X140734999Y-121805001D02*
G01*
X127234999Y-121805001D01*
X127234999Y-116305001D01*
X140734999Y-116305001D01*
X140734999Y-121805001D01*
G37*
%TO.C,J5*%
G36*
X141900000Y-93210002D02*
G01*
X141900000Y-106710002D01*
X136400000Y-106710002D01*
X136400000Y-93210002D01*
X141900000Y-93210002D01*
G37*
%TO.C,J4*%
G36*
X140734999Y-121805001D02*
G01*
X127234999Y-121805001D01*
X127234999Y-116305001D01*
X140734999Y-116305001D01*
X140734999Y-121805001D01*
G37*
%TD*%
D11*
%TO.C,J5*%
X136840000Y-98745002D03*
X136840000Y-99215002D03*
X137310000Y-98745002D03*
X137310000Y-99215002D03*
X137780000Y-98745002D03*
X137780000Y-99215002D03*
X138250000Y-98745002D03*
X138250000Y-99215002D03*
X138720000Y-98745002D03*
X138720000Y-99215002D03*
X139190000Y-98745002D03*
X139190000Y-99215002D03*
X139660000Y-98275002D03*
X139660000Y-98745002D03*
X139660000Y-99215002D03*
X140130000Y-97805002D03*
X140130000Y-98275002D03*
X140130000Y-98745002D03*
X140130000Y-99215002D03*
X140600000Y-97335002D03*
X140600000Y-97805002D03*
X140600000Y-98275002D03*
X140600000Y-98745002D03*
X140600000Y-99215002D03*
X141070000Y-96865002D03*
X141070000Y-97335002D03*
X141070000Y-97805002D03*
X141070000Y-98275002D03*
X141070000Y-98745002D03*
X141070000Y-99215002D03*
X141540000Y-99215002D03*
X141540000Y-98745002D03*
X141540000Y-98275002D03*
X141540000Y-97805002D03*
X141540000Y-97335002D03*
X141540000Y-96865002D03*
X136840000Y-100710002D03*
X136840000Y-101180002D03*
X137310000Y-100710002D03*
X137310000Y-101180002D03*
X137780000Y-100710002D03*
X137780000Y-101180002D03*
X138250000Y-100710002D03*
X138250000Y-101180002D03*
X138720000Y-100710002D03*
X138720000Y-101180002D03*
X139190000Y-100710002D03*
X139190000Y-101180002D03*
X139660000Y-100710002D03*
X139660000Y-101180002D03*
X139660000Y-101650002D03*
X140130000Y-100710002D03*
X140130000Y-101180002D03*
X140130000Y-101650002D03*
X140130000Y-102120002D03*
X140600000Y-100710002D03*
X140600000Y-101180002D03*
X140600000Y-101650002D03*
X140600000Y-102120002D03*
X140600000Y-102590002D03*
X141070000Y-100710002D03*
X141070000Y-101180002D03*
X141070000Y-101650002D03*
X141070000Y-102120002D03*
X141070000Y-102590002D03*
X141070000Y-103060002D03*
X141540000Y-100710002D03*
X141540000Y-101180002D03*
X141540000Y-101650002D03*
X141540000Y-102120002D03*
X141540000Y-102590002D03*
X141540000Y-103060002D03*
X141540000Y-103530002D03*
X141540000Y-96395002D03*
D12*
X139360000Y-95205002D03*
X139360000Y-104720002D03*
%TD*%
D11*
%TO.C,J4*%
X135199999Y-116745001D03*
X134729999Y-116745001D03*
X135199999Y-117215001D03*
X134729999Y-117215001D03*
X135199999Y-117685001D03*
X134729999Y-117685001D03*
X135199999Y-118155001D03*
X134729999Y-118155001D03*
X135199999Y-118625001D03*
X134729999Y-118625001D03*
X135199999Y-119095001D03*
X134729999Y-119095001D03*
X135669999Y-119565001D03*
X135199999Y-119565001D03*
X134729999Y-119565001D03*
X136139999Y-120035001D03*
X135669999Y-120035001D03*
X135199999Y-120035001D03*
X134729999Y-120035001D03*
X136609999Y-120505001D03*
X136139999Y-120505001D03*
X135669999Y-120505001D03*
X135199999Y-120505001D03*
X134729999Y-120505001D03*
X137079999Y-120975001D03*
X136609999Y-120975001D03*
X136139999Y-120975001D03*
X135669999Y-120975001D03*
X135199999Y-120975001D03*
X134729999Y-120975001D03*
X134729999Y-121445001D03*
X135199999Y-121445001D03*
X135669999Y-121445001D03*
X136139999Y-121445001D03*
X136609999Y-121445001D03*
X137079999Y-121445001D03*
X133234999Y-116745001D03*
X132764999Y-116745001D03*
X133234999Y-117215001D03*
X132764999Y-117215001D03*
X133234999Y-117685001D03*
X132764999Y-117685001D03*
X133234999Y-118155001D03*
X132764999Y-118155001D03*
X133234999Y-118625001D03*
X132764999Y-118625001D03*
X133234999Y-119095001D03*
X132764999Y-119095001D03*
X133234999Y-119565001D03*
X132764999Y-119565001D03*
X132294999Y-119565001D03*
X133234999Y-120035001D03*
X132764999Y-120035001D03*
X132294999Y-120035001D03*
X131824999Y-120035001D03*
X133234999Y-120505001D03*
X132764999Y-120505001D03*
X132294999Y-120505001D03*
X131824999Y-120505001D03*
X131354999Y-120505001D03*
X133234999Y-120975001D03*
X132764999Y-120975001D03*
X132294999Y-120975001D03*
X131824999Y-120975001D03*
X131354999Y-120975001D03*
X130884999Y-120975001D03*
X133234999Y-121445001D03*
X132764999Y-121445001D03*
X132294999Y-121445001D03*
X131824999Y-121445001D03*
X131354999Y-121445001D03*
X130884999Y-121445001D03*
X130414999Y-121445001D03*
X137549999Y-121445001D03*
D12*
X138739999Y-119265001D03*
X129224999Y-119265001D03*
%TD*%
D13*
%TO.C,J3*%
X104978200Y-85005600D03*
G36*
G01*
X103288200Y-86070600D02*
X101588200Y-86070600D01*
G75*
G02*
X101373200Y-85855600I0J215000D01*
G01*
X101373200Y-84155600D01*
G75*
G02*
X101588200Y-83940600I215000J0D01*
G01*
X103288200Y-83940600D01*
G75*
G02*
X103503200Y-84155600I0J-215000D01*
G01*
X103503200Y-85855600D01*
G75*
G02*
X103288200Y-86070600I-215000J0D01*
G01*
G37*
%TD*%
%TO.C,J2*%
X104500000Y-116995000D03*
G36*
G01*
X102810000Y-118060000D02*
X101110000Y-118060000D01*
G75*
G02*
X100895000Y-117845000I0J215000D01*
G01*
X100895000Y-116145000D01*
G75*
G02*
X101110000Y-115930000I215000J0D01*
G01*
X102810000Y-115930000D01*
G75*
G02*
X103025000Y-116145000I0J-215000D01*
G01*
X103025000Y-117845000D01*
G75*
G02*
X102810000Y-118060000I-215000J0D01*
G01*
G37*
%TD*%
%TO.C,J1*%
X107065000Y-105930000D03*
X104525000Y-105930000D03*
X101985000Y-105930000D03*
X99445000Y-105930000D03*
G36*
G01*
X97755000Y-106995000D02*
X96055000Y-106995000D01*
G75*
G02*
X95840000Y-106780000I0J215000D01*
G01*
X95840000Y-105080000D01*
G75*
G02*
X96055000Y-104865000I215000J0D01*
G01*
X97755000Y-104865000D01*
G75*
G02*
X97970000Y-105080000I0J-215000D01*
G01*
X97970000Y-106780000D01*
G75*
G02*
X97755000Y-106995000I-215000J0D01*
G01*
G37*
%TD*%
D14*
%TO.C,TP1*%
X100736400Y-93935200D03*
%TD*%
%TO.C,TP3*%
X110180120Y-116363400D03*
%TD*%
%TO.C,TP4*%
X134710000Y-87665000D03*
%TD*%
%TO.C,TP5*%
X121574560Y-107199080D03*
%TD*%
%TO.C,TP6*%
X109235000Y-88215000D03*
%TD*%
D15*
%TO.C,U1*%
X108335000Y-98945000D03*
X108335000Y-100195000D03*
X109585000Y-98945000D03*
X108335000Y-97695000D03*
X107085000Y-98945000D03*
X107085000Y-100195000D03*
X107085000Y-97695000D03*
X109585000Y-97695000D03*
X109585000Y-100195000D03*
%TD*%
D16*
%TO.C,U6*%
X132735000Y-98715000D03*
X132735000Y-99215000D03*
X133735000Y-99215000D03*
X135235000Y-99215000D03*
X134735000Y-99215000D03*
X133235000Y-99715000D03*
X134235000Y-99715000D03*
X134735000Y-100215000D03*
X133735000Y-100215000D03*
X132735000Y-100215000D03*
X133235000Y-100715000D03*
X134235000Y-100715000D03*
X135235000Y-100715000D03*
X134735000Y-101215000D03*
X133735000Y-101215000D03*
X132735000Y-101215000D03*
X133235000Y-101715000D03*
X134735000Y-101715000D03*
%TD*%
D14*
%TO.C,TP2*%
X117510000Y-115630001D03*
%TD*%
D10*
G36*
X134273971Y-101176761D02*
G01*
X134274239Y-101177761D01*
X134274239Y-101260379D01*
X134291947Y-101349400D01*
X134326680Y-101433252D01*
X134347150Y-101463889D01*
X134347150Y-101466111D01*
X134326680Y-101496748D01*
X134291947Y-101580600D01*
X134290817Y-101586280D01*
X134289498Y-101587784D01*
X134287536Y-101587394D01*
X134286865Y-101585694D01*
X134288394Y-101570176D01*
X134286368Y-101549599D01*
X134280363Y-101529806D01*
X134270615Y-101511568D01*
X134257497Y-101495583D01*
X134241512Y-101482464D01*
X134223274Y-101472716D01*
X134203482Y-101466712D01*
X134182905Y-101464685D01*
X134162328Y-101466711D01*
X134142535Y-101472716D01*
X134124297Y-101482464D01*
X134108312Y-101495582D01*
X134098413Y-101507644D01*
X134096541Y-101508348D01*
X134094995Y-101507079D01*
X134095204Y-101505264D01*
X134143320Y-101433252D01*
X134178053Y-101349400D01*
X134195761Y-101260379D01*
X134195761Y-101177761D01*
X134196761Y-101176029D01*
X134197761Y-101175761D01*
X134272239Y-101175761D01*
X134273971Y-101176761D01*
G37*
G36*
X132518739Y-100624145D02*
G01*
X132600600Y-100658053D01*
X132689621Y-100675761D01*
X132772239Y-100675761D01*
X132773971Y-100676761D01*
X132774239Y-100677761D01*
X132774239Y-100752239D01*
X132773239Y-100753971D01*
X132772239Y-100754239D01*
X132689621Y-100754239D01*
X132600600Y-100771947D01*
X132518739Y-100805855D01*
X132516756Y-100805594D01*
X132515991Y-100803746D01*
X132516705Y-100802461D01*
X132532386Y-100789593D01*
X132545505Y-100773608D01*
X132555253Y-100755370D01*
X132561257Y-100735578D01*
X132563284Y-100715001D01*
X132561258Y-100694424D01*
X132555253Y-100674631D01*
X132545505Y-100656393D01*
X132532387Y-100640408D01*
X132516705Y-100627539D01*
X132516001Y-100625667D01*
X132517269Y-100624121D01*
X132518739Y-100624145D01*
G37*
G36*
X107625515Y-99898714D02*
G01*
X107635408Y-99910769D01*
X107651393Y-99923888D01*
X107669631Y-99933636D01*
X107689423Y-99939640D01*
X107710000Y-99941667D01*
X107730577Y-99939640D01*
X107750369Y-99933636D01*
X107768607Y-99923888D01*
X107784592Y-99910769D01*
X107794485Y-99898714D01*
X107796357Y-99898010D01*
X107797903Y-99899278D01*
X107797694Y-99901094D01*
X107794391Y-99906038D01*
X107748406Y-100017057D01*
X107724961Y-100134918D01*
X107724961Y-100255082D01*
X107748406Y-100372943D01*
X107794391Y-100483962D01*
X107797694Y-100488906D01*
X107797825Y-100490902D01*
X107796162Y-100492013D01*
X107794485Y-100491286D01*
X107784592Y-100479231D01*
X107768607Y-100466112D01*
X107750369Y-100456364D01*
X107730577Y-100450360D01*
X107710000Y-100448333D01*
X107689423Y-100450360D01*
X107669631Y-100456364D01*
X107651393Y-100466112D01*
X107635408Y-100479231D01*
X107625515Y-100491286D01*
X107623643Y-100491990D01*
X107622097Y-100490722D01*
X107622306Y-100488906D01*
X107625609Y-100483962D01*
X107671594Y-100372943D01*
X107695039Y-100255082D01*
X107695039Y-100134918D01*
X107671594Y-100017057D01*
X107625609Y-99906038D01*
X107622306Y-99901094D01*
X107622175Y-99899098D01*
X107623838Y-99897987D01*
X107625515Y-99898714D01*
G37*
G36*
X108875515Y-99898714D02*
G01*
X108885408Y-99910769D01*
X108901393Y-99923888D01*
X108919631Y-99933636D01*
X108939423Y-99939640D01*
X108960000Y-99941667D01*
X108980577Y-99939640D01*
X109000369Y-99933636D01*
X109018607Y-99923888D01*
X109034592Y-99910769D01*
X109044485Y-99898714D01*
X109046357Y-99898010D01*
X109047903Y-99899278D01*
X109047694Y-99901094D01*
X109044391Y-99906038D01*
X108998406Y-100017057D01*
X108974961Y-100134918D01*
X108974961Y-100255082D01*
X108998406Y-100372943D01*
X109044391Y-100483962D01*
X109047694Y-100488906D01*
X109047825Y-100490902D01*
X109046162Y-100492013D01*
X109044485Y-100491286D01*
X109034592Y-100479231D01*
X109018607Y-100466112D01*
X109000369Y-100456364D01*
X108980577Y-100450360D01*
X108960000Y-100448333D01*
X108939423Y-100450360D01*
X108919631Y-100456364D01*
X108901393Y-100466112D01*
X108885408Y-100479231D01*
X108875515Y-100491286D01*
X108873643Y-100491990D01*
X108872097Y-100490722D01*
X108872306Y-100488906D01*
X108875609Y-100483962D01*
X108921594Y-100372943D01*
X108945039Y-100255082D01*
X108945039Y-100134918D01*
X108921594Y-100017057D01*
X108875609Y-99906038D01*
X108872306Y-99901094D01*
X108872175Y-99899098D01*
X108873838Y-99897987D01*
X108875515Y-99898714D01*
G37*
G36*
X135016748Y-99623320D02*
G01*
X135100600Y-99658053D01*
X135106280Y-99659183D01*
X135107784Y-99660502D01*
X135107394Y-99662464D01*
X135105694Y-99663135D01*
X135090176Y-99661606D01*
X135069599Y-99663632D01*
X135049806Y-99669637D01*
X135031568Y-99679385D01*
X135015583Y-99692503D01*
X135002464Y-99708488D01*
X134992716Y-99726726D01*
X134986712Y-99746518D01*
X134984685Y-99767095D01*
X134986711Y-99787672D01*
X134992716Y-99807465D01*
X135002464Y-99825703D01*
X135015582Y-99841688D01*
X135027644Y-99851587D01*
X135028348Y-99853459D01*
X135027079Y-99855005D01*
X135025264Y-99854796D01*
X134953252Y-99806680D01*
X134869400Y-99771947D01*
X134780379Y-99754239D01*
X134697761Y-99754239D01*
X134696029Y-99753239D01*
X134695761Y-99752239D01*
X134695761Y-99677761D01*
X134696761Y-99676029D01*
X134697761Y-99675761D01*
X134780379Y-99675761D01*
X134869400Y-99658053D01*
X134953252Y-99623320D01*
X134983889Y-99602850D01*
X134986111Y-99602850D01*
X135016748Y-99623320D01*
G37*
G36*
X132518739Y-99624145D02*
G01*
X132600600Y-99658053D01*
X132689621Y-99675761D01*
X132772239Y-99675761D01*
X132773971Y-99676761D01*
X132774239Y-99677761D01*
X132774239Y-99752239D01*
X132773239Y-99753971D01*
X132772239Y-99754239D01*
X132689621Y-99754239D01*
X132600600Y-99771947D01*
X132518739Y-99805855D01*
X132516756Y-99805594D01*
X132515991Y-99803746D01*
X132516705Y-99802461D01*
X132532386Y-99789593D01*
X132545505Y-99773608D01*
X132555253Y-99755370D01*
X132561257Y-99735578D01*
X132563284Y-99715001D01*
X132561258Y-99694424D01*
X132555253Y-99674631D01*
X132545505Y-99656393D01*
X132532387Y-99640408D01*
X132516705Y-99627539D01*
X132516001Y-99625667D01*
X132517269Y-99624121D01*
X132518739Y-99624145D01*
G37*
G36*
X108041094Y-99482306D02*
G01*
X108046038Y-99485609D01*
X108157057Y-99531594D01*
X108274918Y-99555039D01*
X108395082Y-99555039D01*
X108512943Y-99531594D01*
X108623962Y-99485609D01*
X108628906Y-99482306D01*
X108630902Y-99482175D01*
X108632013Y-99483838D01*
X108631286Y-99485515D01*
X108619231Y-99495408D01*
X108606112Y-99511393D01*
X108596364Y-99529631D01*
X108590360Y-99549423D01*
X108588333Y-99570000D01*
X108590360Y-99590577D01*
X108596364Y-99610369D01*
X108606112Y-99628607D01*
X108619231Y-99644592D01*
X108631286Y-99654485D01*
X108631990Y-99656357D01*
X108630722Y-99657903D01*
X108628906Y-99657694D01*
X108623962Y-99654391D01*
X108512943Y-99608406D01*
X108395082Y-99584961D01*
X108274918Y-99584961D01*
X108157057Y-99608406D01*
X108046038Y-99654391D01*
X108041094Y-99657694D01*
X108039098Y-99657825D01*
X108037987Y-99656162D01*
X108038714Y-99654485D01*
X108050769Y-99644592D01*
X108063888Y-99628607D01*
X108073636Y-99610369D01*
X108079640Y-99590577D01*
X108081667Y-99570000D01*
X108079640Y-99549423D01*
X108073636Y-99529631D01*
X108063888Y-99511393D01*
X108050769Y-99495408D01*
X108038714Y-99485515D01*
X108038010Y-99483643D01*
X108039278Y-99482097D01*
X108041094Y-99482306D01*
G37*
G36*
X106791094Y-99482306D02*
G01*
X106796038Y-99485609D01*
X106907057Y-99531594D01*
X107024918Y-99555039D01*
X107145082Y-99555039D01*
X107262943Y-99531594D01*
X107373962Y-99485609D01*
X107378906Y-99482306D01*
X107380902Y-99482175D01*
X107382013Y-99483838D01*
X107381286Y-99485515D01*
X107369231Y-99495408D01*
X107356112Y-99511393D01*
X107346364Y-99529631D01*
X107340360Y-99549423D01*
X107338333Y-99570000D01*
X107340360Y-99590577D01*
X107346364Y-99610369D01*
X107356112Y-99628607D01*
X107369231Y-99644592D01*
X107381286Y-99654485D01*
X107381990Y-99656357D01*
X107380722Y-99657903D01*
X107378906Y-99657694D01*
X107373962Y-99654391D01*
X107262943Y-99608406D01*
X107145082Y-99584961D01*
X107024918Y-99584961D01*
X106907057Y-99608406D01*
X106796038Y-99654391D01*
X106791094Y-99657694D01*
X106789098Y-99657825D01*
X106787987Y-99656162D01*
X106788714Y-99654485D01*
X106800769Y-99644592D01*
X106813888Y-99628607D01*
X106823636Y-99610369D01*
X106829640Y-99590577D01*
X106831667Y-99570000D01*
X106829640Y-99549423D01*
X106823636Y-99529631D01*
X106813888Y-99511393D01*
X106800769Y-99495408D01*
X106788714Y-99485515D01*
X106788010Y-99483643D01*
X106789278Y-99482097D01*
X106791094Y-99482306D01*
G37*
G36*
X109291094Y-99482306D02*
G01*
X109296038Y-99485609D01*
X109407057Y-99531594D01*
X109524918Y-99555039D01*
X109645082Y-99555039D01*
X109762943Y-99531594D01*
X109873962Y-99485609D01*
X109878906Y-99482306D01*
X109880902Y-99482175D01*
X109882013Y-99483838D01*
X109881286Y-99485515D01*
X109869231Y-99495408D01*
X109856112Y-99511393D01*
X109846364Y-99529631D01*
X109840360Y-99549423D01*
X109838333Y-99570000D01*
X109840360Y-99590577D01*
X109846364Y-99610369D01*
X109856112Y-99628607D01*
X109869231Y-99644592D01*
X109881286Y-99654485D01*
X109881990Y-99656357D01*
X109880722Y-99657903D01*
X109878906Y-99657694D01*
X109873962Y-99654391D01*
X109762943Y-99608406D01*
X109645082Y-99584961D01*
X109524918Y-99584961D01*
X109407057Y-99608406D01*
X109296038Y-99654391D01*
X109291094Y-99657694D01*
X109289098Y-99657825D01*
X109287987Y-99656162D01*
X109288714Y-99654485D01*
X109300769Y-99644592D01*
X109313888Y-99628607D01*
X109323636Y-99610369D01*
X109329640Y-99590577D01*
X109331667Y-99570000D01*
X109329640Y-99549423D01*
X109323636Y-99529631D01*
X109313888Y-99511393D01*
X109300769Y-99495408D01*
X109288714Y-99485515D01*
X109288010Y-99483643D01*
X109289278Y-99482097D01*
X109291094Y-99482306D01*
G37*
G36*
X134147539Y-98996705D02*
G01*
X134160407Y-99012386D01*
X134176392Y-99025505D01*
X134194630Y-99035253D01*
X134214422Y-99041257D01*
X134234999Y-99043284D01*
X134255576Y-99041258D01*
X134275369Y-99035253D01*
X134293607Y-99025505D01*
X134309592Y-99012387D01*
X134322461Y-98996705D01*
X134324333Y-98996001D01*
X134325879Y-98997269D01*
X134325855Y-98998739D01*
X134291947Y-99080600D01*
X134274239Y-99169621D01*
X134274239Y-99252239D01*
X134273239Y-99253971D01*
X134272239Y-99254239D01*
X134197761Y-99254239D01*
X134196029Y-99253239D01*
X134195761Y-99252239D01*
X134195761Y-99169621D01*
X134178053Y-99080600D01*
X134144145Y-98998739D01*
X134144406Y-98996756D01*
X134146254Y-98995991D01*
X134147539Y-98996705D01*
G37*
G36*
X133182464Y-98842606D02*
G01*
X133183135Y-98844306D01*
X133181606Y-98859824D01*
X133183632Y-98880401D01*
X133189637Y-98900194D01*
X133199385Y-98918432D01*
X133212503Y-98934417D01*
X133228488Y-98947536D01*
X133246726Y-98957284D01*
X133266518Y-98963288D01*
X133287095Y-98965315D01*
X133307672Y-98963289D01*
X133327465Y-98957284D01*
X133345703Y-98947536D01*
X133361688Y-98934418D01*
X133371587Y-98922356D01*
X133373459Y-98921652D01*
X133375005Y-98922921D01*
X133374796Y-98924736D01*
X133326680Y-98996748D01*
X133291947Y-99080600D01*
X133274239Y-99169621D01*
X133274239Y-99252239D01*
X133273239Y-99253971D01*
X133272239Y-99254239D01*
X133197761Y-99254239D01*
X133196029Y-99253239D01*
X133195761Y-99252239D01*
X133195761Y-99169621D01*
X133178053Y-99080600D01*
X133143320Y-98996748D01*
X133122850Y-98966111D01*
X133122850Y-98963889D01*
X133143320Y-98933252D01*
X133178053Y-98849400D01*
X133179183Y-98843720D01*
X133180502Y-98842216D01*
X133182464Y-98842606D01*
G37*
G36*
X108875515Y-98648714D02*
G01*
X108885408Y-98660769D01*
X108901393Y-98673888D01*
X108919631Y-98683636D01*
X108939423Y-98689640D01*
X108960000Y-98691667D01*
X108980577Y-98689640D01*
X109000369Y-98683636D01*
X109018607Y-98673888D01*
X109034592Y-98660769D01*
X109044485Y-98648714D01*
X109046357Y-98648010D01*
X109047903Y-98649278D01*
X109047694Y-98651094D01*
X109044391Y-98656038D01*
X108998406Y-98767057D01*
X108974961Y-98884918D01*
X108974961Y-99005082D01*
X108998406Y-99122943D01*
X109044391Y-99233962D01*
X109047694Y-99238906D01*
X109047825Y-99240902D01*
X109046162Y-99242013D01*
X109044485Y-99241286D01*
X109034592Y-99229231D01*
X109018607Y-99216112D01*
X109000369Y-99206364D01*
X108980577Y-99200360D01*
X108960000Y-99198333D01*
X108939423Y-99200360D01*
X108919631Y-99206364D01*
X108901393Y-99216112D01*
X108885408Y-99229231D01*
X108875515Y-99241286D01*
X108873643Y-99241990D01*
X108872097Y-99240722D01*
X108872306Y-99238906D01*
X108875609Y-99233962D01*
X108921594Y-99122943D01*
X108945039Y-99005082D01*
X108945039Y-98884918D01*
X108921594Y-98767057D01*
X108875609Y-98656038D01*
X108872306Y-98651094D01*
X108872175Y-98649098D01*
X108873838Y-98647987D01*
X108875515Y-98648714D01*
G37*
G36*
X107625515Y-98648714D02*
G01*
X107635408Y-98660769D01*
X107651393Y-98673888D01*
X107669631Y-98683636D01*
X107689423Y-98689640D01*
X107710000Y-98691667D01*
X107730577Y-98689640D01*
X107750369Y-98683636D01*
X107768607Y-98673888D01*
X107784592Y-98660769D01*
X107794485Y-98648714D01*
X107796357Y-98648010D01*
X107797903Y-98649278D01*
X107797694Y-98651094D01*
X107794391Y-98656038D01*
X107748406Y-98767057D01*
X107724961Y-98884918D01*
X107724961Y-99005082D01*
X107748406Y-99122943D01*
X107794391Y-99233962D01*
X107797694Y-99238906D01*
X107797825Y-99240902D01*
X107796162Y-99242013D01*
X107794485Y-99241286D01*
X107784592Y-99229231D01*
X107768607Y-99216112D01*
X107750369Y-99206364D01*
X107730577Y-99200360D01*
X107710000Y-99198333D01*
X107689423Y-99200360D01*
X107669631Y-99206364D01*
X107651393Y-99216112D01*
X107635408Y-99229231D01*
X107625515Y-99241286D01*
X107623643Y-99241990D01*
X107622097Y-99240722D01*
X107622306Y-99238906D01*
X107625609Y-99233962D01*
X107671594Y-99122943D01*
X107695039Y-99005082D01*
X107695039Y-98884918D01*
X107671594Y-98767057D01*
X107625609Y-98656038D01*
X107622306Y-98651094D01*
X107622175Y-98649098D01*
X107623838Y-98647987D01*
X107625515Y-98648714D01*
G37*
G36*
X108041094Y-98232306D02*
G01*
X108046038Y-98235609D01*
X108157057Y-98281594D01*
X108274918Y-98305039D01*
X108395082Y-98305039D01*
X108512943Y-98281594D01*
X108623962Y-98235609D01*
X108628906Y-98232306D01*
X108630902Y-98232175D01*
X108632013Y-98233838D01*
X108631286Y-98235515D01*
X108619231Y-98245408D01*
X108606112Y-98261393D01*
X108596364Y-98279631D01*
X108590360Y-98299423D01*
X108588333Y-98320000D01*
X108590360Y-98340577D01*
X108596364Y-98360369D01*
X108606112Y-98378607D01*
X108619231Y-98394592D01*
X108631286Y-98404485D01*
X108631990Y-98406357D01*
X108630722Y-98407903D01*
X108628906Y-98407694D01*
X108623962Y-98404391D01*
X108512943Y-98358406D01*
X108395082Y-98334961D01*
X108274918Y-98334961D01*
X108157057Y-98358406D01*
X108046038Y-98404391D01*
X108041094Y-98407694D01*
X108039098Y-98407825D01*
X108037987Y-98406162D01*
X108038714Y-98404485D01*
X108050769Y-98394592D01*
X108063888Y-98378607D01*
X108073636Y-98360369D01*
X108079640Y-98340577D01*
X108081667Y-98320000D01*
X108079640Y-98299423D01*
X108073636Y-98279631D01*
X108063888Y-98261393D01*
X108050769Y-98245408D01*
X108038714Y-98235515D01*
X108038010Y-98233643D01*
X108039278Y-98232097D01*
X108041094Y-98232306D01*
G37*
G36*
X106791094Y-98232306D02*
G01*
X106796038Y-98235609D01*
X106907057Y-98281594D01*
X107024918Y-98305039D01*
X107145082Y-98305039D01*
X107262943Y-98281594D01*
X107373962Y-98235609D01*
X107378906Y-98232306D01*
X107380902Y-98232175D01*
X107382013Y-98233838D01*
X107381286Y-98235515D01*
X107369231Y-98245408D01*
X107356112Y-98261393D01*
X107346364Y-98279631D01*
X107340360Y-98299423D01*
X107338333Y-98320000D01*
X107340360Y-98340577D01*
X107346364Y-98360369D01*
X107356112Y-98378607D01*
X107369231Y-98394592D01*
X107381286Y-98404485D01*
X107381990Y-98406357D01*
X107380722Y-98407903D01*
X107378906Y-98407694D01*
X107373962Y-98404391D01*
X107262943Y-98358406D01*
X107145082Y-98334961D01*
X107024918Y-98334961D01*
X106907057Y-98358406D01*
X106796038Y-98404391D01*
X106791094Y-98407694D01*
X106789098Y-98407825D01*
X106787987Y-98406162D01*
X106788714Y-98404485D01*
X106800769Y-98394592D01*
X106813888Y-98378607D01*
X106823636Y-98360369D01*
X106829640Y-98340577D01*
X106831667Y-98320000D01*
X106829640Y-98299423D01*
X106823636Y-98279631D01*
X106813888Y-98261393D01*
X106800769Y-98245408D01*
X106788714Y-98235515D01*
X106788010Y-98233643D01*
X106789278Y-98232097D01*
X106791094Y-98232306D01*
G37*
G36*
X109291094Y-98232306D02*
G01*
X109296038Y-98235609D01*
X109407057Y-98281594D01*
X109524918Y-98305039D01*
X109645082Y-98305039D01*
X109762943Y-98281594D01*
X109873962Y-98235609D01*
X109878906Y-98232306D01*
X109880902Y-98232175D01*
X109882013Y-98233838D01*
X109881286Y-98235515D01*
X109869231Y-98245408D01*
X109856112Y-98261393D01*
X109846364Y-98279631D01*
X109840360Y-98299423D01*
X109838333Y-98320000D01*
X109840360Y-98340577D01*
X109846364Y-98360369D01*
X109856112Y-98378607D01*
X109869231Y-98394592D01*
X109881286Y-98404485D01*
X109881990Y-98406357D01*
X109880722Y-98407903D01*
X109878906Y-98407694D01*
X109873962Y-98404391D01*
X109762943Y-98358406D01*
X109645082Y-98334961D01*
X109524918Y-98334961D01*
X109407057Y-98358406D01*
X109296038Y-98404391D01*
X109291094Y-98407694D01*
X109289098Y-98407825D01*
X109287987Y-98406162D01*
X109288714Y-98404485D01*
X109300769Y-98394592D01*
X109313888Y-98378607D01*
X109323636Y-98360369D01*
X109329640Y-98340577D01*
X109331667Y-98320000D01*
X109329640Y-98299423D01*
X109323636Y-98279631D01*
X109313888Y-98261393D01*
X109300769Y-98245408D01*
X109288714Y-98235515D01*
X109288010Y-98233643D01*
X109289278Y-98232097D01*
X109291094Y-98232306D01*
G37*
G36*
X107625515Y-97398714D02*
G01*
X107635408Y-97410769D01*
X107651393Y-97423888D01*
X107669631Y-97433636D01*
X107689423Y-97439640D01*
X107710000Y-97441667D01*
X107730577Y-97439640D01*
X107750369Y-97433636D01*
X107768607Y-97423888D01*
X107784592Y-97410769D01*
X107794485Y-97398714D01*
X107796357Y-97398010D01*
X107797903Y-97399278D01*
X107797694Y-97401094D01*
X107794391Y-97406038D01*
X107748406Y-97517057D01*
X107724961Y-97634918D01*
X107724961Y-97755082D01*
X107748406Y-97872943D01*
X107794391Y-97983962D01*
X107797694Y-97988906D01*
X107797825Y-97990902D01*
X107796162Y-97992013D01*
X107794485Y-97991286D01*
X107784592Y-97979231D01*
X107768607Y-97966112D01*
X107750369Y-97956364D01*
X107730577Y-97950360D01*
X107710000Y-97948333D01*
X107689423Y-97950360D01*
X107669631Y-97956364D01*
X107651393Y-97966112D01*
X107635408Y-97979231D01*
X107625515Y-97991286D01*
X107623643Y-97991990D01*
X107622097Y-97990722D01*
X107622306Y-97988906D01*
X107625609Y-97983962D01*
X107671594Y-97872943D01*
X107695039Y-97755082D01*
X107695039Y-97634918D01*
X107671594Y-97517057D01*
X107625609Y-97406038D01*
X107622306Y-97401094D01*
X107622175Y-97399098D01*
X107623838Y-97397987D01*
X107625515Y-97398714D01*
G37*
G36*
X108875515Y-97398714D02*
G01*
X108885408Y-97410769D01*
X108901393Y-97423888D01*
X108919631Y-97433636D01*
X108939423Y-97439640D01*
X108960000Y-97441667D01*
X108980577Y-97439640D01*
X109000369Y-97433636D01*
X109018607Y-97423888D01*
X109034592Y-97410769D01*
X109044485Y-97398714D01*
X109046357Y-97398010D01*
X109047903Y-97399278D01*
X109047694Y-97401094D01*
X109044391Y-97406038D01*
X108998406Y-97517057D01*
X108974961Y-97634918D01*
X108974961Y-97755082D01*
X108998406Y-97872943D01*
X109044391Y-97983962D01*
X109047694Y-97988906D01*
X109047825Y-97990902D01*
X109046162Y-97992013D01*
X109044485Y-97991286D01*
X109034592Y-97979231D01*
X109018607Y-97966112D01*
X109000369Y-97956364D01*
X108980577Y-97950360D01*
X108960000Y-97948333D01*
X108939423Y-97950360D01*
X108919631Y-97956364D01*
X108901393Y-97966112D01*
X108885408Y-97979231D01*
X108875515Y-97991286D01*
X108873643Y-97991990D01*
X108872097Y-97990722D01*
X108872306Y-97988906D01*
X108875609Y-97983962D01*
X108921594Y-97872943D01*
X108945039Y-97755082D01*
X108945039Y-97634918D01*
X108921594Y-97517057D01*
X108875609Y-97406038D01*
X108872306Y-97401094D01*
X108872175Y-97399098D01*
X108873838Y-97397987D01*
X108875515Y-97398714D01*
G37*
M02*
