M48
; DRILL file {KiCad (5.1.8)-1} date 01/15/21 01:55:55
; FORMAT={-:-/ absolute / inch / decimal}
; #@! TF.CreationDate,2021-01-15T01:55:55+01:00
; #@! TF.GenerationSoftware,Kicad,Pcbnew,(5.1.8)-1
FMAT,2
INCH
T1C0.0079
T2C0.0118
T3C0.0157
T4C0.0394
T5C0.0630
T6C0.0748
T7C0.0787
%
G90
G05
T1
X4.4211Y-3.799
X4.4327Y-3.918
X4.4349Y-3.8152
X5.0585Y-4.0537
X5.0978Y-4.0931
X5.1372Y-4.0537
X5.1879Y-4.0227
X5.1923Y-4.065
X5.2219Y-4.0945
X5.3262Y-4.0945
X5.3411Y-3.7443
X5.3577Y-4.065
X5.3797Y-3.7805
X5.3813Y-3.8207
X5.2258Y-3.8864
X5.2258Y-3.9061
X5.2258Y-3.9455
X5.2258Y-3.9848
X5.2455Y-3.9258
X5.2455Y-3.9652
X5.2455Y-4.0045
X5.2652Y-3.9061
X5.2652Y-3.9455
X5.2652Y-3.9848
X5.2848Y-3.9258
X5.2848Y-3.9652
X5.3045Y-3.9061
X5.3045Y-3.9455
X5.3045Y-3.9848
X5.3045Y-4.0045
X5.3242Y-3.9061
X5.3242Y-3.9652
T2
X4.4199Y-3.777
X4.4559Y-3.8142
X4.4559Y-3.8327
X4.4559Y-3.8961
X4.4559Y-3.9146
X4.4744Y-3.8142
X4.4744Y-3.8327
X4.4744Y-3.8961
X4.4744Y-3.9146
X4.4929Y-3.8142
X4.4929Y-3.8327
X4.4929Y-3.8961
X4.4929Y-3.9146
X4.5114Y-3.8142
X4.5114Y-3.8327
X4.5114Y-3.8961
X4.5114Y-3.9146
X4.5299Y-3.8142
X4.5299Y-3.8327
X4.5299Y-3.8961
X4.5299Y-3.9146
X4.5484Y-3.8142
X4.5484Y-3.8327
X4.5484Y-3.8961
X4.5484Y-3.9146
X4.5669Y-3.8142
X4.5669Y-3.8327
X4.5669Y-3.8961
X4.5669Y-3.9146
X4.5854Y-3.8142
X4.5854Y-3.8327
X4.5854Y-3.8961
X4.5854Y-3.9146
X4.6039Y-3.8142
X4.6039Y-3.8327
X4.604Y-3.8962
X4.604Y-3.9147
X4.6224Y-3.8142
X4.6224Y-3.8327
X4.6225Y-3.8962
X4.6225Y-3.9147
X4.6409Y-3.8142
X4.6409Y-3.8327
X4.6411Y-3.8962
X4.6411Y-3.9147
X4.6594Y-3.8142
X4.6594Y-3.8327
X4.6596Y-3.8962
X4.6596Y-3.9147
X4.678Y-3.8142
X4.678Y-3.8327
X4.678Y-3.898
X4.678Y-3.9165
X4.6965Y-3.8142
X4.6965Y-3.8327
X4.6965Y-3.8961
X4.6965Y-3.9146
X4.715Y-3.8142
X4.715Y-3.8327
X4.715Y-3.8961
X4.715Y-3.9146
X4.7335Y-3.8142
X4.7335Y-3.8327
X4.7335Y-3.8961
X4.7335Y-3.9146
X4.752Y-3.8142
X4.752Y-3.8327
X4.752Y-3.8961
X4.752Y-3.9146
X4.7705Y-3.8142
X4.7705Y-3.8327
X4.7705Y-3.8961
X4.7705Y-3.9146
X4.789Y-3.8142
X4.789Y-3.8327
X4.789Y-3.8961
X4.789Y-3.9146
X4.8075Y-3.8142
X4.8075Y-3.8327
X4.8075Y-3.8961
X4.8075Y-3.9146
X4.826Y-3.8142
X4.826Y-3.8327
X4.826Y-3.8961
X4.826Y-3.9146
X4.8445Y-3.8142
X4.8445Y-3.8327
X4.8445Y-3.8961
X4.8445Y-3.9146
X4.863Y-3.8142
X4.863Y-3.8327
X4.863Y-3.8961
X4.863Y-3.9146
X4.9185Y-3.8142
X4.9185Y-3.8327
X4.9185Y-3.8961
X4.9185Y-3.9146
X4.937Y-3.8142
X4.937Y-3.8327
X4.937Y-3.8961
X4.937Y-3.9146
X4.9555Y-3.8142
X4.9555Y-3.8142
X4.9555Y-3.8327
X4.9555Y-3.8327
X4.9555Y-3.8961
X4.9555Y-3.9146
X4.974Y-3.8142
X4.974Y-3.8327
X4.974Y-3.8961
X4.974Y-3.9146
X4.9925Y-3.8142
X4.9925Y-3.8327
X4.9925Y-3.8961
X4.9925Y-3.9146
X5.011Y-3.8142
X5.011Y-3.8327
X5.011Y-3.9146
X5.011Y-3.9331
X5.0295Y-3.8142
X5.0295Y-3.8327
X5.0295Y-3.9331
X5.0295Y-3.9516
X5.048Y-3.8327
X5.048Y-3.8512
X5.048Y-3.9516
X5.048Y-3.9701
X5.0665Y-3.8512
X5.0665Y-3.8697
X5.0665Y-3.9516
X5.0665Y-3.9701
X5.085Y-3.8697
X5.085Y-3.8882
X5.085Y-3.9516
X5.085Y-3.9701
X5.1035Y-3.8697
X5.1035Y-3.8882
X5.1035Y-3.9516
X5.1035Y-3.9701
X5.122Y-3.8697
X5.122Y-3.8882
X5.1406Y-3.8697
X5.1406Y-3.8882
X5.172Y-4.0407
X5.172Y-4.0593
X5.172Y-4.0778
X5.1906Y-4.0963
X5.2091Y-4.1148
X5.2276Y-4.1148
X5.2276Y-4.1333
X5.2276Y-4.1518
X5.2276Y-4.1703
X5.2276Y-4.1888
X5.2276Y-4.2073
X5.2276Y-4.2258
X5.2276Y-4.2443
X5.2276Y-4.2628
X5.2276Y-4.2813
X5.2276Y-4.2998
X5.2276Y-4.3183
X5.2276Y-4.3368
X5.2276Y-4.3553
X5.2276Y-4.3738
X5.2276Y-4.3923
X5.2276Y-4.4108
X5.2276Y-4.4293
X5.2276Y-4.4478
X5.2276Y-4.4663
X5.2276Y-4.4848
X5.2276Y-4.5033
X5.2276Y-4.5219
X5.2276Y-4.5404
X5.2276Y-4.5589
X5.2276Y-4.5774
X5.2461Y-4.1148
X5.2461Y-4.1333
X5.2461Y-4.1518
X5.2461Y-4.1703
X5.2461Y-4.1888
X5.2461Y-4.2073
X5.2461Y-4.2258
X5.2461Y-4.2443
X5.2461Y-4.2443
X5.2461Y-4.2628
X5.2461Y-4.2813
X5.2461Y-4.2998
X5.2461Y-4.3183
X5.2461Y-4.3368
X5.2461Y-4.3553
X5.2461Y-4.3738
X5.2461Y-4.3923
X5.2461Y-4.4108
X5.2461Y-4.4293
X5.2461Y-4.4478
X5.2461Y-4.4663
X5.2461Y-4.4848
X5.2461Y-4.5033
X5.2461Y-4.5219
X5.2461Y-4.5404
X5.2461Y-4.5589
X5.2461Y-4.5774
X5.3035Y-4.1148
X5.3035Y-4.1333
X5.3035Y-4.1518
X5.3035Y-4.1703
X5.3035Y-4.1888
X5.3035Y-4.2073
X5.3035Y-4.2258
X5.3035Y-4.2443
X5.3035Y-4.2628
X5.3035Y-4.2813
X5.3035Y-4.2998
X5.3035Y-4.3183
X5.3035Y-4.3368
X5.3035Y-4.3553
X5.3035Y-4.3738
X5.3035Y-4.3923
X5.3035Y-4.4108
X5.3035Y-4.4293
X5.3035Y-4.4478
X5.3035Y-4.4663
X5.3035Y-4.4848
X5.3035Y-4.5033
X5.3035Y-4.5219
X5.3035Y-4.5404
X5.3035Y-4.5589
X5.3035Y-4.5774
X5.322Y-4.1148
X5.322Y-4.1333
X5.322Y-4.1518
X5.322Y-4.1703
X5.322Y-4.1888
X5.322Y-4.2073
X5.322Y-4.2258
X5.322Y-4.2443
X5.322Y-4.2628
X5.322Y-4.2813
X5.322Y-4.2998
X5.322Y-4.3183
X5.322Y-4.3368
X5.322Y-4.3553
X5.322Y-4.3738
X5.322Y-4.3923
X5.322Y-4.4108
X5.322Y-4.4293
X5.322Y-4.4478
X5.322Y-4.4663
X5.322Y-4.4848
X5.322Y-4.5033
X5.322Y-4.5219
X5.322Y-4.5404
X5.322Y-4.5589
X5.322Y-4.5774
X5.3406Y-4.0222
X5.3406Y-4.1148
X5.3591Y-4.0407
X5.3591Y-4.0963
X5.3776Y-4.0593
X5.3776Y-4.0778
X5.1344Y-4.7813
X5.153Y-4.7628
X5.153Y-4.7813
X5.1715Y-4.7443
X5.1715Y-4.7628
X5.1715Y-4.7813
X5.19Y-4.7258
X5.19Y-4.7443
X5.19Y-4.7628
X5.19Y-4.7813
X5.2085Y-4.7073
X5.2085Y-4.7258
X5.2085Y-4.7443
X5.2085Y-4.7628
X5.2085Y-4.7813
X5.227Y-4.5963
X5.227Y-4.6148
X5.227Y-4.6333
X5.227Y-4.6518
X5.227Y-4.6703
X5.227Y-4.6888
X5.227Y-4.7073
X5.227Y-4.7258
X5.227Y-4.7443
X5.227Y-4.7628
X5.227Y-4.7813
X5.2455Y-4.5963
X5.2455Y-4.6148
X5.2455Y-4.6333
X5.2455Y-4.6518
X5.2455Y-4.6703
X5.2455Y-4.6888
X5.2455Y-4.7073
X5.2455Y-4.7258
X5.2455Y-4.7443
X5.2455Y-4.7628
X5.2455Y-4.7813
X5.3043Y-4.5963
X5.3043Y-4.6148
X5.3043Y-4.6333
X5.3043Y-4.6518
X5.3043Y-4.6703
X5.3043Y-4.6888
X5.3043Y-4.7073
X5.3043Y-4.7258
X5.3043Y-4.7443
X5.3043Y-4.7628
X5.3043Y-4.7813
X5.3228Y-4.5963
X5.3228Y-4.6148
X5.3228Y-4.6333
X5.3228Y-4.6518
X5.3228Y-4.6703
X5.3228Y-4.6888
X5.3228Y-4.7073
X5.3228Y-4.7258
X5.3228Y-4.7443
X5.3228Y-4.7628
X5.3228Y-4.7813
X5.3413Y-4.7073
X5.3413Y-4.7258
X5.3413Y-4.7443
X5.3413Y-4.7628
X5.3413Y-4.7813
X5.3598Y-4.7258
X5.3598Y-4.7443
X5.3598Y-4.7628
X5.3598Y-4.7813
X5.3783Y-4.7443
X5.3783Y-4.7628
X5.3783Y-4.7813
X5.3969Y-4.7628
X5.3969Y-4.7813
X5.4154Y-4.7813
X5.3874Y-3.8876
X5.3874Y-3.9061
X5.3874Y-3.965
X5.3874Y-3.9835
X5.4059Y-3.8876
X5.4059Y-3.9061
X5.4059Y-3.965
X5.4059Y-3.9835
X5.4244Y-3.8876
X5.4244Y-3.9061
X5.4244Y-3.965
X5.4244Y-3.9835
X5.4429Y-3.8876
X5.4429Y-3.9061
X5.4429Y-3.965
X5.4429Y-3.9835
X5.4614Y-3.8876
X5.4614Y-3.9061
X5.4614Y-3.965
X5.4614Y-3.9835
X5.4799Y-3.8876
X5.4799Y-3.9061
X5.4799Y-3.965
X5.4799Y-3.9835
X5.4984Y-3.8691
X5.4984Y-3.8876
X5.4984Y-3.9061
X5.4984Y-3.965
X5.4984Y-3.9835
X5.4984Y-4.002
X5.5169Y-3.8506
X5.5169Y-3.8691
X5.5169Y-3.8876
X5.5169Y-3.9061
X5.5169Y-3.965
X5.5169Y-3.9835
X5.5169Y-4.002
X5.5169Y-4.0205
X5.5354Y-3.8321
X5.5354Y-3.8506
X5.5354Y-3.8691
X5.5354Y-3.8876
X5.5354Y-3.9061
X5.5354Y-3.965
X5.5354Y-3.9835
X5.5354Y-4.002
X5.5354Y-4.0205
X5.5354Y-4.039
X5.5539Y-3.8136
X5.5539Y-3.8321
X5.5539Y-3.8506
X5.5539Y-3.8691
X5.5539Y-3.8876
X5.5539Y-3.9061
X5.5539Y-3.965
X5.5539Y-3.9835
X5.5539Y-4.002
X5.5539Y-4.0205
X5.5539Y-4.039
X5.5539Y-4.0575
X5.5724Y-3.7951
X5.5724Y-3.8136
X5.5724Y-3.8321
X5.5724Y-3.8506
X5.5724Y-3.8691
X5.5724Y-3.8876
X5.5724Y-3.9061
X5.5724Y-3.965
X5.5724Y-3.9835
X5.5724Y-4.002
X5.5724Y-4.0205
X5.5724Y-4.039
X5.5724Y-4.0575
X5.5724Y-4.076
T3
X3.795Y-3.4252
X3.8281Y-3.6699
X4.025Y-4.3785
X4.0659Y-3.9364
X4.0902Y-3.8955
X4.1167Y-3.7156
X4.1652Y-4.2699
X4.2152Y-3.5455
X4.3579Y-3.7785
X4.3923Y-4.1195
X4.4795Y-3.6352
X4.5102Y-3.9461
X4.5486Y-4.0242
X4.7701Y-4.1086
X4.8902Y-4.0289
X4.9108Y-4.4376
X5.1094Y-3.6943
X5.1465Y-4.3364
X5.1615Y-3.3995
X5.2472Y-3.7533
X4.2159Y-3.8463
X4.2159Y-3.8955
X4.2159Y-3.9447
X4.2652Y-3.8463
X4.2652Y-3.8955
X4.2652Y-3.9447
X4.3144Y-3.8463
X4.3144Y-3.8955
X4.3144Y-3.9447
T4
X4.0142Y-4.6061
X4.1142Y-4.6061
X4.033Y-3.3467
X4.133Y-3.3467
X3.8152Y-4.1705
X3.9152Y-4.1705
X4.0152Y-4.1705
X4.1152Y-4.1705
X4.2152Y-4.1705
T5
X4.7864Y-4.2204
X5.3035Y-3.4514
X4.6264Y-4.5524
X4.3006Y-3.473
X4.3378Y-4.5812
X3.966Y-3.6982
T6
X5.0876Y-4.6955
X5.4622Y-4.6955
X5.4866Y-3.7482
X5.4866Y-4.1228
T7
X3.6785Y-4.6415
X5.4305Y-3.3047
T0
M30
