%TF.GenerationSoftware,KiCad,Pcbnew,(5.1.8)-1*%
%TF.CreationDate,2021-01-16T00:41:06+01:00*%
%TF.ProjectId,Microwave_LO_Generator,4d696372-6f77-4617-9665-5f4c4f5f4765,rev?*%
%TF.SameCoordinates,Original*%
%TF.FileFunction,Copper,L4,Bot*%
%TF.FilePolarity,Positive*%
%FSLAX46Y46*%
G04 Gerber Fmt 4.6, Leading zero omitted, Abs format (unit mm)*
G04 Created by KiCad (PCBNEW (5.1.8)-1) date 2021-01-16 00:41:06*
%MOMM*%
%LPD*%
G01*
G04 APERTURE LIST*
%TA.AperFunction,ComponentPad*%
%ADD10C,0.600000*%
%TD*%
%TA.AperFunction,ComponentPad*%
%ADD11C,2.200000*%
%TD*%
%TA.AperFunction,ComponentPad*%
%ADD12O,1.700000X1.700000*%
%TD*%
%TA.AperFunction,ComponentPad*%
%ADD13R,1.700000X1.700000*%
%TD*%
%TA.AperFunction,ComponentPad*%
%ADD14C,3.000000*%
%TD*%
%TA.AperFunction,ComponentPad*%
%ADD15C,0.800000*%
%TD*%
%TA.AperFunction,SMDPad,CuDef*%
%ADD16R,2.700000X2.700000*%
%TD*%
%TA.AperFunction,ComponentPad*%
%ADD17C,0.500000*%
%TD*%
%TA.AperFunction,ViaPad*%
%ADD18C,3.000000*%
%TD*%
%TA.AperFunction,ViaPad*%
%ADD19C,0.800000*%
%TD*%
%TA.AperFunction,ViaPad*%
%ADD20C,0.500000*%
%TD*%
%TA.AperFunction,ViaPad*%
%ADD21C,0.600000*%
%TD*%
%TA.AperFunction,Conductor*%
%ADD22C,0.254000*%
%TD*%
%TA.AperFunction,Conductor*%
%ADD23C,0.100000*%
%TD*%
G04 APERTURE END LIST*
D10*
%TO.P,J5,2*%
%TO.N,0*%
X136840000Y-98745002D03*
X136840000Y-99215002D03*
X137310000Y-98745002D03*
X137310000Y-99215002D03*
X137780000Y-98745002D03*
X137780000Y-99215002D03*
X138250000Y-98745002D03*
X138250000Y-99215002D03*
X138720000Y-98745002D03*
X138720000Y-99215002D03*
X139190000Y-98745002D03*
X139190000Y-99215002D03*
X139660000Y-98275002D03*
X139660000Y-98745002D03*
X139660000Y-99215002D03*
X140130000Y-97805002D03*
X140130000Y-98275002D03*
X140130000Y-98745002D03*
X140130000Y-99215002D03*
X140600000Y-97335002D03*
X140600000Y-97805002D03*
X140600000Y-98275002D03*
X140600000Y-98745002D03*
X140600000Y-99215002D03*
X141070000Y-96865002D03*
X141070000Y-97335002D03*
X141070000Y-97805002D03*
X141070000Y-98275002D03*
X141070000Y-98745002D03*
X141070000Y-99215002D03*
X141540000Y-99215002D03*
X141540000Y-98745002D03*
X141540000Y-98275002D03*
X141540000Y-97805002D03*
X141540000Y-97335002D03*
X141540000Y-96865002D03*
X136840000Y-100710002D03*
X136840000Y-101180002D03*
X137310000Y-100710002D03*
X137310000Y-101180002D03*
X137780000Y-100710002D03*
X137780000Y-101180002D03*
X138250000Y-100710002D03*
X138250000Y-101180002D03*
X138720000Y-100710002D03*
X138720000Y-101180002D03*
X139190000Y-100710002D03*
X139190000Y-101180002D03*
X139660000Y-100710002D03*
X139660000Y-101180002D03*
X139660000Y-101650002D03*
X140130000Y-100710002D03*
X140130000Y-101180002D03*
X140130000Y-101650002D03*
X140130000Y-102120002D03*
X140600000Y-100710002D03*
X140600000Y-101180002D03*
X140600000Y-101650002D03*
X140600000Y-102120002D03*
X140600000Y-102590002D03*
X141070000Y-100710002D03*
X141070000Y-101180002D03*
X141070000Y-101650002D03*
X141070000Y-102120002D03*
X141070000Y-102590002D03*
X141070000Y-103060002D03*
X141540000Y-100710002D03*
X141540000Y-101180002D03*
X141540000Y-101650002D03*
X141540000Y-102120002D03*
X141540000Y-102590002D03*
X141540000Y-103060002D03*
X141540000Y-103530002D03*
X141540000Y-96395002D03*
D11*
X139360000Y-95205002D03*
X139360000Y-104720002D03*
%TD*%
D10*
%TO.P,J4,2*%
%TO.N,0*%
X135199999Y-116745001D03*
X134729999Y-116745001D03*
X135199999Y-117215001D03*
X134729999Y-117215001D03*
X135199999Y-117685001D03*
X134729999Y-117685001D03*
X135199999Y-118155001D03*
X134729999Y-118155001D03*
X135199999Y-118625001D03*
X134729999Y-118625001D03*
X135199999Y-119095001D03*
X134729999Y-119095001D03*
X135669999Y-119565001D03*
X135199999Y-119565001D03*
X134729999Y-119565001D03*
X136139999Y-120035001D03*
X135669999Y-120035001D03*
X135199999Y-120035001D03*
X134729999Y-120035001D03*
X136609999Y-120505001D03*
X136139999Y-120505001D03*
X135669999Y-120505001D03*
X135199999Y-120505001D03*
X134729999Y-120505001D03*
X137079999Y-120975001D03*
X136609999Y-120975001D03*
X136139999Y-120975001D03*
X135669999Y-120975001D03*
X135199999Y-120975001D03*
X134729999Y-120975001D03*
X134729999Y-121445001D03*
X135199999Y-121445001D03*
X135669999Y-121445001D03*
X136139999Y-121445001D03*
X136609999Y-121445001D03*
X137079999Y-121445001D03*
X133234999Y-116745001D03*
X132764999Y-116745001D03*
X133234999Y-117215001D03*
X132764999Y-117215001D03*
X133234999Y-117685001D03*
X132764999Y-117685001D03*
X133234999Y-118155001D03*
X132764999Y-118155001D03*
X133234999Y-118625001D03*
X132764999Y-118625001D03*
X133234999Y-119095001D03*
X132764999Y-119095001D03*
X133234999Y-119565001D03*
X132764999Y-119565001D03*
X132294999Y-119565001D03*
X133234999Y-120035001D03*
X132764999Y-120035001D03*
X132294999Y-120035001D03*
X131824999Y-120035001D03*
X133234999Y-120505001D03*
X132764999Y-120505001D03*
X132294999Y-120505001D03*
X131824999Y-120505001D03*
X131354999Y-120505001D03*
X133234999Y-120975001D03*
X132764999Y-120975001D03*
X132294999Y-120975001D03*
X131824999Y-120975001D03*
X131354999Y-120975001D03*
X130884999Y-120975001D03*
X133234999Y-121445001D03*
X132764999Y-121445001D03*
X132294999Y-121445001D03*
X131824999Y-121445001D03*
X131354999Y-121445001D03*
X130884999Y-121445001D03*
X130414999Y-121445001D03*
X137549999Y-121445001D03*
D11*
X138739999Y-119265001D03*
X129224999Y-119265001D03*
%TD*%
D12*
%TO.P,J3,2*%
%TO.N,0*%
X104978200Y-85005600D03*
D13*
%TO.P,J3,1*%
%TO.N,+6V*%
X102438200Y-85005600D03*
%TD*%
D12*
%TO.P,J2,2*%
%TO.N,0*%
X104500000Y-116995000D03*
D13*
%TO.P,J2,1*%
%TO.N,+12V*%
X101960000Y-116995000D03*
%TD*%
D12*
%TO.P,J1,5*%
%TO.N,Net-(J1-Pad5)*%
X107065000Y-105930000D03*
%TO.P,J1,4*%
%TO.N,Net-(J1-Pad4)*%
X104525000Y-105930000D03*
%TO.P,J1,3*%
%TO.N,Net-(J1-Pad3)*%
X101985000Y-105930000D03*
%TO.P,J1,2*%
%TO.N,Net-(J1-Pad2)*%
X99445000Y-105930000D03*
D13*
%TO.P,J1,1*%
%TO.N,0*%
X96905000Y-105930000D03*
%TD*%
D14*
%TO.P,TP1,1*%
%TO.N,Net-(R2-Pad1)*%
X100736400Y-93935200D03*
%TD*%
%TO.P,TP3,1*%
%TO.N,+9V*%
X110180120Y-116363400D03*
%TD*%
%TO.P,TP4,1*%
%TO.N,+5VA*%
X134710000Y-87665000D03*
%TD*%
%TO.P,TP5,1*%
%TO.N,+5VD*%
X121574560Y-107199080D03*
%TD*%
%TO.P,TP6,1*%
%TO.N,+3V3*%
X109235000Y-88215000D03*
%TD*%
D15*
%TO.P,U1,1*%
%TO.N,0*%
X108335000Y-98945000D03*
X108335000Y-100195000D03*
X109585000Y-98945000D03*
X108335000Y-97695000D03*
X107085000Y-98945000D03*
X107085000Y-100195000D03*
X107085000Y-97695000D03*
X109585000Y-97695000D03*
X109585000Y-100195000D03*
%TD*%
D16*
%TO.P,U6,11*%
%TO.N,0*%
X133735000Y-100215000D03*
D17*
X132735000Y-98715000D03*
X132735000Y-99215000D03*
X133735000Y-99215000D03*
X135235000Y-99215000D03*
X134735000Y-99215000D03*
X133235000Y-99715000D03*
X134235000Y-99715000D03*
X134735000Y-100215000D03*
X133735000Y-100215000D03*
X132735000Y-100215000D03*
X133235000Y-100715000D03*
X134235000Y-100715000D03*
X135235000Y-100715000D03*
X134735000Y-101215000D03*
X133735000Y-101215000D03*
X132735000Y-101215000D03*
X133235000Y-101715000D03*
X134735000Y-101715000D03*
%TD*%
D14*
%TO.P,TP2,1*%
%TO.N,0*%
X117510000Y-115630001D03*
%TD*%
D18*
%TO.N,*%
X93435000Y-117895000D03*
X137935000Y-83940000D03*
D19*
%TO.N,+3V3*%
X115535000Y-102215000D03*
X107065000Y-90055000D03*
X103890000Y-98945000D03*
X105795000Y-108455000D03*
%TO.N,CPout*%
X124210000Y-102335000D03*
X133280000Y-95335000D03*
D20*
%TO.N,0*%
X112645520Y-96906480D03*
X112295000Y-96495000D03*
D19*
X113780000Y-92335000D03*
D21*
X131370000Y-102635000D03*
X136590000Y-103105000D03*
X136590000Y-103575000D03*
X130100000Y-98760000D03*
X129630000Y-98760000D03*
X129160000Y-98760000D03*
D20*
X136085000Y-103250000D03*
X135285000Y-104000000D03*
D21*
X133250000Y-107335000D03*
X133250000Y-107805000D03*
X133250000Y-108745000D03*
X133250000Y-107805000D03*
X133250000Y-108275000D03*
X133250000Y-109215000D03*
X133250000Y-110155000D03*
X133250000Y-109685000D03*
X133250000Y-110625000D03*
X133250000Y-111095000D03*
X133250000Y-111565000D03*
X133250000Y-112035000D03*
X133250000Y-112505000D03*
X133250000Y-112975000D03*
X133250000Y-113445000D03*
X133250000Y-113915000D03*
X133250000Y-114385000D03*
X133250000Y-114855000D03*
X133250000Y-115325000D03*
X133250000Y-115795000D03*
X133250000Y-116265000D03*
X132780000Y-116265000D03*
X132780000Y-115795000D03*
X132780000Y-115325000D03*
X132780000Y-114385000D03*
X132780000Y-114855000D03*
X132780000Y-113915000D03*
X132780000Y-113445000D03*
X132780000Y-112975000D03*
X132780000Y-112505000D03*
X132780000Y-112035000D03*
X132780000Y-111565000D03*
X132780000Y-110625000D03*
X132780000Y-111095000D03*
X132780000Y-110155000D03*
X132780000Y-109685000D03*
X132780000Y-109215000D03*
X132780000Y-108745000D03*
X132780000Y-108275000D03*
X132780000Y-107805000D03*
X132780000Y-107335000D03*
X134710000Y-116265000D03*
X134710000Y-115795000D03*
X134710000Y-115325000D03*
X134710000Y-114855000D03*
X134710000Y-114385000D03*
X134710000Y-113915000D03*
X134710000Y-112975000D03*
X134710000Y-113445000D03*
X134710000Y-112505000D03*
X134710000Y-111565000D03*
X134710000Y-112035000D03*
X134710000Y-111095000D03*
X134710000Y-110625000D03*
X134710000Y-110155000D03*
X134710000Y-109685000D03*
X134710000Y-108745000D03*
X134710000Y-109215000D03*
X134710000Y-107805000D03*
X134710000Y-108275000D03*
X134710000Y-107335000D03*
X135180000Y-107335000D03*
X135180000Y-107805000D03*
X135180000Y-108275000D03*
X135180000Y-109215000D03*
X135180000Y-108745000D03*
X135180000Y-109685000D03*
X135180000Y-110155000D03*
X135180000Y-110625000D03*
X135180000Y-111095000D03*
X135180000Y-111565000D03*
X135180000Y-112035000D03*
X135180000Y-112505000D03*
X135180000Y-113445000D03*
X135180000Y-112975000D03*
X135180000Y-113915000D03*
X135180000Y-114385000D03*
X135180000Y-114855000D03*
X135180000Y-115325000D03*
X135180000Y-115795000D03*
X135180000Y-116265000D03*
D20*
X131885000Y-103250000D03*
X132635000Y-104000000D03*
D21*
X130570000Y-98760000D03*
X130570000Y-98290000D03*
X130100000Y-98290000D03*
X129630000Y-98290000D03*
X129160000Y-98290000D03*
X128690000Y-98290000D03*
X128690000Y-97820000D03*
X128220000Y-97820000D03*
X128220000Y-97350000D03*
X127750000Y-97350000D03*
X127280000Y-97350000D03*
X126810000Y-97350000D03*
X126340000Y-97350000D03*
X125870000Y-97350000D03*
X125870000Y-97350000D03*
X125400000Y-97350000D03*
X124930000Y-97350000D03*
X124930000Y-96880000D03*
X125400000Y-96880000D03*
X125870000Y-96880000D03*
X125870000Y-96880000D03*
X126340000Y-96880000D03*
X126810000Y-96880000D03*
X127280000Y-96880000D03*
X127750000Y-96880000D03*
X123520000Y-97350000D03*
X123520000Y-96880000D03*
X123050000Y-97350000D03*
X122580000Y-97350000D03*
X122110000Y-97350000D03*
X121640000Y-97350000D03*
X121640000Y-96880000D03*
X122110000Y-96880000D03*
X122580000Y-96880000D03*
X123050000Y-96880000D03*
X121170000Y-97350000D03*
X120700000Y-97350000D03*
X121170000Y-96880000D03*
X120700000Y-96880000D03*
X120230000Y-97350000D03*
X119760000Y-97350000D03*
X120230000Y-96880000D03*
X119760000Y-96880000D03*
X119290000Y-97350000D03*
X118820000Y-97350000D03*
X118350000Y-97350000D03*
X117880000Y-97350000D03*
X117410000Y-97350000D03*
X116940000Y-97350000D03*
X116470000Y-97350000D03*
X116000000Y-97350000D03*
X116000000Y-96880000D03*
X116470000Y-96880000D03*
X116940000Y-96880000D03*
X117410000Y-96880000D03*
X117880000Y-96880000D03*
X118350000Y-96880000D03*
X118820000Y-96880000D03*
X119290000Y-96880000D03*
X115530000Y-97350000D03*
X115060000Y-97350000D03*
X114590000Y-97350000D03*
X114120000Y-97350000D03*
X113650000Y-97350000D03*
X113180000Y-97350000D03*
X113180000Y-96880000D03*
X113650000Y-96880000D03*
X114120000Y-96880000D03*
X114590000Y-96880000D03*
X115060000Y-96880000D03*
X115530000Y-96880000D03*
X112265000Y-95935000D03*
X126810000Y-98960000D03*
X127280000Y-99430000D03*
X127750000Y-99900000D03*
X128220000Y-100370000D03*
X128690000Y-100370000D03*
X129160000Y-100370000D03*
X129630000Y-100370000D03*
X129630000Y-100840000D03*
X129160000Y-100840000D03*
X128690000Y-100840000D03*
X128220000Y-100840000D03*
X127750000Y-100370000D03*
X127280000Y-99900000D03*
X126810000Y-99430000D03*
X126340000Y-98960000D03*
X126340000Y-99430000D03*
X124930000Y-98960000D03*
X124930000Y-99430000D03*
X125400000Y-99430000D03*
X125400000Y-98960000D03*
X125870000Y-98960000D03*
X125870000Y-99430000D03*
X123520000Y-98960000D03*
X123050000Y-98960000D03*
X122580000Y-98960000D03*
X122110000Y-98960000D03*
X121640000Y-98960000D03*
X121170000Y-98960000D03*
X120700000Y-98960000D03*
X120230000Y-98960000D03*
X119760000Y-98960000D03*
X119290000Y-98960000D03*
X118820000Y-99010000D03*
X118352700Y-98963000D03*
X117882700Y-98963000D03*
X117412700Y-98963000D03*
X116942700Y-98963000D03*
X116470000Y-98960000D03*
X116000000Y-98960000D03*
X113180000Y-98960000D03*
X113650000Y-98960000D03*
X114120000Y-98960000D03*
X114590000Y-98960000D03*
X115060000Y-98960000D03*
X115530000Y-98960000D03*
X113180000Y-99430000D03*
X113650000Y-99430000D03*
X114120000Y-99430000D03*
X114590000Y-99430000D03*
X115060000Y-99430000D03*
X115530000Y-99430000D03*
X116000000Y-99430000D03*
X116470000Y-99430000D03*
X116942700Y-99433000D03*
X117412700Y-99433000D03*
X117882700Y-99433000D03*
X118352700Y-99433000D03*
X118820000Y-99480000D03*
X119290000Y-99430000D03*
X120230000Y-99430000D03*
X119760000Y-99430000D03*
X120700000Y-99430000D03*
X121170000Y-99430000D03*
X121640000Y-99430000D03*
X122110000Y-99430000D03*
X122580000Y-99430000D03*
X123050000Y-99430000D03*
X123520000Y-99430000D03*
D19*
X129780000Y-93835000D03*
X121159897Y-104357741D03*
X102235000Y-111215000D03*
X131102500Y-86347500D03*
X97235000Y-93215000D03*
X124735000Y-112715000D03*
D20*
X128485000Y-102965000D03*
X129485000Y-103965000D03*
X130485000Y-102965000D03*
X131772500Y-102177500D03*
X135665000Y-95105000D03*
X136645000Y-96025000D03*
X136685000Y-97045000D03*
D19*
X111565000Y-104635000D03*
X103275000Y-99985000D03*
X104565000Y-94375000D03*
X110690000Y-95975001D03*
X114560000Y-100230001D03*
D21*
X132780000Y-106865000D03*
X133250000Y-106865000D03*
X133250000Y-106395000D03*
X132780000Y-106395000D03*
X132780000Y-105925000D03*
X133250000Y-105925000D03*
X133250000Y-105455000D03*
X132780000Y-105455000D03*
X132780000Y-104985000D03*
X133250000Y-104985000D03*
X133250000Y-104515000D03*
X132780000Y-104515000D03*
X134710000Y-106865000D03*
X134710000Y-106395000D03*
X134710000Y-105925000D03*
X134710000Y-105455000D03*
X134710000Y-104985000D03*
X134710000Y-104515000D03*
X135180000Y-104515000D03*
X135180000Y-104985000D03*
X135180000Y-105455000D03*
X135180000Y-105925000D03*
X135180000Y-106395000D03*
X135180000Y-106865000D03*
X135650000Y-102165000D03*
X135650000Y-104515000D03*
X136120000Y-104045000D03*
X136120000Y-102635000D03*
X132310000Y-104515000D03*
X131840000Y-104045000D03*
X131370000Y-103575000D03*
X131370000Y-103105000D03*
D20*
X112589640Y-99517600D03*
D19*
%TO.N,+6V*%
X96393000Y-86999500D03*
X130720000Y-110145000D03*
%TD*%
D22*
%TO.N,0*%
X141585201Y-121492783D02*
X89812000Y-121517818D01*
X89812000Y-117715056D01*
X91608000Y-117715056D01*
X91608000Y-118074944D01*
X91678211Y-118427916D01*
X91815934Y-118760409D01*
X92015876Y-119059645D01*
X92270355Y-119314124D01*
X92569591Y-119514066D01*
X92902084Y-119651789D01*
X93255056Y-119722000D01*
X93614944Y-119722000D01*
X93967916Y-119651789D01*
X94300409Y-119514066D01*
X94599645Y-119314124D01*
X94854124Y-119059645D01*
X95054066Y-118760409D01*
X95191789Y-118427916D01*
X95262000Y-118074944D01*
X95262000Y-117715056D01*
X95191789Y-117362084D01*
X95054066Y-117029591D01*
X94854124Y-116730355D01*
X94599645Y-116475876D01*
X94300409Y-116275934D01*
X93984307Y-116145000D01*
X100781418Y-116145000D01*
X100781418Y-117845000D01*
X100787732Y-117909103D01*
X100806430Y-117970743D01*
X100836794Y-118027550D01*
X100877657Y-118077343D01*
X100927450Y-118118206D01*
X100984257Y-118148570D01*
X101045897Y-118167268D01*
X101110000Y-118173582D01*
X102810000Y-118173582D01*
X102874103Y-118167268D01*
X102935743Y-118148570D01*
X102992550Y-118118206D01*
X103042343Y-118077343D01*
X103083206Y-118027550D01*
X103113570Y-117970743D01*
X103132268Y-117909103D01*
X103138582Y-117845000D01*
X103138582Y-117577592D01*
X103155843Y-117626252D01*
X103304822Y-117876355D01*
X103499731Y-118092588D01*
X103733080Y-118266641D01*
X103995901Y-118391825D01*
X104143110Y-118436476D01*
X104373000Y-118315155D01*
X104373000Y-117122000D01*
X104627000Y-117122000D01*
X104627000Y-118315155D01*
X104856890Y-118436476D01*
X105004099Y-118391825D01*
X105266920Y-118266641D01*
X105500269Y-118092588D01*
X105695178Y-117876355D01*
X105844157Y-117626252D01*
X105941481Y-117351891D01*
X105820814Y-117122000D01*
X104627000Y-117122000D01*
X104373000Y-117122000D01*
X104353000Y-117122000D01*
X104353000Y-116868000D01*
X104373000Y-116868000D01*
X104373000Y-115674845D01*
X104627000Y-115674845D01*
X104627000Y-116868000D01*
X105820814Y-116868000D01*
X105941481Y-116638109D01*
X105844157Y-116363748D01*
X105736763Y-116183456D01*
X108353120Y-116183456D01*
X108353120Y-116543344D01*
X108423331Y-116896316D01*
X108561054Y-117228809D01*
X108760996Y-117528045D01*
X109015475Y-117782524D01*
X109314711Y-117982466D01*
X109647204Y-118120189D01*
X110000176Y-118190400D01*
X110360064Y-118190400D01*
X110713036Y-118120189D01*
X111045529Y-117982466D01*
X111344765Y-117782524D01*
X111599244Y-117528045D01*
X111799186Y-117228809D01*
X111843571Y-117121654D01*
X116197952Y-117121654D01*
X116353962Y-117437215D01*
X116728745Y-117628021D01*
X117133551Y-117742045D01*
X117552824Y-117774903D01*
X117970451Y-117725335D01*
X118370383Y-117595244D01*
X118666038Y-117437215D01*
X118822048Y-117121654D01*
X117510000Y-115809606D01*
X116197952Y-117121654D01*
X111843571Y-117121654D01*
X111936909Y-116896316D01*
X112007120Y-116543344D01*
X112007120Y-116183456D01*
X111936909Y-115830484D01*
X111871605Y-115672825D01*
X115365098Y-115672825D01*
X115414666Y-116090452D01*
X115544757Y-116490384D01*
X115702786Y-116786039D01*
X116018347Y-116942049D01*
X117330395Y-115630001D01*
X117689605Y-115630001D01*
X119001653Y-116942049D01*
X119317214Y-116786039D01*
X119508020Y-116411256D01*
X119622044Y-116006450D01*
X119654902Y-115587177D01*
X119605334Y-115169550D01*
X119475243Y-114769618D01*
X119317214Y-114473963D01*
X119001653Y-114317953D01*
X117689605Y-115630001D01*
X117330395Y-115630001D01*
X116018347Y-114317953D01*
X115702786Y-114473963D01*
X115511980Y-114848746D01*
X115397956Y-115253552D01*
X115365098Y-115672825D01*
X111871605Y-115672825D01*
X111799186Y-115497991D01*
X111599244Y-115198755D01*
X111344765Y-114944276D01*
X111045529Y-114744334D01*
X110713036Y-114606611D01*
X110360064Y-114536400D01*
X110000176Y-114536400D01*
X109647204Y-114606611D01*
X109314711Y-114744334D01*
X109015475Y-114944276D01*
X108760996Y-115198755D01*
X108561054Y-115497991D01*
X108423331Y-115830484D01*
X108353120Y-116183456D01*
X105736763Y-116183456D01*
X105695178Y-116113645D01*
X105500269Y-115897412D01*
X105266920Y-115723359D01*
X105004099Y-115598175D01*
X104856890Y-115553524D01*
X104627000Y-115674845D01*
X104373000Y-115674845D01*
X104143110Y-115553524D01*
X103995901Y-115598175D01*
X103733080Y-115723359D01*
X103499731Y-115897412D01*
X103304822Y-116113645D01*
X103155843Y-116363748D01*
X103138582Y-116412408D01*
X103138582Y-116145000D01*
X103132268Y-116080897D01*
X103113570Y-116019257D01*
X103083206Y-115962450D01*
X103042343Y-115912657D01*
X102992550Y-115871794D01*
X102935743Y-115841430D01*
X102874103Y-115822732D01*
X102810000Y-115816418D01*
X101110000Y-115816418D01*
X101045897Y-115822732D01*
X100984257Y-115841430D01*
X100927450Y-115871794D01*
X100877657Y-115912657D01*
X100836794Y-115962450D01*
X100806430Y-116019257D01*
X100787732Y-116080897D01*
X100781418Y-116145000D01*
X93984307Y-116145000D01*
X93967916Y-116138211D01*
X93614944Y-116068000D01*
X93255056Y-116068000D01*
X92902084Y-116138211D01*
X92569591Y-116275934D01*
X92270355Y-116475876D01*
X92015876Y-116730355D01*
X91815934Y-117029591D01*
X91678211Y-117362084D01*
X91608000Y-117715056D01*
X89812000Y-117715056D01*
X89812000Y-114138348D01*
X116197952Y-114138348D01*
X117510000Y-115450396D01*
X118822048Y-114138348D01*
X118666038Y-113822787D01*
X118291255Y-113631981D01*
X117886449Y-113517957D01*
X117467176Y-113485099D01*
X117049549Y-113534667D01*
X116649617Y-113664758D01*
X116353962Y-113822787D01*
X116197952Y-114138348D01*
X89812000Y-114138348D01*
X89812000Y-110073397D01*
X129993000Y-110073397D01*
X129993000Y-110216603D01*
X130020938Y-110357058D01*
X130075741Y-110489364D01*
X130155302Y-110608436D01*
X130256564Y-110709698D01*
X130375636Y-110789259D01*
X130507942Y-110844062D01*
X130648397Y-110872000D01*
X130791603Y-110872000D01*
X130932058Y-110844062D01*
X131064364Y-110789259D01*
X131183436Y-110709698D01*
X131284698Y-110608436D01*
X131364259Y-110489364D01*
X131419062Y-110357058D01*
X131447000Y-110216603D01*
X131447000Y-110073397D01*
X131419062Y-109932942D01*
X131364259Y-109800636D01*
X131284698Y-109681564D01*
X131183436Y-109580302D01*
X131064364Y-109500741D01*
X130932058Y-109445938D01*
X130791603Y-109418000D01*
X130648397Y-109418000D01*
X130507942Y-109445938D01*
X130375636Y-109500741D01*
X130256564Y-109580302D01*
X130155302Y-109681564D01*
X130075741Y-109800636D01*
X130020938Y-109932942D01*
X129993000Y-110073397D01*
X89812000Y-110073397D01*
X89812000Y-108383397D01*
X105068000Y-108383397D01*
X105068000Y-108526603D01*
X105095938Y-108667058D01*
X105150741Y-108799364D01*
X105230302Y-108918436D01*
X105331564Y-109019698D01*
X105450636Y-109099259D01*
X105582942Y-109154062D01*
X105723397Y-109182000D01*
X105866603Y-109182000D01*
X106007058Y-109154062D01*
X106139364Y-109099259D01*
X106258436Y-109019698D01*
X106359698Y-108918436D01*
X106439259Y-108799364D01*
X106494062Y-108667058D01*
X106522000Y-108526603D01*
X106522000Y-108383397D01*
X106494062Y-108242942D01*
X106439259Y-108110636D01*
X106359698Y-107991564D01*
X106258436Y-107890302D01*
X106139364Y-107810741D01*
X106007058Y-107755938D01*
X105866603Y-107728000D01*
X105723397Y-107728000D01*
X105582942Y-107755938D01*
X105450636Y-107810741D01*
X105331564Y-107890302D01*
X105230302Y-107991564D01*
X105150741Y-108110636D01*
X105095938Y-108242942D01*
X105068000Y-108383397D01*
X89812000Y-108383397D01*
X89812000Y-106780000D01*
X95416928Y-106780000D01*
X95429188Y-106904482D01*
X95465498Y-107024180D01*
X95524463Y-107134494D01*
X95603815Y-107231185D01*
X95700506Y-107310537D01*
X95810820Y-107369502D01*
X95930518Y-107405812D01*
X96055000Y-107418072D01*
X96619250Y-107415000D01*
X96778000Y-107256250D01*
X96778000Y-106057000D01*
X95578750Y-106057000D01*
X95420000Y-106215750D01*
X95416928Y-106780000D01*
X89812000Y-106780000D01*
X89812000Y-105080000D01*
X95416928Y-105080000D01*
X95420000Y-105644250D01*
X95578750Y-105803000D01*
X96778000Y-105803000D01*
X96778000Y-104603750D01*
X97032000Y-104603750D01*
X97032000Y-105803000D01*
X97052000Y-105803000D01*
X97052000Y-106057000D01*
X97032000Y-106057000D01*
X97032000Y-107256250D01*
X97190750Y-107415000D01*
X97755000Y-107418072D01*
X97879482Y-107405812D01*
X97999180Y-107369502D01*
X98109494Y-107310537D01*
X98206185Y-107231185D01*
X98285537Y-107134494D01*
X98344502Y-107024180D01*
X98380812Y-106904482D01*
X98393072Y-106780000D01*
X98391340Y-106461890D01*
X98401956Y-106487519D01*
X98530764Y-106680294D01*
X98694706Y-106844236D01*
X98887481Y-106973044D01*
X99101682Y-107061769D01*
X99329076Y-107107000D01*
X99560924Y-107107000D01*
X99788318Y-107061769D01*
X100002519Y-106973044D01*
X100195294Y-106844236D01*
X100359236Y-106680294D01*
X100488044Y-106487519D01*
X100576769Y-106273318D01*
X100622000Y-106045924D01*
X100622000Y-105814076D01*
X100808000Y-105814076D01*
X100808000Y-106045924D01*
X100853231Y-106273318D01*
X100941956Y-106487519D01*
X101070764Y-106680294D01*
X101234706Y-106844236D01*
X101427481Y-106973044D01*
X101641682Y-107061769D01*
X101869076Y-107107000D01*
X102100924Y-107107000D01*
X102328318Y-107061769D01*
X102542519Y-106973044D01*
X102735294Y-106844236D01*
X102899236Y-106680294D01*
X103028044Y-106487519D01*
X103116769Y-106273318D01*
X103162000Y-106045924D01*
X103162000Y-105814076D01*
X103348000Y-105814076D01*
X103348000Y-106045924D01*
X103393231Y-106273318D01*
X103481956Y-106487519D01*
X103610764Y-106680294D01*
X103774706Y-106844236D01*
X103967481Y-106973044D01*
X104181682Y-107061769D01*
X104409076Y-107107000D01*
X104640924Y-107107000D01*
X104868318Y-107061769D01*
X105082519Y-106973044D01*
X105275294Y-106844236D01*
X105439236Y-106680294D01*
X105568044Y-106487519D01*
X105656769Y-106273318D01*
X105702000Y-106045924D01*
X105702000Y-105814076D01*
X105888000Y-105814076D01*
X105888000Y-106045924D01*
X105933231Y-106273318D01*
X106021956Y-106487519D01*
X106150764Y-106680294D01*
X106314706Y-106844236D01*
X106507481Y-106973044D01*
X106721682Y-107061769D01*
X106949076Y-107107000D01*
X107180924Y-107107000D01*
X107408318Y-107061769D01*
X107511243Y-107019136D01*
X119747560Y-107019136D01*
X119747560Y-107379024D01*
X119817771Y-107731996D01*
X119955494Y-108064489D01*
X120155436Y-108363725D01*
X120409915Y-108618204D01*
X120709151Y-108818146D01*
X121041644Y-108955869D01*
X121394616Y-109026080D01*
X121754504Y-109026080D01*
X122107476Y-108955869D01*
X122439969Y-108818146D01*
X122739205Y-108618204D01*
X122993684Y-108363725D01*
X123193626Y-108064489D01*
X123331349Y-107731996D01*
X123401560Y-107379024D01*
X123401560Y-107019136D01*
X123331349Y-106666164D01*
X123193626Y-106333671D01*
X122993684Y-106034435D01*
X122739205Y-105779956D01*
X122439969Y-105580014D01*
X122107476Y-105442291D01*
X121754504Y-105372080D01*
X121394616Y-105372080D01*
X121041644Y-105442291D01*
X120709151Y-105580014D01*
X120409915Y-105779956D01*
X120155436Y-106034435D01*
X119955494Y-106333671D01*
X119817771Y-106666164D01*
X119747560Y-107019136D01*
X107511243Y-107019136D01*
X107622519Y-106973044D01*
X107815294Y-106844236D01*
X107979236Y-106680294D01*
X108108044Y-106487519D01*
X108196769Y-106273318D01*
X108242000Y-106045924D01*
X108242000Y-105814076D01*
X108196769Y-105586682D01*
X108108044Y-105372481D01*
X107979236Y-105179706D01*
X107815294Y-105015764D01*
X107622519Y-104886956D01*
X107408318Y-104798231D01*
X107180924Y-104753000D01*
X106949076Y-104753000D01*
X106721682Y-104798231D01*
X106507481Y-104886956D01*
X106314706Y-105015764D01*
X106150764Y-105179706D01*
X106021956Y-105372481D01*
X105933231Y-105586682D01*
X105888000Y-105814076D01*
X105702000Y-105814076D01*
X105656769Y-105586682D01*
X105568044Y-105372481D01*
X105439236Y-105179706D01*
X105275294Y-105015764D01*
X105082519Y-104886956D01*
X104868318Y-104798231D01*
X104640924Y-104753000D01*
X104409076Y-104753000D01*
X104181682Y-104798231D01*
X103967481Y-104886956D01*
X103774706Y-105015764D01*
X103610764Y-105179706D01*
X103481956Y-105372481D01*
X103393231Y-105586682D01*
X103348000Y-105814076D01*
X103162000Y-105814076D01*
X103116769Y-105586682D01*
X103028044Y-105372481D01*
X102899236Y-105179706D01*
X102735294Y-105015764D01*
X102542519Y-104886956D01*
X102328318Y-104798231D01*
X102100924Y-104753000D01*
X101869076Y-104753000D01*
X101641682Y-104798231D01*
X101427481Y-104886956D01*
X101234706Y-105015764D01*
X101070764Y-105179706D01*
X100941956Y-105372481D01*
X100853231Y-105586682D01*
X100808000Y-105814076D01*
X100622000Y-105814076D01*
X100576769Y-105586682D01*
X100488044Y-105372481D01*
X100359236Y-105179706D01*
X100195294Y-105015764D01*
X100002519Y-104886956D01*
X99788318Y-104798231D01*
X99560924Y-104753000D01*
X99329076Y-104753000D01*
X99101682Y-104798231D01*
X98887481Y-104886956D01*
X98694706Y-105015764D01*
X98530764Y-105179706D01*
X98401956Y-105372481D01*
X98391340Y-105398110D01*
X98393072Y-105080000D01*
X98380812Y-104955518D01*
X98344502Y-104835820D01*
X98285537Y-104725506D01*
X98206185Y-104628815D01*
X98109494Y-104549463D01*
X97999180Y-104490498D01*
X97879482Y-104454188D01*
X97755000Y-104441928D01*
X97190750Y-104445000D01*
X97032000Y-104603750D01*
X96778000Y-104603750D01*
X96619250Y-104445000D01*
X96055000Y-104441928D01*
X95930518Y-104454188D01*
X95810820Y-104490498D01*
X95700506Y-104549463D01*
X95603815Y-104628815D01*
X95524463Y-104725506D01*
X95465498Y-104835820D01*
X95429188Y-104955518D01*
X95416928Y-105080000D01*
X89812000Y-105080000D01*
X89812000Y-102143397D01*
X114808000Y-102143397D01*
X114808000Y-102286603D01*
X114835938Y-102427058D01*
X114890741Y-102559364D01*
X114970302Y-102678436D01*
X115071564Y-102779698D01*
X115190636Y-102859259D01*
X115322942Y-102914062D01*
X115463397Y-102942000D01*
X115606603Y-102942000D01*
X115747058Y-102914062D01*
X115879364Y-102859259D01*
X115998436Y-102779698D01*
X116099698Y-102678436D01*
X116179259Y-102559364D01*
X116234062Y-102427058D01*
X116262000Y-102286603D01*
X116262000Y-102263397D01*
X123483000Y-102263397D01*
X123483000Y-102406603D01*
X123510938Y-102547058D01*
X123565741Y-102679364D01*
X123645302Y-102798436D01*
X123746564Y-102899698D01*
X123865636Y-102979259D01*
X123997942Y-103034062D01*
X124138397Y-103062000D01*
X124281603Y-103062000D01*
X124422058Y-103034062D01*
X124554364Y-102979259D01*
X124673436Y-102899698D01*
X124774698Y-102798436D01*
X124854259Y-102679364D01*
X124909062Y-102547058D01*
X124937000Y-102406603D01*
X124937000Y-102263397D01*
X124909062Y-102122942D01*
X124854259Y-101990636D01*
X124774698Y-101871564D01*
X124673436Y-101770302D01*
X124554364Y-101690741D01*
X124422058Y-101635938D01*
X124281603Y-101608000D01*
X124138397Y-101608000D01*
X123997942Y-101635938D01*
X123865636Y-101690741D01*
X123746564Y-101770302D01*
X123645302Y-101871564D01*
X123565741Y-101990636D01*
X123510938Y-102122942D01*
X123483000Y-102263397D01*
X116262000Y-102263397D01*
X116262000Y-102143397D01*
X116234062Y-102002942D01*
X116179259Y-101870636D01*
X116099698Y-101751564D01*
X115998436Y-101650302D01*
X115879364Y-101570741D01*
X115747058Y-101515938D01*
X115606603Y-101488000D01*
X115463397Y-101488000D01*
X115322942Y-101515938D01*
X115190636Y-101570741D01*
X115071564Y-101650302D01*
X114970302Y-101751564D01*
X114890741Y-101870636D01*
X114835938Y-102002942D01*
X114808000Y-102143397D01*
X89812000Y-102143397D01*
X89812000Y-98873397D01*
X103163000Y-98873397D01*
X103163000Y-99016603D01*
X103190938Y-99157058D01*
X103245741Y-99289364D01*
X103325302Y-99408436D01*
X103426564Y-99509698D01*
X103545636Y-99589259D01*
X103677942Y-99644062D01*
X103818397Y-99672000D01*
X103961603Y-99672000D01*
X104102058Y-99644062D01*
X104234364Y-99589259D01*
X104353436Y-99509698D01*
X104454698Y-99408436D01*
X104534259Y-99289364D01*
X104589062Y-99157058D01*
X104617000Y-99016603D01*
X104617000Y-98873397D01*
X104589062Y-98732942D01*
X104534259Y-98600636D01*
X104454698Y-98481564D01*
X104353436Y-98380302D01*
X104234364Y-98300741D01*
X104102058Y-98245938D01*
X103961603Y-98218000D01*
X103818397Y-98218000D01*
X103677942Y-98245938D01*
X103545636Y-98300741D01*
X103426564Y-98380302D01*
X103325302Y-98481564D01*
X103245741Y-98600636D01*
X103190938Y-98732942D01*
X103163000Y-98873397D01*
X89812000Y-98873397D01*
X89812000Y-93755256D01*
X98909400Y-93755256D01*
X98909400Y-94115144D01*
X98979611Y-94468116D01*
X99117334Y-94800609D01*
X99317276Y-95099845D01*
X99571755Y-95354324D01*
X99870991Y-95554266D01*
X100203484Y-95691989D01*
X100556456Y-95762200D01*
X100916344Y-95762200D01*
X101269316Y-95691989D01*
X101601809Y-95554266D01*
X101901045Y-95354324D01*
X101991972Y-95263397D01*
X132553000Y-95263397D01*
X132553000Y-95406603D01*
X132580938Y-95547058D01*
X132635741Y-95679364D01*
X132715302Y-95798436D01*
X132816564Y-95899698D01*
X132935636Y-95979259D01*
X133067942Y-96034062D01*
X133208397Y-96062000D01*
X133351603Y-96062000D01*
X133492058Y-96034062D01*
X133624364Y-95979259D01*
X133743436Y-95899698D01*
X133844698Y-95798436D01*
X133924259Y-95679364D01*
X133979062Y-95547058D01*
X134007000Y-95406603D01*
X134007000Y-95263397D01*
X133979062Y-95122942D01*
X133924259Y-94990636D01*
X133844698Y-94871564D01*
X133743436Y-94770302D01*
X133624364Y-94690741D01*
X133492058Y-94635938D01*
X133351603Y-94608000D01*
X133208397Y-94608000D01*
X133067942Y-94635938D01*
X132935636Y-94690741D01*
X132816564Y-94770302D01*
X132715302Y-94871564D01*
X132635741Y-94990636D01*
X132580938Y-95122942D01*
X132553000Y-95263397D01*
X101991972Y-95263397D01*
X102155524Y-95099845D01*
X102355466Y-94800609D01*
X102493189Y-94468116D01*
X102563400Y-94115144D01*
X102563400Y-93755256D01*
X102493189Y-93402284D01*
X102355466Y-93069791D01*
X102155524Y-92770555D01*
X101901045Y-92516076D01*
X101601809Y-92316134D01*
X101269316Y-92178411D01*
X100916344Y-92108200D01*
X100556456Y-92108200D01*
X100203484Y-92178411D01*
X99870991Y-92316134D01*
X99571755Y-92516076D01*
X99317276Y-92770555D01*
X99117334Y-93069791D01*
X98979611Y-93402284D01*
X98909400Y-93755256D01*
X89812000Y-93755256D01*
X89812000Y-89983397D01*
X106338000Y-89983397D01*
X106338000Y-90126603D01*
X106365938Y-90267058D01*
X106420741Y-90399364D01*
X106500302Y-90518436D01*
X106601564Y-90619698D01*
X106720636Y-90699259D01*
X106852942Y-90754062D01*
X106993397Y-90782000D01*
X107136603Y-90782000D01*
X107277058Y-90754062D01*
X107409364Y-90699259D01*
X107528436Y-90619698D01*
X107629698Y-90518436D01*
X107709259Y-90399364D01*
X107764062Y-90267058D01*
X107792000Y-90126603D01*
X107792000Y-89983397D01*
X107764062Y-89842942D01*
X107709259Y-89710636D01*
X107629698Y-89591564D01*
X107528436Y-89490302D01*
X107409364Y-89410741D01*
X107277058Y-89355938D01*
X107136603Y-89328000D01*
X106993397Y-89328000D01*
X106852942Y-89355938D01*
X106720636Y-89410741D01*
X106601564Y-89490302D01*
X106500302Y-89591564D01*
X106420741Y-89710636D01*
X106365938Y-89842942D01*
X106338000Y-89983397D01*
X89812000Y-89983397D01*
X89812000Y-88035056D01*
X107408000Y-88035056D01*
X107408000Y-88394944D01*
X107478211Y-88747916D01*
X107615934Y-89080409D01*
X107815876Y-89379645D01*
X108070355Y-89634124D01*
X108369591Y-89834066D01*
X108702084Y-89971789D01*
X109055056Y-90042000D01*
X109414944Y-90042000D01*
X109767916Y-89971789D01*
X110100409Y-89834066D01*
X110399645Y-89634124D01*
X110654124Y-89379645D01*
X110854066Y-89080409D01*
X110991789Y-88747916D01*
X111062000Y-88394944D01*
X111062000Y-88035056D01*
X110991789Y-87682084D01*
X110910178Y-87485056D01*
X132883000Y-87485056D01*
X132883000Y-87844944D01*
X132953211Y-88197916D01*
X133090934Y-88530409D01*
X133290876Y-88829645D01*
X133545355Y-89084124D01*
X133844591Y-89284066D01*
X134177084Y-89421789D01*
X134530056Y-89492000D01*
X134889944Y-89492000D01*
X135242916Y-89421789D01*
X135575409Y-89284066D01*
X135874645Y-89084124D01*
X136129124Y-88829645D01*
X136329066Y-88530409D01*
X136466789Y-88197916D01*
X136537000Y-87844944D01*
X136537000Y-87485056D01*
X136466789Y-87132084D01*
X136329066Y-86799591D01*
X136129124Y-86500355D01*
X135874645Y-86245876D01*
X135575409Y-86045934D01*
X135242916Y-85908211D01*
X134889944Y-85838000D01*
X134530056Y-85838000D01*
X134177084Y-85908211D01*
X133844591Y-86045934D01*
X133545355Y-86245876D01*
X133290876Y-86500355D01*
X133090934Y-86799591D01*
X132953211Y-87132084D01*
X132883000Y-87485056D01*
X110910178Y-87485056D01*
X110854066Y-87349591D01*
X110654124Y-87050355D01*
X110399645Y-86795876D01*
X110100409Y-86595934D01*
X109767916Y-86458211D01*
X109414944Y-86388000D01*
X109055056Y-86388000D01*
X108702084Y-86458211D01*
X108369591Y-86595934D01*
X108070355Y-86795876D01*
X107815876Y-87050355D01*
X107615934Y-87349591D01*
X107478211Y-87682084D01*
X107408000Y-88035056D01*
X89812000Y-88035056D01*
X89812000Y-86927897D01*
X95666000Y-86927897D01*
X95666000Y-87071103D01*
X95693938Y-87211558D01*
X95748741Y-87343864D01*
X95828302Y-87462936D01*
X95929564Y-87564198D01*
X96048636Y-87643759D01*
X96180942Y-87698562D01*
X96321397Y-87726500D01*
X96464603Y-87726500D01*
X96605058Y-87698562D01*
X96737364Y-87643759D01*
X96856436Y-87564198D01*
X96957698Y-87462936D01*
X97037259Y-87343864D01*
X97092062Y-87211558D01*
X97120000Y-87071103D01*
X97120000Y-86927897D01*
X97092062Y-86787442D01*
X97037259Y-86655136D01*
X96957698Y-86536064D01*
X96856436Y-86434802D01*
X96737364Y-86355241D01*
X96605058Y-86300438D01*
X96464603Y-86272500D01*
X96321397Y-86272500D01*
X96180942Y-86300438D01*
X96048636Y-86355241D01*
X95929564Y-86434802D01*
X95828302Y-86536064D01*
X95748741Y-86655136D01*
X95693938Y-86787442D01*
X95666000Y-86927897D01*
X89812000Y-86927897D01*
X89812000Y-84155600D01*
X101259618Y-84155600D01*
X101259618Y-85855600D01*
X101265932Y-85919703D01*
X101284630Y-85981343D01*
X101314994Y-86038150D01*
X101355857Y-86087943D01*
X101405650Y-86128806D01*
X101462457Y-86159170D01*
X101524097Y-86177868D01*
X101588200Y-86184182D01*
X103288200Y-86184182D01*
X103352303Y-86177868D01*
X103413943Y-86159170D01*
X103470750Y-86128806D01*
X103520543Y-86087943D01*
X103561406Y-86038150D01*
X103591770Y-85981343D01*
X103610468Y-85919703D01*
X103616782Y-85855600D01*
X103616782Y-85588192D01*
X103634043Y-85636852D01*
X103783022Y-85886955D01*
X103977931Y-86103188D01*
X104211280Y-86277241D01*
X104474101Y-86402425D01*
X104621310Y-86447076D01*
X104851200Y-86325755D01*
X104851200Y-85132600D01*
X105105200Y-85132600D01*
X105105200Y-86325755D01*
X105335090Y-86447076D01*
X105482299Y-86402425D01*
X105745120Y-86277241D01*
X105978469Y-86103188D01*
X106173378Y-85886955D01*
X106322357Y-85636852D01*
X106419681Y-85362491D01*
X106299014Y-85132600D01*
X105105200Y-85132600D01*
X104851200Y-85132600D01*
X104831200Y-85132600D01*
X104831200Y-84878600D01*
X104851200Y-84878600D01*
X104851200Y-83685445D01*
X105105200Y-83685445D01*
X105105200Y-84878600D01*
X106299014Y-84878600D01*
X106419681Y-84648709D01*
X106322357Y-84374348D01*
X106173378Y-84124245D01*
X105978469Y-83908012D01*
X105780108Y-83760056D01*
X136108000Y-83760056D01*
X136108000Y-84119944D01*
X136178211Y-84472916D01*
X136315934Y-84805409D01*
X136515876Y-85104645D01*
X136770355Y-85359124D01*
X137069591Y-85559066D01*
X137402084Y-85696789D01*
X137755056Y-85767000D01*
X138114944Y-85767000D01*
X138467916Y-85696789D01*
X138800409Y-85559066D01*
X139099645Y-85359124D01*
X139354124Y-85104645D01*
X139554066Y-84805409D01*
X139691789Y-84472916D01*
X139762000Y-84119944D01*
X139762000Y-83760056D01*
X139691789Y-83407084D01*
X139554066Y-83074591D01*
X139354124Y-82775355D01*
X139099645Y-82520876D01*
X138800409Y-82320934D01*
X138467916Y-82183211D01*
X138114944Y-82113000D01*
X137755056Y-82113000D01*
X137402084Y-82183211D01*
X137069591Y-82320934D01*
X136770355Y-82520876D01*
X136515876Y-82775355D01*
X136315934Y-83074591D01*
X136178211Y-83407084D01*
X136108000Y-83760056D01*
X105780108Y-83760056D01*
X105745120Y-83733959D01*
X105482299Y-83608775D01*
X105335090Y-83564124D01*
X105105200Y-83685445D01*
X104851200Y-83685445D01*
X104621310Y-83564124D01*
X104474101Y-83608775D01*
X104211280Y-83733959D01*
X103977931Y-83908012D01*
X103783022Y-84124245D01*
X103634043Y-84374348D01*
X103616782Y-84423008D01*
X103616782Y-84155600D01*
X103610468Y-84091497D01*
X103591770Y-84029857D01*
X103561406Y-83973050D01*
X103520543Y-83923257D01*
X103470750Y-83882394D01*
X103413943Y-83852030D01*
X103352303Y-83833332D01*
X103288200Y-83827018D01*
X101588200Y-83827018D01*
X101524097Y-83833332D01*
X101462457Y-83852030D01*
X101405650Y-83882394D01*
X101355857Y-83923257D01*
X101314994Y-83973050D01*
X101284630Y-84029857D01*
X101265932Y-84091497D01*
X101259618Y-84155600D01*
X89812000Y-84155600D01*
X89812000Y-80362000D01*
X141585200Y-80362000D01*
X141585201Y-121492783D01*
%TA.AperFunction,Conductor*%
D23*
G36*
X141585201Y-121492783D02*
G01*
X89812000Y-121517818D01*
X89812000Y-117715056D01*
X91608000Y-117715056D01*
X91608000Y-118074944D01*
X91678211Y-118427916D01*
X91815934Y-118760409D01*
X92015876Y-119059645D01*
X92270355Y-119314124D01*
X92569591Y-119514066D01*
X92902084Y-119651789D01*
X93255056Y-119722000D01*
X93614944Y-119722000D01*
X93967916Y-119651789D01*
X94300409Y-119514066D01*
X94599645Y-119314124D01*
X94854124Y-119059645D01*
X95054066Y-118760409D01*
X95191789Y-118427916D01*
X95262000Y-118074944D01*
X95262000Y-117715056D01*
X95191789Y-117362084D01*
X95054066Y-117029591D01*
X94854124Y-116730355D01*
X94599645Y-116475876D01*
X94300409Y-116275934D01*
X93984307Y-116145000D01*
X100781418Y-116145000D01*
X100781418Y-117845000D01*
X100787732Y-117909103D01*
X100806430Y-117970743D01*
X100836794Y-118027550D01*
X100877657Y-118077343D01*
X100927450Y-118118206D01*
X100984257Y-118148570D01*
X101045897Y-118167268D01*
X101110000Y-118173582D01*
X102810000Y-118173582D01*
X102874103Y-118167268D01*
X102935743Y-118148570D01*
X102992550Y-118118206D01*
X103042343Y-118077343D01*
X103083206Y-118027550D01*
X103113570Y-117970743D01*
X103132268Y-117909103D01*
X103138582Y-117845000D01*
X103138582Y-117577592D01*
X103155843Y-117626252D01*
X103304822Y-117876355D01*
X103499731Y-118092588D01*
X103733080Y-118266641D01*
X103995901Y-118391825D01*
X104143110Y-118436476D01*
X104373000Y-118315155D01*
X104373000Y-117122000D01*
X104627000Y-117122000D01*
X104627000Y-118315155D01*
X104856890Y-118436476D01*
X105004099Y-118391825D01*
X105266920Y-118266641D01*
X105500269Y-118092588D01*
X105695178Y-117876355D01*
X105844157Y-117626252D01*
X105941481Y-117351891D01*
X105820814Y-117122000D01*
X104627000Y-117122000D01*
X104373000Y-117122000D01*
X104353000Y-117122000D01*
X104353000Y-116868000D01*
X104373000Y-116868000D01*
X104373000Y-115674845D01*
X104627000Y-115674845D01*
X104627000Y-116868000D01*
X105820814Y-116868000D01*
X105941481Y-116638109D01*
X105844157Y-116363748D01*
X105736763Y-116183456D01*
X108353120Y-116183456D01*
X108353120Y-116543344D01*
X108423331Y-116896316D01*
X108561054Y-117228809D01*
X108760996Y-117528045D01*
X109015475Y-117782524D01*
X109314711Y-117982466D01*
X109647204Y-118120189D01*
X110000176Y-118190400D01*
X110360064Y-118190400D01*
X110713036Y-118120189D01*
X111045529Y-117982466D01*
X111344765Y-117782524D01*
X111599244Y-117528045D01*
X111799186Y-117228809D01*
X111843571Y-117121654D01*
X116197952Y-117121654D01*
X116353962Y-117437215D01*
X116728745Y-117628021D01*
X117133551Y-117742045D01*
X117552824Y-117774903D01*
X117970451Y-117725335D01*
X118370383Y-117595244D01*
X118666038Y-117437215D01*
X118822048Y-117121654D01*
X117510000Y-115809606D01*
X116197952Y-117121654D01*
X111843571Y-117121654D01*
X111936909Y-116896316D01*
X112007120Y-116543344D01*
X112007120Y-116183456D01*
X111936909Y-115830484D01*
X111871605Y-115672825D01*
X115365098Y-115672825D01*
X115414666Y-116090452D01*
X115544757Y-116490384D01*
X115702786Y-116786039D01*
X116018347Y-116942049D01*
X117330395Y-115630001D01*
X117689605Y-115630001D01*
X119001653Y-116942049D01*
X119317214Y-116786039D01*
X119508020Y-116411256D01*
X119622044Y-116006450D01*
X119654902Y-115587177D01*
X119605334Y-115169550D01*
X119475243Y-114769618D01*
X119317214Y-114473963D01*
X119001653Y-114317953D01*
X117689605Y-115630001D01*
X117330395Y-115630001D01*
X116018347Y-114317953D01*
X115702786Y-114473963D01*
X115511980Y-114848746D01*
X115397956Y-115253552D01*
X115365098Y-115672825D01*
X111871605Y-115672825D01*
X111799186Y-115497991D01*
X111599244Y-115198755D01*
X111344765Y-114944276D01*
X111045529Y-114744334D01*
X110713036Y-114606611D01*
X110360064Y-114536400D01*
X110000176Y-114536400D01*
X109647204Y-114606611D01*
X109314711Y-114744334D01*
X109015475Y-114944276D01*
X108760996Y-115198755D01*
X108561054Y-115497991D01*
X108423331Y-115830484D01*
X108353120Y-116183456D01*
X105736763Y-116183456D01*
X105695178Y-116113645D01*
X105500269Y-115897412D01*
X105266920Y-115723359D01*
X105004099Y-115598175D01*
X104856890Y-115553524D01*
X104627000Y-115674845D01*
X104373000Y-115674845D01*
X104143110Y-115553524D01*
X103995901Y-115598175D01*
X103733080Y-115723359D01*
X103499731Y-115897412D01*
X103304822Y-116113645D01*
X103155843Y-116363748D01*
X103138582Y-116412408D01*
X103138582Y-116145000D01*
X103132268Y-116080897D01*
X103113570Y-116019257D01*
X103083206Y-115962450D01*
X103042343Y-115912657D01*
X102992550Y-115871794D01*
X102935743Y-115841430D01*
X102874103Y-115822732D01*
X102810000Y-115816418D01*
X101110000Y-115816418D01*
X101045897Y-115822732D01*
X100984257Y-115841430D01*
X100927450Y-115871794D01*
X100877657Y-115912657D01*
X100836794Y-115962450D01*
X100806430Y-116019257D01*
X100787732Y-116080897D01*
X100781418Y-116145000D01*
X93984307Y-116145000D01*
X93967916Y-116138211D01*
X93614944Y-116068000D01*
X93255056Y-116068000D01*
X92902084Y-116138211D01*
X92569591Y-116275934D01*
X92270355Y-116475876D01*
X92015876Y-116730355D01*
X91815934Y-117029591D01*
X91678211Y-117362084D01*
X91608000Y-117715056D01*
X89812000Y-117715056D01*
X89812000Y-114138348D01*
X116197952Y-114138348D01*
X117510000Y-115450396D01*
X118822048Y-114138348D01*
X118666038Y-113822787D01*
X118291255Y-113631981D01*
X117886449Y-113517957D01*
X117467176Y-113485099D01*
X117049549Y-113534667D01*
X116649617Y-113664758D01*
X116353962Y-113822787D01*
X116197952Y-114138348D01*
X89812000Y-114138348D01*
X89812000Y-110073397D01*
X129993000Y-110073397D01*
X129993000Y-110216603D01*
X130020938Y-110357058D01*
X130075741Y-110489364D01*
X130155302Y-110608436D01*
X130256564Y-110709698D01*
X130375636Y-110789259D01*
X130507942Y-110844062D01*
X130648397Y-110872000D01*
X130791603Y-110872000D01*
X130932058Y-110844062D01*
X131064364Y-110789259D01*
X131183436Y-110709698D01*
X131284698Y-110608436D01*
X131364259Y-110489364D01*
X131419062Y-110357058D01*
X131447000Y-110216603D01*
X131447000Y-110073397D01*
X131419062Y-109932942D01*
X131364259Y-109800636D01*
X131284698Y-109681564D01*
X131183436Y-109580302D01*
X131064364Y-109500741D01*
X130932058Y-109445938D01*
X130791603Y-109418000D01*
X130648397Y-109418000D01*
X130507942Y-109445938D01*
X130375636Y-109500741D01*
X130256564Y-109580302D01*
X130155302Y-109681564D01*
X130075741Y-109800636D01*
X130020938Y-109932942D01*
X129993000Y-110073397D01*
X89812000Y-110073397D01*
X89812000Y-108383397D01*
X105068000Y-108383397D01*
X105068000Y-108526603D01*
X105095938Y-108667058D01*
X105150741Y-108799364D01*
X105230302Y-108918436D01*
X105331564Y-109019698D01*
X105450636Y-109099259D01*
X105582942Y-109154062D01*
X105723397Y-109182000D01*
X105866603Y-109182000D01*
X106007058Y-109154062D01*
X106139364Y-109099259D01*
X106258436Y-109019698D01*
X106359698Y-108918436D01*
X106439259Y-108799364D01*
X106494062Y-108667058D01*
X106522000Y-108526603D01*
X106522000Y-108383397D01*
X106494062Y-108242942D01*
X106439259Y-108110636D01*
X106359698Y-107991564D01*
X106258436Y-107890302D01*
X106139364Y-107810741D01*
X106007058Y-107755938D01*
X105866603Y-107728000D01*
X105723397Y-107728000D01*
X105582942Y-107755938D01*
X105450636Y-107810741D01*
X105331564Y-107890302D01*
X105230302Y-107991564D01*
X105150741Y-108110636D01*
X105095938Y-108242942D01*
X105068000Y-108383397D01*
X89812000Y-108383397D01*
X89812000Y-106780000D01*
X95416928Y-106780000D01*
X95429188Y-106904482D01*
X95465498Y-107024180D01*
X95524463Y-107134494D01*
X95603815Y-107231185D01*
X95700506Y-107310537D01*
X95810820Y-107369502D01*
X95930518Y-107405812D01*
X96055000Y-107418072D01*
X96619250Y-107415000D01*
X96778000Y-107256250D01*
X96778000Y-106057000D01*
X95578750Y-106057000D01*
X95420000Y-106215750D01*
X95416928Y-106780000D01*
X89812000Y-106780000D01*
X89812000Y-105080000D01*
X95416928Y-105080000D01*
X95420000Y-105644250D01*
X95578750Y-105803000D01*
X96778000Y-105803000D01*
X96778000Y-104603750D01*
X97032000Y-104603750D01*
X97032000Y-105803000D01*
X97052000Y-105803000D01*
X97052000Y-106057000D01*
X97032000Y-106057000D01*
X97032000Y-107256250D01*
X97190750Y-107415000D01*
X97755000Y-107418072D01*
X97879482Y-107405812D01*
X97999180Y-107369502D01*
X98109494Y-107310537D01*
X98206185Y-107231185D01*
X98285537Y-107134494D01*
X98344502Y-107024180D01*
X98380812Y-106904482D01*
X98393072Y-106780000D01*
X98391340Y-106461890D01*
X98401956Y-106487519D01*
X98530764Y-106680294D01*
X98694706Y-106844236D01*
X98887481Y-106973044D01*
X99101682Y-107061769D01*
X99329076Y-107107000D01*
X99560924Y-107107000D01*
X99788318Y-107061769D01*
X100002519Y-106973044D01*
X100195294Y-106844236D01*
X100359236Y-106680294D01*
X100488044Y-106487519D01*
X100576769Y-106273318D01*
X100622000Y-106045924D01*
X100622000Y-105814076D01*
X100808000Y-105814076D01*
X100808000Y-106045924D01*
X100853231Y-106273318D01*
X100941956Y-106487519D01*
X101070764Y-106680294D01*
X101234706Y-106844236D01*
X101427481Y-106973044D01*
X101641682Y-107061769D01*
X101869076Y-107107000D01*
X102100924Y-107107000D01*
X102328318Y-107061769D01*
X102542519Y-106973044D01*
X102735294Y-106844236D01*
X102899236Y-106680294D01*
X103028044Y-106487519D01*
X103116769Y-106273318D01*
X103162000Y-106045924D01*
X103162000Y-105814076D01*
X103348000Y-105814076D01*
X103348000Y-106045924D01*
X103393231Y-106273318D01*
X103481956Y-106487519D01*
X103610764Y-106680294D01*
X103774706Y-106844236D01*
X103967481Y-106973044D01*
X104181682Y-107061769D01*
X104409076Y-107107000D01*
X104640924Y-107107000D01*
X104868318Y-107061769D01*
X105082519Y-106973044D01*
X105275294Y-106844236D01*
X105439236Y-106680294D01*
X105568044Y-106487519D01*
X105656769Y-106273318D01*
X105702000Y-106045924D01*
X105702000Y-105814076D01*
X105888000Y-105814076D01*
X105888000Y-106045924D01*
X105933231Y-106273318D01*
X106021956Y-106487519D01*
X106150764Y-106680294D01*
X106314706Y-106844236D01*
X106507481Y-106973044D01*
X106721682Y-107061769D01*
X106949076Y-107107000D01*
X107180924Y-107107000D01*
X107408318Y-107061769D01*
X107511243Y-107019136D01*
X119747560Y-107019136D01*
X119747560Y-107379024D01*
X119817771Y-107731996D01*
X119955494Y-108064489D01*
X120155436Y-108363725D01*
X120409915Y-108618204D01*
X120709151Y-108818146D01*
X121041644Y-108955869D01*
X121394616Y-109026080D01*
X121754504Y-109026080D01*
X122107476Y-108955869D01*
X122439969Y-108818146D01*
X122739205Y-108618204D01*
X122993684Y-108363725D01*
X123193626Y-108064489D01*
X123331349Y-107731996D01*
X123401560Y-107379024D01*
X123401560Y-107019136D01*
X123331349Y-106666164D01*
X123193626Y-106333671D01*
X122993684Y-106034435D01*
X122739205Y-105779956D01*
X122439969Y-105580014D01*
X122107476Y-105442291D01*
X121754504Y-105372080D01*
X121394616Y-105372080D01*
X121041644Y-105442291D01*
X120709151Y-105580014D01*
X120409915Y-105779956D01*
X120155436Y-106034435D01*
X119955494Y-106333671D01*
X119817771Y-106666164D01*
X119747560Y-107019136D01*
X107511243Y-107019136D01*
X107622519Y-106973044D01*
X107815294Y-106844236D01*
X107979236Y-106680294D01*
X108108044Y-106487519D01*
X108196769Y-106273318D01*
X108242000Y-106045924D01*
X108242000Y-105814076D01*
X108196769Y-105586682D01*
X108108044Y-105372481D01*
X107979236Y-105179706D01*
X107815294Y-105015764D01*
X107622519Y-104886956D01*
X107408318Y-104798231D01*
X107180924Y-104753000D01*
X106949076Y-104753000D01*
X106721682Y-104798231D01*
X106507481Y-104886956D01*
X106314706Y-105015764D01*
X106150764Y-105179706D01*
X106021956Y-105372481D01*
X105933231Y-105586682D01*
X105888000Y-105814076D01*
X105702000Y-105814076D01*
X105656769Y-105586682D01*
X105568044Y-105372481D01*
X105439236Y-105179706D01*
X105275294Y-105015764D01*
X105082519Y-104886956D01*
X104868318Y-104798231D01*
X104640924Y-104753000D01*
X104409076Y-104753000D01*
X104181682Y-104798231D01*
X103967481Y-104886956D01*
X103774706Y-105015764D01*
X103610764Y-105179706D01*
X103481956Y-105372481D01*
X103393231Y-105586682D01*
X103348000Y-105814076D01*
X103162000Y-105814076D01*
X103116769Y-105586682D01*
X103028044Y-105372481D01*
X102899236Y-105179706D01*
X102735294Y-105015764D01*
X102542519Y-104886956D01*
X102328318Y-104798231D01*
X102100924Y-104753000D01*
X101869076Y-104753000D01*
X101641682Y-104798231D01*
X101427481Y-104886956D01*
X101234706Y-105015764D01*
X101070764Y-105179706D01*
X100941956Y-105372481D01*
X100853231Y-105586682D01*
X100808000Y-105814076D01*
X100622000Y-105814076D01*
X100576769Y-105586682D01*
X100488044Y-105372481D01*
X100359236Y-105179706D01*
X100195294Y-105015764D01*
X100002519Y-104886956D01*
X99788318Y-104798231D01*
X99560924Y-104753000D01*
X99329076Y-104753000D01*
X99101682Y-104798231D01*
X98887481Y-104886956D01*
X98694706Y-105015764D01*
X98530764Y-105179706D01*
X98401956Y-105372481D01*
X98391340Y-105398110D01*
X98393072Y-105080000D01*
X98380812Y-104955518D01*
X98344502Y-104835820D01*
X98285537Y-104725506D01*
X98206185Y-104628815D01*
X98109494Y-104549463D01*
X97999180Y-104490498D01*
X97879482Y-104454188D01*
X97755000Y-104441928D01*
X97190750Y-104445000D01*
X97032000Y-104603750D01*
X96778000Y-104603750D01*
X96619250Y-104445000D01*
X96055000Y-104441928D01*
X95930518Y-104454188D01*
X95810820Y-104490498D01*
X95700506Y-104549463D01*
X95603815Y-104628815D01*
X95524463Y-104725506D01*
X95465498Y-104835820D01*
X95429188Y-104955518D01*
X95416928Y-105080000D01*
X89812000Y-105080000D01*
X89812000Y-102143397D01*
X114808000Y-102143397D01*
X114808000Y-102286603D01*
X114835938Y-102427058D01*
X114890741Y-102559364D01*
X114970302Y-102678436D01*
X115071564Y-102779698D01*
X115190636Y-102859259D01*
X115322942Y-102914062D01*
X115463397Y-102942000D01*
X115606603Y-102942000D01*
X115747058Y-102914062D01*
X115879364Y-102859259D01*
X115998436Y-102779698D01*
X116099698Y-102678436D01*
X116179259Y-102559364D01*
X116234062Y-102427058D01*
X116262000Y-102286603D01*
X116262000Y-102263397D01*
X123483000Y-102263397D01*
X123483000Y-102406603D01*
X123510938Y-102547058D01*
X123565741Y-102679364D01*
X123645302Y-102798436D01*
X123746564Y-102899698D01*
X123865636Y-102979259D01*
X123997942Y-103034062D01*
X124138397Y-103062000D01*
X124281603Y-103062000D01*
X124422058Y-103034062D01*
X124554364Y-102979259D01*
X124673436Y-102899698D01*
X124774698Y-102798436D01*
X124854259Y-102679364D01*
X124909062Y-102547058D01*
X124937000Y-102406603D01*
X124937000Y-102263397D01*
X124909062Y-102122942D01*
X124854259Y-101990636D01*
X124774698Y-101871564D01*
X124673436Y-101770302D01*
X124554364Y-101690741D01*
X124422058Y-101635938D01*
X124281603Y-101608000D01*
X124138397Y-101608000D01*
X123997942Y-101635938D01*
X123865636Y-101690741D01*
X123746564Y-101770302D01*
X123645302Y-101871564D01*
X123565741Y-101990636D01*
X123510938Y-102122942D01*
X123483000Y-102263397D01*
X116262000Y-102263397D01*
X116262000Y-102143397D01*
X116234062Y-102002942D01*
X116179259Y-101870636D01*
X116099698Y-101751564D01*
X115998436Y-101650302D01*
X115879364Y-101570741D01*
X115747058Y-101515938D01*
X115606603Y-101488000D01*
X115463397Y-101488000D01*
X115322942Y-101515938D01*
X115190636Y-101570741D01*
X115071564Y-101650302D01*
X114970302Y-101751564D01*
X114890741Y-101870636D01*
X114835938Y-102002942D01*
X114808000Y-102143397D01*
X89812000Y-102143397D01*
X89812000Y-98873397D01*
X103163000Y-98873397D01*
X103163000Y-99016603D01*
X103190938Y-99157058D01*
X103245741Y-99289364D01*
X103325302Y-99408436D01*
X103426564Y-99509698D01*
X103545636Y-99589259D01*
X103677942Y-99644062D01*
X103818397Y-99672000D01*
X103961603Y-99672000D01*
X104102058Y-99644062D01*
X104234364Y-99589259D01*
X104353436Y-99509698D01*
X104454698Y-99408436D01*
X104534259Y-99289364D01*
X104589062Y-99157058D01*
X104617000Y-99016603D01*
X104617000Y-98873397D01*
X104589062Y-98732942D01*
X104534259Y-98600636D01*
X104454698Y-98481564D01*
X104353436Y-98380302D01*
X104234364Y-98300741D01*
X104102058Y-98245938D01*
X103961603Y-98218000D01*
X103818397Y-98218000D01*
X103677942Y-98245938D01*
X103545636Y-98300741D01*
X103426564Y-98380302D01*
X103325302Y-98481564D01*
X103245741Y-98600636D01*
X103190938Y-98732942D01*
X103163000Y-98873397D01*
X89812000Y-98873397D01*
X89812000Y-93755256D01*
X98909400Y-93755256D01*
X98909400Y-94115144D01*
X98979611Y-94468116D01*
X99117334Y-94800609D01*
X99317276Y-95099845D01*
X99571755Y-95354324D01*
X99870991Y-95554266D01*
X100203484Y-95691989D01*
X100556456Y-95762200D01*
X100916344Y-95762200D01*
X101269316Y-95691989D01*
X101601809Y-95554266D01*
X101901045Y-95354324D01*
X101991972Y-95263397D01*
X132553000Y-95263397D01*
X132553000Y-95406603D01*
X132580938Y-95547058D01*
X132635741Y-95679364D01*
X132715302Y-95798436D01*
X132816564Y-95899698D01*
X132935636Y-95979259D01*
X133067942Y-96034062D01*
X133208397Y-96062000D01*
X133351603Y-96062000D01*
X133492058Y-96034062D01*
X133624364Y-95979259D01*
X133743436Y-95899698D01*
X133844698Y-95798436D01*
X133924259Y-95679364D01*
X133979062Y-95547058D01*
X134007000Y-95406603D01*
X134007000Y-95263397D01*
X133979062Y-95122942D01*
X133924259Y-94990636D01*
X133844698Y-94871564D01*
X133743436Y-94770302D01*
X133624364Y-94690741D01*
X133492058Y-94635938D01*
X133351603Y-94608000D01*
X133208397Y-94608000D01*
X133067942Y-94635938D01*
X132935636Y-94690741D01*
X132816564Y-94770302D01*
X132715302Y-94871564D01*
X132635741Y-94990636D01*
X132580938Y-95122942D01*
X132553000Y-95263397D01*
X101991972Y-95263397D01*
X102155524Y-95099845D01*
X102355466Y-94800609D01*
X102493189Y-94468116D01*
X102563400Y-94115144D01*
X102563400Y-93755256D01*
X102493189Y-93402284D01*
X102355466Y-93069791D01*
X102155524Y-92770555D01*
X101901045Y-92516076D01*
X101601809Y-92316134D01*
X101269316Y-92178411D01*
X100916344Y-92108200D01*
X100556456Y-92108200D01*
X100203484Y-92178411D01*
X99870991Y-92316134D01*
X99571755Y-92516076D01*
X99317276Y-92770555D01*
X99117334Y-93069791D01*
X98979611Y-93402284D01*
X98909400Y-93755256D01*
X89812000Y-93755256D01*
X89812000Y-89983397D01*
X106338000Y-89983397D01*
X106338000Y-90126603D01*
X106365938Y-90267058D01*
X106420741Y-90399364D01*
X106500302Y-90518436D01*
X106601564Y-90619698D01*
X106720636Y-90699259D01*
X106852942Y-90754062D01*
X106993397Y-90782000D01*
X107136603Y-90782000D01*
X107277058Y-90754062D01*
X107409364Y-90699259D01*
X107528436Y-90619698D01*
X107629698Y-90518436D01*
X107709259Y-90399364D01*
X107764062Y-90267058D01*
X107792000Y-90126603D01*
X107792000Y-89983397D01*
X107764062Y-89842942D01*
X107709259Y-89710636D01*
X107629698Y-89591564D01*
X107528436Y-89490302D01*
X107409364Y-89410741D01*
X107277058Y-89355938D01*
X107136603Y-89328000D01*
X106993397Y-89328000D01*
X106852942Y-89355938D01*
X106720636Y-89410741D01*
X106601564Y-89490302D01*
X106500302Y-89591564D01*
X106420741Y-89710636D01*
X106365938Y-89842942D01*
X106338000Y-89983397D01*
X89812000Y-89983397D01*
X89812000Y-88035056D01*
X107408000Y-88035056D01*
X107408000Y-88394944D01*
X107478211Y-88747916D01*
X107615934Y-89080409D01*
X107815876Y-89379645D01*
X108070355Y-89634124D01*
X108369591Y-89834066D01*
X108702084Y-89971789D01*
X109055056Y-90042000D01*
X109414944Y-90042000D01*
X109767916Y-89971789D01*
X110100409Y-89834066D01*
X110399645Y-89634124D01*
X110654124Y-89379645D01*
X110854066Y-89080409D01*
X110991789Y-88747916D01*
X111062000Y-88394944D01*
X111062000Y-88035056D01*
X110991789Y-87682084D01*
X110910178Y-87485056D01*
X132883000Y-87485056D01*
X132883000Y-87844944D01*
X132953211Y-88197916D01*
X133090934Y-88530409D01*
X133290876Y-88829645D01*
X133545355Y-89084124D01*
X133844591Y-89284066D01*
X134177084Y-89421789D01*
X134530056Y-89492000D01*
X134889944Y-89492000D01*
X135242916Y-89421789D01*
X135575409Y-89284066D01*
X135874645Y-89084124D01*
X136129124Y-88829645D01*
X136329066Y-88530409D01*
X136466789Y-88197916D01*
X136537000Y-87844944D01*
X136537000Y-87485056D01*
X136466789Y-87132084D01*
X136329066Y-86799591D01*
X136129124Y-86500355D01*
X135874645Y-86245876D01*
X135575409Y-86045934D01*
X135242916Y-85908211D01*
X134889944Y-85838000D01*
X134530056Y-85838000D01*
X134177084Y-85908211D01*
X133844591Y-86045934D01*
X133545355Y-86245876D01*
X133290876Y-86500355D01*
X133090934Y-86799591D01*
X132953211Y-87132084D01*
X132883000Y-87485056D01*
X110910178Y-87485056D01*
X110854066Y-87349591D01*
X110654124Y-87050355D01*
X110399645Y-86795876D01*
X110100409Y-86595934D01*
X109767916Y-86458211D01*
X109414944Y-86388000D01*
X109055056Y-86388000D01*
X108702084Y-86458211D01*
X108369591Y-86595934D01*
X108070355Y-86795876D01*
X107815876Y-87050355D01*
X107615934Y-87349591D01*
X107478211Y-87682084D01*
X107408000Y-88035056D01*
X89812000Y-88035056D01*
X89812000Y-86927897D01*
X95666000Y-86927897D01*
X95666000Y-87071103D01*
X95693938Y-87211558D01*
X95748741Y-87343864D01*
X95828302Y-87462936D01*
X95929564Y-87564198D01*
X96048636Y-87643759D01*
X96180942Y-87698562D01*
X96321397Y-87726500D01*
X96464603Y-87726500D01*
X96605058Y-87698562D01*
X96737364Y-87643759D01*
X96856436Y-87564198D01*
X96957698Y-87462936D01*
X97037259Y-87343864D01*
X97092062Y-87211558D01*
X97120000Y-87071103D01*
X97120000Y-86927897D01*
X97092062Y-86787442D01*
X97037259Y-86655136D01*
X96957698Y-86536064D01*
X96856436Y-86434802D01*
X96737364Y-86355241D01*
X96605058Y-86300438D01*
X96464603Y-86272500D01*
X96321397Y-86272500D01*
X96180942Y-86300438D01*
X96048636Y-86355241D01*
X95929564Y-86434802D01*
X95828302Y-86536064D01*
X95748741Y-86655136D01*
X95693938Y-86787442D01*
X95666000Y-86927897D01*
X89812000Y-86927897D01*
X89812000Y-84155600D01*
X101259618Y-84155600D01*
X101259618Y-85855600D01*
X101265932Y-85919703D01*
X101284630Y-85981343D01*
X101314994Y-86038150D01*
X101355857Y-86087943D01*
X101405650Y-86128806D01*
X101462457Y-86159170D01*
X101524097Y-86177868D01*
X101588200Y-86184182D01*
X103288200Y-86184182D01*
X103352303Y-86177868D01*
X103413943Y-86159170D01*
X103470750Y-86128806D01*
X103520543Y-86087943D01*
X103561406Y-86038150D01*
X103591770Y-85981343D01*
X103610468Y-85919703D01*
X103616782Y-85855600D01*
X103616782Y-85588192D01*
X103634043Y-85636852D01*
X103783022Y-85886955D01*
X103977931Y-86103188D01*
X104211280Y-86277241D01*
X104474101Y-86402425D01*
X104621310Y-86447076D01*
X104851200Y-86325755D01*
X104851200Y-85132600D01*
X105105200Y-85132600D01*
X105105200Y-86325755D01*
X105335090Y-86447076D01*
X105482299Y-86402425D01*
X105745120Y-86277241D01*
X105978469Y-86103188D01*
X106173378Y-85886955D01*
X106322357Y-85636852D01*
X106419681Y-85362491D01*
X106299014Y-85132600D01*
X105105200Y-85132600D01*
X104851200Y-85132600D01*
X104831200Y-85132600D01*
X104831200Y-84878600D01*
X104851200Y-84878600D01*
X104851200Y-83685445D01*
X105105200Y-83685445D01*
X105105200Y-84878600D01*
X106299014Y-84878600D01*
X106419681Y-84648709D01*
X106322357Y-84374348D01*
X106173378Y-84124245D01*
X105978469Y-83908012D01*
X105780108Y-83760056D01*
X136108000Y-83760056D01*
X136108000Y-84119944D01*
X136178211Y-84472916D01*
X136315934Y-84805409D01*
X136515876Y-85104645D01*
X136770355Y-85359124D01*
X137069591Y-85559066D01*
X137402084Y-85696789D01*
X137755056Y-85767000D01*
X138114944Y-85767000D01*
X138467916Y-85696789D01*
X138800409Y-85559066D01*
X139099645Y-85359124D01*
X139354124Y-85104645D01*
X139554066Y-84805409D01*
X139691789Y-84472916D01*
X139762000Y-84119944D01*
X139762000Y-83760056D01*
X139691789Y-83407084D01*
X139554066Y-83074591D01*
X139354124Y-82775355D01*
X139099645Y-82520876D01*
X138800409Y-82320934D01*
X138467916Y-82183211D01*
X138114944Y-82113000D01*
X137755056Y-82113000D01*
X137402084Y-82183211D01*
X137069591Y-82320934D01*
X136770355Y-82520876D01*
X136515876Y-82775355D01*
X136315934Y-83074591D01*
X136178211Y-83407084D01*
X136108000Y-83760056D01*
X105780108Y-83760056D01*
X105745120Y-83733959D01*
X105482299Y-83608775D01*
X105335090Y-83564124D01*
X105105200Y-83685445D01*
X104851200Y-83685445D01*
X104621310Y-83564124D01*
X104474101Y-83608775D01*
X104211280Y-83733959D01*
X103977931Y-83908012D01*
X103783022Y-84124245D01*
X103634043Y-84374348D01*
X103616782Y-84423008D01*
X103616782Y-84155600D01*
X103610468Y-84091497D01*
X103591770Y-84029857D01*
X103561406Y-83973050D01*
X103520543Y-83923257D01*
X103470750Y-83882394D01*
X103413943Y-83852030D01*
X103352303Y-83833332D01*
X103288200Y-83827018D01*
X101588200Y-83827018D01*
X101524097Y-83833332D01*
X101462457Y-83852030D01*
X101405650Y-83882394D01*
X101355857Y-83923257D01*
X101314994Y-83973050D01*
X101284630Y-84029857D01*
X101265932Y-84091497D01*
X101259618Y-84155600D01*
X89812000Y-84155600D01*
X89812000Y-80362000D01*
X141585200Y-80362000D01*
X141585201Y-121492783D01*
G37*
%TD.AperFunction*%
%TD*%
M02*
